<svg xmlns="http://www.w3.org/2000/svg" width="183.427" height="280.094" viewBox="0 0 183.427 280.094"><g transform="translate(-404.479 311.793)"><path d="M477.812-57.925s-28.667,7.333-12.667,19.333,34,6.667,72.666-3.333,51.333-12.667,50-26.667c-3.333-14-31.333-8-31.333-8L477.812-57.925" fill="#73bd7a"/><path d="M576.479-71.925c0,11.783-34.027,21.333-76,21.333s-76-9.551-76-21.333,34.027-21.333,76-21.333,76,9.552,76,21.333" fill="#73bd7a"/><path d="M495.441-58.569c25.519-2.832,54.963,2.832,62.815-7.554s-9.813-16.049-22.575-16.049l6.872-7.552s27.481-.944,34.351,16.993S550.4-46.3,518.015-45.352L495.441-58.569" fill="#eaeced"/><path d="M533.236-59.511c-11.484.221-25.121-.465-37.795.942-25.519,2.832-30.057,9.087-25.151,16.639s15.336-2.477,47.724-3.421A191.159,191.159,0,0,0,539.825-47.2c-1.488-5.992-3.909-9.85-6.589-12.308" fill="#9997a5"/><path d="M547.981-80.584a36.544,36.544,0,0,1,.913-8.835,51.513,51.513,0,0,0-6.341-.305l-6.872,7.552a49.826,49.826,0,0,1,12.3,1.588" fill="#d5d5d3"/><path d="M531.988-158.294l-35.62,12.637-44.949-12.637c.448,1.38-27.288,45.972-9.841,77.232,9.841,10.113,30.505,11.033,30.505,11.033l40.223.918s19.683-1.839,29.525-11.952c17.445-31.26-10.289-75.852-9.843-77.232" fill="#9997a5"/><path d="M529.195-172.393c0,1.84,25.732,23.907-7.647,99.605,0,0-2.869,4.6-11.153,4.291-4.46-.614,1.276-7.968,1.276-7.968s.636-16.549-3.825-25.437a23.442,23.442,0,0,0-16.089-5.824H491.2A23.447,23.447,0,0,0,475.11-101.9c-4.46,8.888-3.824,25.437-3.824,25.437s5.736,7.355,1.276,7.968c-8.285.308-11.153-4.291-11.153-4.291-33.3-78.152-7.647-97.765-7.647-99.605" fill="#eaeced"/><path d="M452.635-167.133c16.736,9.709,45.337,19.547,77.862,2-.6-7.211-1.3-11.632-1.3-12.167H453.762c0,.484-.572,4.147-1.127,10.163" fill="#d5d5d3"/><path d="M512.757-282.806s13.527-26,28.533-28.987c15.412-.255,12.281,56.827,12.281,56.827l-40.815-27.84" fill="#d5d5d3"/><path d="M445.871-273.638s-20.539-21.331-35.816-20.167c-14.872,3.9,4.711,57.864,4.711,57.864l31.105-37.7" fill="#eaeced"/><path d="M433.874-267.814s-9.8-10.731-16.556-10.733c-6.151.843-.888,23.34,4.585,27.7s13.86-10.721,11.971-16.964" fill="#d5d5d3"/><path d="M525.351-282.21s6.291-12.936,12.78-14.753c6.152-.844,7.631,22.172,3.64,27.827s-16.423-6.572-16.42-13.073" fill="#b1a9bb"/><path d="M571.091-227.963c6,40.468-29.427,60.853-74.026,66.967s-81.484-4.36-87.48-44.831,25.3-78.232,69.9-84.345,85.613,21.739,91.609,62.209" fill="#eaeced"/><path d="M479.482-290.173c-1.683.231-3.34.521-4.983.84-3.463,19.207-2.533,51.021,31.881,74.268,21.661,14.635,43.829,16.107,62.385,12.593,2.813-7.423,3.748-15.884,2.325-25.492-6-40.471-47.011-68.322-91.609-62.209" fill="#d5d5d3"/><path d="M466.488-115.213a75.3,75.3,0,0,0,50.056-1.415c-2.455,7.552-37.3,16.048-50.056,1.415" fill="#d5d5d3"/><path d="M461.826-224.25a5.78,5.78,0,0,1-5.888,5.664,5.78,5.78,0,0,1-5.889-5.664,5.779,5.779,0,0,1,5.889-5.664,5.779,5.779,0,0,1,5.888,5.664" fill="#445765"/><path d="M502.488-213.206a5.619,5.619,0,0,1-3.715,7.169,5.945,5.945,0,0,1-7.455-3.573c-1.033-2.965,2.032-2.147,5.117-3.14s5.019-3.423,6.052-.456" fill="#445765"/><path d="M525.868-237a5.78,5.78,0,0,1-5.889,5.664A5.78,5.78,0,0,1,514.089-237a5.781,5.781,0,0,1,5.889-5.664A5.781,5.781,0,0,1,525.868-237" fill="#445765"/><path d="M498.631-207.257l5.521,14.16" fill="none" stroke="#445765" stroke-linecap="round" stroke-linejoin="round" stroke-miterlimit="10" stroke-width="1.333"/><path d="M496.423-191.68s3.925,3.54,7.852-1.417c0,0,6.135,1.417,7.116-3.068" fill="none" stroke="#445765" stroke-linecap="round" stroke-linejoin="round" stroke-miterlimit="10" stroke-width="1.333"/><path d="M454.464-195.929s5.521-4.956,9.937-6.727" fill="none" stroke="#445765" stroke-linecap="round" stroke-linejoin="round" stroke-miterlimit="10" stroke-width="1.333"/><path d="M458.952-188.093s3.361-6.505,6.851-9.653" fill="none" stroke="#445765" stroke-linecap="round" stroke-linejoin="round" stroke-miterlimit="10" stroke-width="1.333"/><path d="M465.221-186.532s1.7-5.133,3.883-7.819" fill="none" stroke="#445765" stroke-linecap="round" stroke-linejoin="round" stroke-miterlimit="10" stroke-width="1.333"/><path d="M540.932-220.3s-7.551.108-12.011,1.776" fill="none" stroke="#445765" stroke-linecap="round" stroke-linejoin="round" stroke-miterlimit="10" stroke-width="1.333"/><path d="M543.341-211.659s-7.109-2.448-11.892-2.392" fill="none" stroke="#445765" stroke-linecap="round" stroke-linejoin="round" stroke-miterlimit="10" stroke-width="1.333"/><path d="M539.948-206.354s-4.921-2.569-8.433-3.048" fill="none" stroke="#445765" stroke-linecap="round" stroke-linejoin="round" stroke-miterlimit="10" stroke-width="1.333"/><path d="M455.938-145.185s-.247,5.9,1.717,9.675c1.471,2.124,4.171-3.54,4.171-3.54s.245,5.428,4.416,8.261c1.717,1.416,3.927-4.248,3.927-4.248s-2.7,2.832-3.68,2.595-3.927-8.967-3.927-10.855c-2.7,2.832-2.7,4.484-3.925,4.72-1.228,0-2.7-6.608-2.7-6.608" fill="#d5d5d3"/><path d="M526.963-135.3s.2,4.783-1.392,7.843c-1.192,1.721-3.38-2.869-3.38-2.869s-.2,4.4-3.579,6.695c-1.392,1.148-3.183-3.443-3.183-3.443s2.188,2.295,2.983,2.1,3.183-7.268,3.183-8.8c2.188,2.3,2.188,3.636,3.181,3.827.995,0,2.187-5.356,2.187-5.356" fill="#d5d5d3"/><path d="M447.348-78.395s-7.36,2.832-1.472,7.08,10.305-2.832,10.305-2.832l-8.833-4.248" fill="#9997a5"/><path d="M536.835-78.395s7.36,2.832,1.472,7.08S528-74.147,528-74.147l8.833-4.248" fill="#9997a5"/></g></svg>