<svg xmlns="http://www.w3.org/2000/svg" width="187.603" height="247.513" viewBox="0 0 187.603 247.513"><g transform="translate(-384.273 600.771)"><path d="M549.812-374.591c0,11.783-34.027,21.333-76,21.333s-76-9.551-76-21.333,34.027-21.333,76-21.333,76,9.552,76,21.333" fill="#73bd7a"/><path d="M506.579-372.484a59.986,59.986,0,0,1,13.061,2.824c8.159,2.551,17.283-2.708,17.283-2.708l-6.263-1.956a15.378,15.378,0,0,0,13.413-5.66c5.5-6.827,10.587-12.876,14.183-15.94-.115-2.263-6.881-.055-6.881-.055s2.832-.931,9.325-5.364,9.695-16.989,10.847-21.761-1.083-10.941-1.083-10.941c-5.541,6.121-.411-6.351-7.872-10.6a28.534,28.534,0,0,0-15.733,18.347l-1.549-4.721s-3.741,7.085-4.208,13.307-7.041,14.236-7.041,14.236l.028-6.285s-2.241,9.1-6.277,12.1a35.487,35.487,0,0,1-7.373,4.3l1.593-4.708s-8.109.153-16,7.973-3.588,15.195.549,17.6" fill="#cb9356"/><path d="M506.032-454.294l-34.261,12.637-43.235-12.637c.429,1.379-26.248,45.972-9.467,77.232,9.467,10.113,29.341,11.033,29.341,11.033l38.689.92s18.932-1.84,28.4-11.953c16.78-31.26-9.9-75.853-9.467-77.232" fill="#ac784b"/><path d="M503.344-468.391c0,1.839,24.751,23.905-7.355,99.6,0,0-2.759,4.6-10.727,4.291-4.291-.612,1.225-7.968,1.225-7.968s.613-16.549-3.677-25.437c0,0-6.283-6.283-15.476-5.824H466.8c-9.193-.459-15.476,5.824-15.476,5.824-4.291,8.888-3.679,25.437-3.679,25.437s5.517,7.356,1.227,7.968c-7.969.307-10.727-4.291-10.727-4.291-32.027-78.15-7.356-97.765-7.356-99.6h72.556" fill="#cb9356"/><path d="M443.03-413.434a69.841,69.841,0,0,0,48.147-1.416c-2.36,7.552-35.875,16.048-48.147,1.416" fill="#b47e4a"/><path d="M430.382-430.519s-.237,5.9,1.652,9.676c1.416,2.125,4.012-3.539,4.012-3.539s.236,5.428,4.248,8.26c1.652,1.416,3.776-4.249,3.776-4.249s-2.6,2.833-3.54,2.6-3.776-8.969-3.776-10.857c-2.6,2.832-2.6,4.484-3.776,4.721-1.181,0-2.6-6.609-2.6-6.609" fill="#ac784b"/><path d="M501.2-431.3s.192,4.783-1.339,7.843c-1.148,1.721-3.252-2.869-3.252-2.869s-.192,4.4-3.443,6.695c-1.339,1.148-3.06-3.443-3.06-3.443s2.1,2.295,2.868,2.1,3.061-7.269,3.061-8.8c2.1,2.295,2.1,3.633,3.06,3.825.957,0,2.1-5.356,2.1-5.356" fill="#ac784b"/><path d="M428.036-479.331s-9.736,12.787-8.821,24.665c.912,1.828,3.655-2.741,3.655-2.741s-.457,9.595,3.2,16.448c3.656,6.4,5.483,7.311,5.483,7.311l-1.371-5.483s4.112,6.4,10.508,9.593,8.681,4.569,8.681,4.569L448-429.994a32.8,32.8,0,0,0,8.68,7.311c5.027,2.741,5.94,4.112,5.94,4.112s9.595-5.483,13.251-10.967l-1.371,5.484s12.792-3.655,16.9-12.793l-.613,6.809S501-437.3,504.651-443.7a34.542,34.542,0,0,0,4.113-13.249l1.827,5.025s2.285-5.94,1.828-15.991-7.768-17.361-7.768-17.361l-76.614,5.945" fill="#dea870"/><path d="M421.812-469.258s8,14.667,34,18.667,50-9.333,54-16.667-88-2-88-2" fill="#cb9356"/><path d="M499.483-575.524s16.655-23.832,31.369-24.687c14.7,1.9,3.424,57.94,3.424,57.94l-34.793-33.253" fill="#cb9356"/><path d="M434.5-575.809s-16.445-23.977-31.153-24.961c-14.719,1.775-3.931,57.908-3.931,57.908L434.5-575.809" fill="#cb9356"/><path d="M422.232-571.725s-7.761-11.987-14.193-12.935c-5.977-.025-4.239,22.968.336,28.044s14.749-8.669,13.857-15.109" fill="#a06558"/><path d="M511.38-573.172s7.868-11.919,14.307-12.811c5.977.027,4.039,23-.581,28.041s-14.673-8.8-13.725-15.231" fill="#a06558"/><path d="M545.248-531.257a3.482,3.482,0,0,0-.5.143c-8.383-32.215-39.115-56.19-75.864-56.351-37.617-.165-69.148,24.679-76.928,57.98-2.369,5.761-9.492,23.976-7.257,29.561,2.667,2.667,5.333-1.333,5.333-1.333s-4,10.667-.667,17.333a3.329,3.329,0,0,0,4-2.667s2.667,10.667,8.667,14.667c1.315,1.315,4.064-.249,5.8-1.477,13.937,11.256,34.963,16.092,59,16.2,24.877.109,47.545-4.873,62.388-16.863,1.472,1.156,5.113,3.721,6.691,2.143,6-4,8.667-14.667,8.667-14.667a3.329,3.329,0,0,0,4,2.667c3.333-6.667-.667-17.333-.667-17.333s2.667,4,5.333,1.333c2.667-6.667-8-31.333-8-31.333" fill="#cb9356"/><path d="M424.62-374.394s-7.08,2.832-1.416,7.08,9.913-2.832,9.913-2.832l-8.5-4.248" fill="#ac784b"/><path d="M510.692-374.394s7.081,2.832,1.417,7.08-9.913-2.832-9.913-2.832l8.5-4.248" fill="#ac784b"/><path d="M443.146-529.591a4.333,4.333,0,0,1-4.333,4.333,4.333,4.333,0,0,1-4.333-4.333,4.334,4.334,0,0,1,4.333-4.333,4.334,4.334,0,0,1,4.333,4.333" fill="#445765"/><path d="M497.145-529.591a4.333,4.333,0,0,1-4.333,4.333,4.333,4.333,0,0,1-4.333-4.333,4.334,4.334,0,0,1,4.333-4.333,4.334,4.334,0,0,1,4.333,4.333" fill="#445765"/><path d="M535.915-471.924c6-4,8.667-14.667,8.667-14.667a3.329,3.329,0,0,0,4,2.667c3.333-6.667-.667-17.333-.667-17.333s2.667,4,5.333,1.333c1.415-3.535-.92-12.128-3.425-19.424-3.54-1.745-8.5-2.355-15.344.091-18.667,6.667-28.667,11.333-39.333,9.333s-14.667-9.333-24-10h-7.333c-9.333.667-13.333,8-24,10s-20.667-2.667-39.333-9.333c-4.887-1.745-8.807-1.928-11.941-1.26-2.649,7.521-5.328,16.865-3.836,20.593,2.667,2.667,5.333-1.333,5.333-1.333s-4,10.667-.667,17.333a3.329,3.329,0,0,0,4-2.667s2.667,10.667,8.667,14.667c1.315,1.315,4.064-.249,5.8-1.477,13.937,11.256,34.963,16.092,59,16.2,24.877.109,47.545-4.873,62.388-16.863,1.472,1.156,5.113,3.721,6.691,2.143" fill="#e6b87d"/><path d="M471.256-515.368a4.333,4.333,0,0,1-4.333,4.333,4.333,4.333,0,0,1-4.333-4.333c0-2.393,1.94-.333,4.333-.333s4.333-2.06,4.333.333" fill="#445765"/><path d="M466.923-511.035v18.221" fill="none" stroke="#445765" stroke-miterlimit="10" stroke-width="1.333"/><path d="M452.035-490.591s8.888,5.333,15.111-2.667" fill="none" stroke="#445765" stroke-linecap="round" stroke-linejoin="round" stroke-miterlimit="10" stroke-width="1.333"/><path d="M481.868-490.591s-8.889,5.333-15.112-2.667" fill="none" stroke="#445765" stroke-linecap="round" stroke-linejoin="round" stroke-miterlimit="10" stroke-width="1.333"/><path d="M471.146-552.815c3.991.332,4.5-22.719,4.5-34.349q-3.342-.284-6.757-.3a83.32,83.32,0,0,0-14.375,1.185c1.584,4.617,10.2,29.043,16.632,33.465" fill="#e6b87d"/><path d="M489.368-572.371c2.241-1,3.784-6.456,4.708-11.067a81.581,81.581,0,0,0-12.951-3.063c1.768,5.565,5.352,15.415,8.243,14.129" fill="#e6b87d"/></g></svg>