<svg xmlns="http://www.w3.org/2000/svg" width="567.224" height="462.363" viewBox="0 0 567.224 462.363"><g transform="translate(-49.721 537.913)"><path d="M333.333-490.3c-64.88-63.491-170.072-63.489-234.952,0a160.128,160.128,0,0,0,0,229.919l134.8,131.913h200.3l134.8-131.913a160.127,160.127,0,0,0,0-229.921c-64.88-63.489-170.072-63.489-234.951,0" fill="#87d5bb"/><path d="M333.333-474.38c-55.9-54.7-146.525-54.7-202.424,0a137.958,137.958,0,0,0,0,198.088L281.974-128.462H384.691l151.064-147.83a137.955,137.955,0,0,0,0-198.087c-55.9-54.7-146.525-54.7-202.422,0" fill="#70ceb4"/><path d="M308.889-75.55c-71.337,0-129.168-9.2-129.168-20.551s57.831-20.55,129.168-20.55c6.88,0,13.632.085,20.22.249.351,6.8.848,13.592,1.672,20.361.225,1.849.589,4.2,2.263,5.229a5.891,5.891,0,0,0,2.319.655c6.757.929,13.457,1.907,20.179,2.2.857,3.507,10.5,6.655,25.532,8.9a691.834,691.834,0,0,1-72.184,3.506m65.133-21.14c-.023-.151-.044-.295-.064-.429s-.04-.261-.063-.392q1.36.178,2.717.345c-.887.156-1.752.315-2.591.476m32.492-3.781a23.353,23.353,0,0,0-.407-4.873,13.01,13.01,0,0,0-1.433-4.544c13.6,2.391,23.72,5.294,29.075,8.5-9.6.055-18.765.373-27.235.914m-43.979-4.167a9.114,9.114,0,0,0-4.8-1.537c-1.067-.072-1.7-3.9-2.081-9.088q3.2.2,6.327.421c.2,3.328.489,6.636.872,9.9a1.847,1.847,0,0,0-.313.308" fill="#47c0a3"/><path d="M252.755-161.5c-1.893-8.452-4.319-16.764-6.875-25.017-1.692-5.465-2.927-12.9-6.332-17.516a2.5,2.5,0,0,0-3.051-.624c-11.284,4.843-13.641,23.743-13.223,34.572.7,18.171,11.243,38.144,4.621,55.681a9.124,9.124,0,0,0-4.805,1.538,1.764,1.764,0,0,0-.607-.491c-2.223-1.1-6.2.035-7.968,1.665a10.52,10.52,0,0,0-2.848,6.344c-.272,1.851-.924,5.373.217,6.987a3.329,3.329,0,0,0,2.195,1.207c12.184,2.251,24.088.432,36.185-1.232a5.874,5.874,0,0,0,2.317-.654c1.675-1.025,2.039-3.38,2.264-5.231a220.334,220.334,0,0,0,1.28-31.53,127.586,127.586,0,0,0-2.533-21.736q-.4-1.988-.839-3.963" fill="#fff"/><path d="M220.7-101.438a26.7,26.7,0,0,1,1.977-8.131.283.283,0,0,0-.4-.336,11.024,11.024,0,0,0-5.005,6.877,18.163,18.163,0,0,0-.513,6.3q2.122.294,4.236.444c-.032-1.7-.385-3.472-.295-5.156" fill="#666a7f"/><path d="M232.411-100.159a22.018,22.018,0,0,1,.935-9.509c.237-.648-.572-.958-.959-.612-2.188,1.955-3.131,4.718-3.485,7.72a39.391,39.391,0,0,0-.4,6.421q2.126-.056,4.245-.2c-.056-1.295-.239-2.6-.333-3.819" fill="#666a7f"/><path d="M364.183-157.534a127.588,127.588,0,0,0-2.535,21.736,220.522,220.522,0,0,0,1.281,31.53c.225,1.849.589,4.206,2.263,5.231a5.88,5.88,0,0,0,2.319.654c12.1,1.664,24,3.482,36.184,1.232a3.332,3.332,0,0,0,2.2-1.207c1.14-1.615.488-5.136.216-6.987a10.512,10.512,0,0,0-2.848-6.344c-1.767-1.63-5.744-2.761-7.967-1.665a1.751,1.751,0,0,0-.607.491,9.128,9.128,0,0,0-4.805-1.538c-6.623-17.537,3.919-37.51,4.621-55.681.417-10.829-1.94-29.729-13.223-34.572a2.5,2.5,0,0,0-3.051.624c-3.405,4.615-4.64,12.051-6.332,17.516-2.556,8.253-4.983,16.565-6.875,25.017q-.442,1.974-.839,3.963" fill="#fff"/><path d="M397.076-101.438a26.742,26.742,0,0,0-1.979-8.131.283.283,0,0,1,.4-.336,11.022,11.022,0,0,1,5.007,6.876,18.2,18.2,0,0,1,.513,6.3q-2.124.294-4.236.444c.031-1.7.385-3.472.295-5.156" fill="#666a7f"/><path d="M385.364-100.159a21.978,21.978,0,0,0-.935-9.509c-.236-.648.573-.958.96-.612,2.188,1.955,3.129,4.718,3.484,7.72a39.086,39.086,0,0,1,.4,6.421q-2.124-.056-4.245-.2c.057-1.295.239-2.6.333-3.819" fill="#666a7f"/><path d="M245.885-201.894a1.572,1.572,0,0,0-.425-.528c-1.135-13.339-8.716-22.72-20.929-27.913-18.079-7.687-39.765-5.951-55.6-18.8-15.4-12.5-21.672-32.892-20-52.209a62.18,62.18,0,0,1,8.091-26.007c3.907-6.812,8.569-13.395,10.773-21.019a31.97,31.97,0,0,0-.029-16.445c-1.067-3.764-3.535-7.343-7.189-8.739-18.083-6.908-27.257,25.2-30.454,36.652a127.684,127.684,0,0,0-3.815,49.217c1.2,9.9,3.216,20.108,6.882,29.412,6.6,16.751,20.894,27.661,37.494,33.541a136.689,136.689,0,0,0,25.631,5.943c7.952,1.188,15.795,1.744,23.128,5.487,9.367,4.781,15.975,13.684,18.741,23.745a6.279,6.279,0,0,0,1.311,4.355c1.393,1.515,3.124,1.033,4.351-.365,3.595-4.1,4.533-11.528,2.04-16.324" fill="#f4f2f2"/><path d="M176.533-244.2a44.028,44.028,0,0,1-7.6-4.935c-15.4-12.5-21.672-32.892-20-52.209a62.174,62.174,0,0,1,8.091-26.007c3.907-6.812,8.569-13.395,10.773-21.019a31.97,31.97,0,0,0-.029-16.445c-1.067-3.764-3.535-7.343-7.189-8.739-18.083-6.908-27.257,25.2-30.454,36.652a127.684,127.684,0,0,0-3.815,49.217q.234,1.93.513,3.872c1.144.155,2.408.135,3.889.219,3.183.176,5.855-.237,8.04,2.816,1.067,1.492,1.829,4.185,2.505,6.087,1.588,4.461,2.7,9.079,4.268,13.549,3.345,9.557,10.26,22.395,22.039,22.587,3.78.063,7.673-2,8.972-5.645" fill="#666a7f"/><path d="M384.862-164.4C384.862-224.15,350.848-299,308.889-299S232.914-224.15,232.914-164.4s34.015,66.463,75.974,66.463,75.973-6.715,75.973-66.463" fill="#fff"/><path d="M269.1-275.625c-19.756,24.441-33.516,64.229-35.833,100.562,12.175,2.076,25.392-5.365,22.723-20.213-.848-4.719-3.176-9-4.157-13.672-1.775-8.461,4.629-14.181,11.519-17.756,8.843-4.589,21.2-2.008,28.86-8.6s3.355-18.552-1.385-25.6A35.741,35.741,0,0,0,269.1-275.625" fill="#666a7f"/><path d="M350.392-131.173c0-29.873-18.583-67.3-41.5-67.3s-41.5,37.424-41.5,67.3,18.581,33.232,41.5,33.232,41.5-3.358,41.5-33.232" fill="#e8e5e4"/><path d="M290.163-152.964c1.051-17.337,3.513-34.577,3.513-51.976.18-3.949,1.789-10.995-1.535-14.123-1.069-1.007-2.661-1.157-4.125-1.256-4.724-.317-10.121-.385-13.375,3.053-2.125,2.245-2.776,5.469-3.337,8.512-4,21.651-7.211,43.2-8.551,65.215-.193,3.184.489,37.146-2.708,37.363a9.119,9.119,0,0,0-4.805,1.537,1.751,1.751,0,0,0-.607-.49c-2.223-1.1-6.2.033-7.968,1.666a10.505,10.505,0,0,0-2.847,6.343c-.272,1.85-.925,5.373.216,6.987a3.342,3.342,0,0,0,2.195,1.207c12.184,2.251,24.089.431,36.185-1.232a5.89,5.89,0,0,0,2.317-.655c1.675-1.025,2.039-3.38,2.264-5.229,2.205-18.127,2.071-36.416,3.036-54.624q.06-1.15.131-2.3" fill="#fff"/><path d="M252.85-93.213a26.7,26.7,0,0,1,1.977-8.129.283.283,0,0,0-.4-.336,11.027,11.027,0,0,0-5.007,6.876,18.234,18.234,0,0,0-.512,6.3q2.122.292,4.235.444c-.031-1.7-.385-3.472-.293-5.157" fill="#666a7f"/><path d="M264.561-91.933a22.021,22.021,0,0,1,.935-9.509c.236-.648-.572-.957-.96-.61-2.187,1.953-3.128,4.717-3.484,7.72a39.093,39.093,0,0,0-.4,6.421q2.122-.056,4.244-.2c-.057-1.294-.237-2.6-.333-3.82" fill="#666a7f"/><path d="M327.745-150.665c.964,18.208.829,36.5,3.036,54.624.225,1.849.589,4.2,2.263,5.229a5.89,5.89,0,0,0,2.319.655c12.1,1.663,24,3.483,36.185,1.232a3.345,3.345,0,0,0,2.195-1.207c1.141-1.615.488-5.137.216-6.987a10.513,10.513,0,0,0-2.847-6.343c-1.767-1.632-5.747-2.761-7.969-1.666a1.775,1.775,0,0,0-.607.49,9.115,9.115,0,0,0-4.8-1.537c-3.2-.216-2.516-34.179-2.709-37.363-1.34-22.011-4.553-43.564-8.551-65.215-.56-3.043-1.212-6.267-3.336-8.512-3.253-3.439-8.652-3.371-13.375-3.053-1.465.1-3.057.249-4.127,1.256-3.323,3.128-1.713,10.173-1.533,14.123,0,17.4,2.463,34.639,3.513,51.976q.07,1.15.131,2.3" fill="#fff"/><path d="M364.926-93.213a26.655,26.655,0,0,0-1.976-8.129.283.283,0,0,1,.4-.336,11.032,11.032,0,0,1,5.007,6.876,18.237,18.237,0,0,1,.511,6.3q-2.122.292-4.235.444c.031-1.7.387-3.472.293-5.157" fill="#666a7f"/><path d="M353.216-91.933a22.042,22.042,0,0,0-.935-9.509c-.237-.648.572-.957.96-.61,2.185,1.953,3.128,4.717,3.483,7.72a39.086,39.086,0,0,1,.4,6.421q-2.124-.056-4.244-.2c.056-1.294.237-2.6.333-3.82" fill="#666a7f"/><path d="M353.259-147.5c-.452-4.959-5.151-9.736-9.521-11.783-2.7-1.263-7.231-.967-9.543-2.825-5.441-4.376,1.027-10.24,2.279-14.933,1.193-4.475.015-8.873-3.805-11.736a9.005,9.005,0,0,0-8.069-1.672c.773,12.508,2.256,24.971,3.015,37.483q.07,1.15.131,2.3c.252,4.756.428,9.52.592,14.284.317.315.644.619.984.908,8.235,7.02,24.952-.9,23.939-12.024" fill="#666a7f"/><path d="M401.918-376.79c6.3-19.044,4.112-60.8-13.679-66.687s-44.451,26.328-50.751,45.372,58.131,40.357,64.429,21.315" fill="#666a7f"/><path d="M396.107-376.382c5.3-16.019,3.459-51.144-11.508-56.095s-37.391,22.147-42.689,38.165,48.9,33.948,54.2,17.929" fill="#fff"/><path d="M394.022-376.015c4.952-14.972,3.232-47.8-10.756-52.429s-34.948,20.7-39.9,35.672,45.7,31.729,50.657,16.757" fill="#f9b0b5"/><path d="M380.426-403a250.58,250.58,0,0,0-24.968-10.045,80.616,80.616,0,0,0-8.069,11.557c-1.417,8.129.955,15.744,5.141,22.632,13.807,8.563,38.136,12.985,41.492,2.841,3.591-10.855,3.669-31.091-1.888-43.165.337,3.536,3.253,23.185-11.708,16.18" fill="#f8a3aa"/><path d="M215.858-376.79c-6.3-19.044-4.112-60.8,13.68-66.687s44.451,26.328,50.751,45.372-58.131,40.357-64.431,21.315" fill="#666a7f"/><path d="M221.669-376.382c-5.3-16.019-3.457-51.144,11.508-56.095s37.391,22.147,42.689,38.165-48.9,33.948-54.2,17.929" fill="#fff"/><path d="M223.755-376.015c-4.952-14.972-3.232-47.8,10.756-52.429s34.947,20.7,39.9,35.672-45.7,31.729-50.656,16.757" fill="#f9b0b5"/><path d="M237.347-403a250.829,250.829,0,0,1,24.969-10.045,80.735,80.735,0,0,1,8.071,11.557c1.417,8.129-.955,15.744-5.143,22.632-13.805,8.563-38.136,12.985-41.492,2.841-3.591-10.855-3.668-31.091,1.888-43.165C225.3-415.644,222.387-396,237.347-403" fill="#f8a3aa"/><path d="M411.764-339.3c-1.231-1.813-2.579-3.636-3.976-5.421a4.024,4.024,0,0,0,3.72.284c1.763-.9,1.777-2.769,1.1-4.471-1.569-3.96-5.288-8.009-7.929-11.207-.993-1.2-2.015-2.449-3.056-3.691.377.119.741.261,1.131.365a.949.949,0,0,0,1.06-.5c2.176-3.9-2.937-8.237-5.1-10.719a23.706,23.706,0,0,0-1.708-1.768,39.582,39.582,0,0,1-6.853-8.332c-19.888-32.748-52.077-50.732-81.208-50.732-27.071,0-56.772,14.167-76.8,43.873a53.437,53.437,0,0,1-9.317,10.291,29.563,29.563,0,0,0-7.7,10.191c-.351.784.225,1.719,1.057,1.491.731-.2,1.449-.427,2.163-.665A50.271,50.271,0,0,0,208.9-355.4c-.584,1.471-1.376,3.948.6,4.719a2.223,2.223,0,0,0,1.593-.069c-1.089,1.761-2.16,3.523-3.2,5.263a28.112,28.112,0,0,0-3.017,7.036,11,11,0,0,0-.439,5.584,1.845,1.845,0,0,0,1.584,1.505c.765.08,2.776-1.277,2.869-2.221q-.352,3.54-.356,6.947c0,27.591,44.956,49.957,100.412,49.957s100.413-22.367,100.413-49.957c0-1.052-.035-2.116-.085-3.188.8,1.267,1.721,2.5,3.191,2.183,1.609-.351,1.964-2.293,1.991-3.785a14.271,14.271,0,0,0-2.693-7.879" fill="#e8e5e4"/><path d="M399.667-343.84c-1.085-1.727-2.275-3.464-3.507-5.165a3.316,3.316,0,0,0,3.281.271c1.555-.857,1.568-2.639.973-4.26-1.385-3.773-4.664-7.632-7-10.677-.875-1.145-1.776-2.335-2.693-3.519.333.115.653.251,1,.349a.817.817,0,0,0,.935-.476c1.92-3.717-2.589-7.848-4.5-10.212a22.245,22.245,0,0,0-1.507-1.685,37.231,37.231,0,0,1-6.043-7.939c-17.54-31.2-45.927-48.34-71.616-48.34-23.875,0-50.068,13.5-67.727,41.8a49.807,49.807,0,0,1-8.216,9.807,28.054,28.054,0,0,0-6.792,9.709c-.308.748.2,1.639.932,1.421.645-.192,1.279-.408,1.908-.635a48.561,48.561,0,0,0-8.335,14.213c-.517,1.4-1.213,3.76.529,4.5a1.837,1.837,0,0,0,1.405-.067c-.961,1.679-1.9,3.356-2.824,5.015a27.908,27.908,0,0,0-2.661,6.7,11.271,11.271,0,0,0-.387,5.321,1.685,1.685,0,0,0,1.4,1.433,3.419,3.419,0,0,0,2.531-2.116q-.31,3.374-.313,6.62c0,26.289,39.647,47.6,88.553,47.6s88.552-21.312,88.552-47.6c0-1-.031-2.017-.076-3.039.709,1.207,1.519,2.384,2.813,2.08,1.42-.333,1.733-2.185,1.756-3.607a14.323,14.323,0,0,0-2.375-7.508" fill="#fff"/><path d="M411.764-339.3c-1.231-1.813-2.579-3.636-3.976-5.421a4.024,4.024,0,0,0,3.72.284c1.763-.9,1.777-2.769,1.1-4.471-1.569-3.96-5.288-8.009-7.929-11.207-.993-1.2-2.015-2.449-3.056-3.691.377.119.741.261,1.131.365a.949.949,0,0,0,1.06-.5c2.176-3.9-2.937-8.237-5.1-10.719a23.706,23.706,0,0,0-1.708-1.768,39.582,39.582,0,0,1-6.853-8.332,116.2,116.2,0,0,0-17.1-21.857c-.5-.023-.992-.047-1.491-.044a24.388,24.388,0,0,0-19.615,9.771c-3.624,4.8-4.84,10.771-6.723,16.356-2.531,7.5-9.029,12.421-13.783,18.436-7.916,10.019-4.417,23.44,4.96,31a37.874,37.874,0,0,0,22.512,8.061c5.331.16,10.524-.461,15.116-3.359,6.329-3.993,10.284-9.529,17.973-11.189a51.567,51.567,0,0,1,10.205-.928c1.133-.015,9.592-.749,10.007-.073-.148-.243-.3-.484-.455-.712" fill="#666a7f"/><path d="M281.07-347.838a17.617,17.617,0,0,0-17.617-17.617,17.618,17.618,0,0,0-17.617,17.617,17.618,17.618,0,0,0,17.617,17.617,17.617,17.617,0,0,0,17.617-17.617" fill="#fcd7ac"/><path d="M279.435-347.838a15.983,15.983,0,0,0-15.983-15.983,15.982,15.982,0,0,0-15.981,15.983,15.982,15.982,0,0,0,15.981,15.983,15.983,15.983,0,0,0,15.983-15.983" fill="#3b3843"/><path d="M264.8-353.471a5.633,5.633,0,0,0-5.633-5.632,5.633,5.633,0,0,0-5.633,5.632,5.634,5.634,0,0,0,5.633,5.633,5.634,5.634,0,0,0,5.633-5.633" fill="#fff"/><path d="M270.431-344.692a2.817,2.817,0,0,0-2.816-2.816,2.816,2.816,0,0,0-2.816,2.816,2.816,2.816,0,0,0,2.816,2.817,2.817,2.817,0,0,0,2.816-2.817" fill="#fff"/><path d="M371.666-347.838a17.343,17.343,0,0,0-17.343-17.343,17.344,17.344,0,0,0-17.343,17.343A17.343,17.343,0,0,0,354.323-330.5a17.342,17.342,0,0,0,17.343-17.343" fill="#fcd7ac"/><path d="M370.306-347.838a15.983,15.983,0,0,0-15.983-15.983,15.982,15.982,0,0,0-15.981,15.983,15.982,15.982,0,0,0,15.981,15.983,15.983,15.983,0,0,0,15.983-15.983" fill="#3b3843"/><path d="M355.67-353.471a5.633,5.633,0,0,0-5.633-5.632,5.632,5.632,0,0,0-5.632,5.632,5.633,5.633,0,0,0,5.632,5.633,5.634,5.634,0,0,0,5.633-5.633" fill="#fff"/><path d="M361.3-344.692a2.818,2.818,0,0,0-2.817-2.816,2.816,2.816,0,0,0-2.816,2.816,2.816,2.816,0,0,0,2.816,2.817,2.818,2.818,0,0,0,2.817-2.817" fill="#fff"/><path d="M293.21-297.127c-9.879,0-17.915-7.385-17.915-16.463a2.237,2.237,0,0,1,2.236-2.237,2.237,2.237,0,0,1,2.237,2.237c0,6.611,6.031,11.989,13.441,11.989s13.441-5.379,13.441-11.989a2.237,2.237,0,0,1,2.237-2.237,2.237,2.237,0,0,1,2.236,2.237c0,9.077-8.036,16.463-17.915,16.463" fill="#3b3843"/><path d="M324.566-297.127c-9.877,0-17.915-7.385-17.915-16.463a2.237,2.237,0,0,1,2.237-2.237,2.237,2.237,0,0,1,2.236,2.237c0,6.611,6.031,11.989,13.441,11.989s13.443-5.379,13.443-11.989a2.237,2.237,0,0,1,2.237-2.237,2.237,2.237,0,0,1,2.236,2.237c0,9.077-8.037,16.463-17.916,16.463" fill="#3b3843"/><path d="M324.289-329.014c0-8.505-6.895-8.619-15.4-8.619s-15.4.113-15.4,8.619,15.4,15.4,15.4,15.4,15.4-6.895,15.4-15.4" fill="#f9b0b5"/><path d="M320.187-336.323a6.766,6.766,0,0,1,1.431,4.633c0,7.031-12.729,12.729-12.729,12.729s-12.731-5.7-12.731-12.729a6.766,6.766,0,0,1,1.432-4.633c-2.539,1.143-4.1,3.276-4.1,7.309,0,8.505,15.4,15.4,15.4,15.4s15.4-6.895,15.4-15.4c0-4.033-1.564-6.167-4.1-7.309" fill="#f8a3aa"/><path d="M291.815-308.783a97.585,97.585,0,0,0-16.635,5.12c-9.191,3.719-20.176,9.743-27.317,19.093a.665.665,0,0,0,.125.933.666.666,0,0,0,.935-.125c6.9-9.045,17.684-15,26.757-18.665a103.79,103.79,0,0,1,11.6-3.9c1.483-.4,2.681-.689,3.507-.876.413-.092.733-.16.948-.205s.324-.064.324-.064a.667.667,0,0,0,.532-.779.667.667,0,0,0-.779-.532" fill="#666a7f"/><path d="M286.893-312.314a49.223,49.223,0,0,0-6.769-.405c-9.207,0-25.935,2-37.38,15.155a.667.667,0,0,0,.067.941.666.666,0,0,0,.94-.067c11.023-12.7,27.333-14.7,36.373-14.7,2.013,0,3.663.1,4.8.2.571.049,1.015.1,1.315.135s.449.059.449.059a.667.667,0,0,0,.76-.559.665.665,0,0,0-.559-.759" fill="#666a7f"/><path d="M291.135-316.463a66.165,66.165,0,0,0-18.116-2.5c-8.427,0-18.513,1.683-27.207,7.876a.666.666,0,0,0-.156.929.668.668,0,0,0,.931.156c8.377-5.973,18.176-7.629,26.432-7.628a67.867,67.867,0,0,1,12.635,1.221c1.589.305,2.864.611,3.739.839.437.113.775.208,1,.275s.337.1.337.1a.666.666,0,0,0,.837-.433.667.667,0,0,0-.433-.837" fill="#666a7f"/><path d="M325.714-307.473s.108.02.324.064a99.44,99.44,0,0,1,17.779,5.7c8.687,3.7,18.571,9.471,25.037,17.951a.664.664,0,0,0,.933.125.666.666,0,0,0,.127-.933c-7.141-9.351-18.127-15.375-27.317-19.093a97.579,97.579,0,0,0-16.635-5.12.666.666,0,0,0-.779.532.666.666,0,0,0,.531.779" fill="#666a7f"/><path d="M331.085-311s.149-.023.449-.059a52.288,52.288,0,0,1,6.12-.331c9.04,0,25.349,1.992,36.373,14.7a.666.666,0,0,0,.94.067.667.667,0,0,0,.067-.941c-11.447-13.157-28.173-15.152-37.38-15.155a49.255,49.255,0,0,0-6.771.405.664.664,0,0,0-.557.759.665.665,0,0,0,.759.559" fill="#666a7f"/><path d="M327.045-315.193s.111-.035.339-.1a65.966,65.966,0,0,1,17.375-2.335c8.256,0,18.055,1.655,26.432,7.628a.668.668,0,0,0,.931-.156.666.666,0,0,0-.156-.929c-8.695-6.193-18.781-7.876-27.207-7.876a66.153,66.153,0,0,0-18.116,2.5.668.668,0,0,0-.435.837.667.667,0,0,0,.837.433" fill="#666a7f"/><path d="M436.694-75.55c-21.52,0-41.089-1.332-55.621-3.506C415.448-82.749,438.056-89,438.056-96.1c0-1.827-1.5-3.6-4.308-5.284.976-.005,1.96-.008,2.945-.008,44.856,0,81.218,5.785,81.218,12.922s-36.363,12.92-81.219,12.92" fill="#47c0a3"/><path d="M381.072-79.056c-15.031-2.249-24.675-5.4-25.532-8.9,1.283.055,2.567.085,3.852.085a66.563,66.563,0,0,0,12.155-1.051,3.345,3.345,0,0,0,2.195-1.207c1.059-1.5.573-4.634.28-6.558.839-.161,1.7-.32,2.591-.476A122.578,122.578,0,0,0,391.538-96.1a66.616,66.616,0,0,0,12.157-1.051,3.332,3.332,0,0,0,2.2-1.207,4.241,4.241,0,0,0,.623-2.113c8.469-.54,17.637-.859,27.235-.914,2.811,1.687,4.308,3.457,4.308,5.284,0,7.1-22.608,13.352-56.984,17.045" fill="#41bb9d"/><path d="M391.538-96.1a122.578,122.578,0,0,1-14.925-1.065c2.661-.464,5.532-.9,8.591-1.3-.072.7-.14,1.416-.172,2.125q2.122.144,4.245.2a24.3,24.3,0,0,0-.039-2.82q3.75-.43,7.811-.793c-.08,1.157-.245,2.329-.267,3.469q2.114-.15,4.236-.444a16.318,16.318,0,0,0,0-3.356q2.692-.21,5.493-.389a4.241,4.241,0,0,1-.623,2.113,3.332,3.332,0,0,1-2.2,1.207A66.617,66.617,0,0,1,391.538-96.1" fill="#ebe9e8"/><path d="M396.782-96.283c.021-1.14.187-2.312.267-3.469q1.954-.174,3.972-.331a16.318,16.318,0,0,1,0,3.356q-2.124.294-4.236.444" fill="#5f6276"/><path d="M389.276-96.138q-2.124-.056-4.245-.2c.032-.709.1-1.424.172-2.125q1.966-.256,4.035-.493a24.308,24.308,0,0,1,.039,2.82" fill="#5f6276"/><path d="M359.392-87.874c-1.285,0-2.569-.031-3.852-.085,0,0,0,0,0-.007q.794.034,1.588.055a25.333,25.333,0,0,0-.06-3.116,24.546,24.546,0,0,1,7.745-3.464c.052.423.091.848.113,1.279.093,1.685-.263,3.457-.293,5.157q2.112-.15,4.235-.444a18.235,18.235,0,0,0-.511-6.3c-.055-.205-.113-.409-.177-.611q2.68-.668,5.843-1.277c.293,1.924.779,5.063-.28,6.558a3.345,3.345,0,0,1-2.195,1.207,66.563,66.563,0,0,1-12.155,1.051" fill="#ebe9e8"/><path d="M364.632-88.056c.031-1.7.387-3.472.293-5.157-.023-.431-.061-.856-.113-1.279,1.044-.315,2.169-.622,3.367-.921.064.2.123.406.177.611a18.237,18.237,0,0,1,.511,6.3q-2.122.292-4.235.444" fill="#5f6276"/><path d="M357.127-87.912q-.794-.02-1.588-.055a2.162,2.162,0,0,1-.061-.5,3.442,3.442,0,0,1,1.589-2.557,25.321,25.321,0,0,1,.06,3.116" fill="#5f6276"/><path d="M401.4-129.59c-1.191-5.315-2.715-10.541-4.321-15.731-1.065-3.436-1.841-8.112-3.983-11.013a1.573,1.573,0,0,0-1.917-.392c-7.1,3.044-8.579,14.928-8.315,21.737.441,11.425,7.068,23.984,2.905,35.011a5.73,5.73,0,0,0-3.02.967,1.111,1.111,0,0,0-.383-.308c-1.4-.69-3.9.02-5.009,1.048a6.6,6.6,0,0,0-1.791,3.988c-.171,1.163-.581,3.377.136,4.393a2.1,2.1,0,0,0,1.38.757c7.661,1.416,15.147.272,22.752-.775a3.672,3.672,0,0,0,1.457-.411c1.053-.645,1.281-2.124,1.423-3.288a138.263,138.263,0,0,0,.805-19.825,80.159,80.159,0,0,0-1.593-13.666q-.248-1.25-.527-2.492" fill="#666a7f"/><path d="M381.246-91.828a16.813,16.813,0,0,1,1.243-5.112.177.177,0,0,0-.251-.21,6.934,6.934,0,0,0-3.148,4.322,11.479,11.479,0,0,0-.323,3.964c.889.121,1.777.216,2.663.279-.019-1.069-.241-2.184-.184-3.243" fill="#33303a"/><path d="M388.608-91.024A13.846,13.846,0,0,1,389.2-97c.149-.408-.36-.6-.6-.384a7.4,7.4,0,0,0-2.189,4.855,24.607,24.607,0,0,0-.253,4.037q1.334-.036,2.668-.128c-.035-.813-.149-1.636-.209-2.4" fill="#33303a"/><path d="M397.742-136.245c.036-.4-.363-.681-.868-.813a1.368,1.368,0,0,0-.8-.077,1.713,1.713,0,0,0-.811.231c-8.857,2.723-12.5,6.665-7.839,12.78,2.349,3.084,4.821,5.787,3.747,9.383-.5,1.676-1.757,3.227-1.9,4.952a6.256,6.256,0,0,0,4.312,6.093c6.732,2.605,10.787-4.088,11.423-7.321,1.716-8.733-8.067-16.417-7.264-25.226" fill="#fff"/><path d="M471.463-127.1a80.29,80.29,0,0,0-1.595,13.666,138.459,138.459,0,0,0,.807,19.825c.14,1.164.369,2.643,1.421,3.288a3.685,3.685,0,0,0,1.459.411c7.605,1.046,15.091,2.191,22.751.775a2.1,2.1,0,0,0,1.381-.757c.717-1.016.307-3.231.136-4.393a6.6,6.6,0,0,0-1.791-3.988c-1.111-1.028-3.612-1.737-5.009-1.048a1.112,1.112,0,0,0-.383.308,5.734,5.734,0,0,0-3.02-.967c-4.164-11.026,2.463-23.585,2.905-35.011.263-6.809-1.22-18.693-8.315-21.737a1.572,1.572,0,0,0-1.917.392c-2.141,2.9-2.917,7.577-3.983,11.013-1.607,5.189-3.131,10.416-4.321,15.731q-.278,1.242-.527,2.492" fill="#666a7f"/><path d="M492.143-91.828A16.774,16.774,0,0,0,490.9-96.94a.177.177,0,0,1,.251-.21,6.934,6.934,0,0,1,3.148,4.322,11.478,11.478,0,0,1,.323,3.964c-.891.121-1.777.216-2.663.279.019-1.069.241-2.184.183-3.243" fill="#33303a"/><path d="M484.781-91.024A13.845,13.845,0,0,0,484.194-97c-.149-.408.359-.6.6-.384a7.4,7.4,0,0,1,2.189,4.855,24.6,24.6,0,0,1,.253,4.037q-1.334-.036-2.668-.128c.035-.813.149-1.636.209-2.4" fill="#33303a"/><path d="M466.783-144.728c.772.88,1.86,1.183,2.736.231a3.943,3.943,0,0,0,.824-2.739,23.691,23.691,0,0,1,11.784-14.929c4.611-2.355,9.541-2.7,14.543-3.451a85.938,85.938,0,0,0,16.116-3.736c10.436-3.7,19.425-10.557,23.575-21.089a75.78,75.78,0,0,0,4.327-18.493,80.292,80.292,0,0,0-2.4-30.947c-2.009-7.2-7.779-27.389-19.148-23.045a8.07,8.07,0,0,0-4.52,5.495,20.122,20.122,0,0,0-.02,10.34c1.387,4.793,4.317,8.933,6.775,13.216a39.1,39.1,0,0,1,5.088,16.351c1.052,12.148-2.892,24.968-12.576,32.828-9.956,8.081-23.591,6.991-34.96,11.824-7.679,3.264-12.447,9.163-13.159,17.551a.993.993,0,0,0-.268.332,9.98,9.98,0,0,0,1.283,10.263" fill="#57596d"/><path d="M538.288-239.881c-2.009-7.2-7.779-27.389-19.148-23.045a8.07,8.07,0,0,0-4.52,5.495,20.463,20.463,0,0,0-.42,8.491,10.25,10.25,0,0,0,3.208,3.761c1.523,1.092,4.969,1.917,6.308.176.836-1.087,1.931-3.389,3.665-2.175a3.2,3.2,0,0,1,.973,1.263c.895,1.86.76,3.855.751,5.856-.017,3.468,3.144,16.221,9.088,11.889,1.547-1.127,1.6-3.32,1.611-5.152-.421-2.215-.916-4.409-1.516-6.559" fill="#33303a"/><path d="M536.36-190.441a75.78,75.78,0,0,0,4.327-18.493c.2-1.679.331-3.371.423-5.064a2.809,2.809,0,0,0-1.525.457l-.268.192c-1.3,1.041-1.5,2.772-2.145,4.211a4.138,4.138,0,0,1-2.263,2.38c-2.568.856-3.041-3.769-3.159-5.324a50.239,50.239,0,0,0-1.888-11.844c-1.533-4.675-4.247-10.665-9.547-11.751q.54.9,1.06,1.8a39.1,39.1,0,0,1,5.088,16.351c1.052,12.148-2.892,24.968-12.576,32.828-4.36,3.539-9.424,5.319-14.7,6.608a1.913,1.913,0,0,0,.055,2.34c1.691,2.376,5.783.631,7.825-.233,3.081-1.3,5.928-3.085,8.979-4.435,1.88-.832,3.721-.941,5.076.828.957,1.251,1.185,3.139,2.391,4.247a2.946,2.946,0,0,0,.436.313,33.987,33.987,0,0,0,12.408-15.412" fill="#fff"/><path d="M484.891-135.986c-3.4-37.415-28.953-82.349-55.228-79.962s-43.319,51.189-39.92,88.6,25.077,39.684,51.352,37.3,47.193-8.525,43.8-45.937" fill="#666a7f"/><path d="M484.891-135.986A127.592,127.592,0,0,0,466.474-189.9c-5.416,1.175-11.743,3.049-12.224,9.32-.476,6.232,6.648,7.991,11.139,9.94a14.509,14.509,0,0,1,8.849,12.257c.332,6.5-4.48,10.655-8.9,14.669-6.675,6.061-13.355,17-5.94,25.2a15.688,15.688,0,0,0,20.067,2.548,18.037,18.037,0,0,0,5.439-5.895,71.533,71.533,0,0,0-.012-14.125" fill="#33303a"/><path d="M462.792-110.524c0-18.783-11.685-42.315-26.1-42.315s-26.1,23.532-26.1,42.315,11.684,20.895,26.1,20.895,26.1-2.111,26.1-20.895" fill="#57596d"/><path d="M424.92-124.225c.663-10.9,2.211-21.741,2.211-32.681.112-2.483,1.123-6.912-.965-8.88a4.078,4.078,0,0,0-2.595-.789c-2.969-.2-6.364-.243-8.409,1.92-1.336,1.412-1.745,3.44-2.1,5.352a338.484,338.484,0,0,0-5.375,41c-.123,2,.307,23.357-1.7,23.495a5.713,5.713,0,0,0-3.021.965,1.106,1.106,0,0,0-.381-.308c-1.4-.69-3.9.021-5.009,1.048a6.6,6.6,0,0,0-1.791,3.988c-.172,1.163-.583,3.377.135,4.393a2.1,2.1,0,0,0,1.381.759c7.661,1.415,15.145.27,22.752-.775a3.734,3.734,0,0,0,1.457-.41c1.052-.645,1.281-2.125,1.423-3.29,1.387-11.4,1.3-22.9,1.909-34.345.025-.481.053-.964.081-1.445" fill="#666a7f"/><path d="M401.46-86.656a16.792,16.792,0,0,1,1.243-5.11.178.178,0,0,0-.251-.212,6.928,6.928,0,0,0-3.148,4.324,11.4,11.4,0,0,0-.323,3.961c.889.122,1.777.217,2.663.279-.019-1.067-.241-2.183-.184-3.242" fill="#33303a"/><path d="M408.823-85.852a13.842,13.842,0,0,1,.588-5.979c.148-.408-.36-.6-.6-.384a7.405,7.405,0,0,0-2.191,4.853,24.643,24.643,0,0,0-.253,4.039q1.336-.036,2.669-.127c-.036-.813-.149-1.636-.209-2.4" fill="#33303a"/><path d="M448.551-122.78c.607,11.45.523,22.948,1.909,34.345.141,1.164.371,2.644,1.423,3.29a3.734,3.734,0,0,0,1.457.41c7.605,1.045,15.091,2.19,22.752.775a2.1,2.1,0,0,0,1.38-.759c.719-1.016.308-3.231.136-4.393a6.6,6.6,0,0,0-1.791-3.988c-1.111-1.027-3.612-1.737-5.009-1.048a1.111,1.111,0,0,0-.383.308,5.7,5.7,0,0,0-3.02-.965c-2.011-.137-1.581-21.492-1.7-23.495a338.22,338.22,0,0,0-5.376-41c-.353-1.912-.761-3.94-2.1-5.352-2.045-2.163-5.44-2.119-8.411-1.92a4.077,4.077,0,0,0-2.593.789c-2.089,1.968-1.079,6.4-.965,8.88,0,10.94,1.548,21.78,2.211,32.681.028.481.056.964.081,1.445" fill="#666a7f"/><path d="M471.93-86.656a16.794,16.794,0,0,0-1.243-5.11.178.178,0,0,1,.251-.212,6.928,6.928,0,0,1,3.148,4.324,11.465,11.465,0,0,1,.323,3.961c-.889.122-1.777.217-2.663.279.019-1.067.241-2.183.184-3.242" fill="#33303a"/><path d="M464.567-85.852a13.842,13.842,0,0,0-.588-5.979c-.149-.408.36-.6.6-.384a7.4,7.4,0,0,1,2.189,4.853,24.635,24.635,0,0,1,.255,4.039q-1.336-.036-2.669-.127c.035-.813.149-1.636.209-2.4" fill="#33303a"/><path d="M475.033-275.726c.473-12.6-8.152-37.439-19.928-37.881s-22.24,23.677-22.713,36.28,42.168,14.205,42.641,1.6" fill="#57596d"/><path d="M471.595-274.463c.4-10.6-6.857-31.492-16.763-31.864s-18.707,19.916-19.105,30.519,35.469,11.948,35.868,1.345" fill="#666a7f"/><path d="M470.4-273.875c.371-9.909-6.411-29.435-15.668-29.783s-17.484,18.615-17.857,28.523,33.152,11.168,33.525,1.26" fill="#f9b0b5"/><path d="M457.47-287.8a157.481,157.481,0,0,0-16.837-1.7,50.547,50.547,0,0,0-2.852,8.392c.565,5.157,3.331,9.341,7.064,12.768,9.836,2.756,25.3,1.172,25.556-5.541.269-7.185-3.223-19.42-8.692-25.74.823,2.077,6.021,13.433-4.239,11.819" fill="#f8a3aa"/><path d="M362.663-243.179c-7.136-10.4-13.119-36-3.4-42.668s31.451,8.127,38.588,18.525-28.048,34.543-35.185,24.143" fill="#57596d"/><path d="M366.246-243.949c-6-8.747-11.036-30.283-2.864-35.891S389.838-273,395.84-264.257s-23.592,29.056-29.595,20.308" fill="#666a7f"/><path d="M367.57-244.091c-5.611-8.176-10.316-28.305-2.676-33.547s24.727,6.389,30.337,14.564-22.052,27.159-27.661,18.983" fill="#f9b0b5"/><path d="M371.058-262.767A157.073,157.073,0,0,1,384.38-273.2a50.556,50.556,0,0,1,6.895,5.567c2.279,4.663,2.179,9.676.855,14.569-6.841,7.587-20.761,14.512-24.561,8.973-4.068-5.928-7.655-18.136-6.412-26.4.415,2.195,2.092,14.573,9.9,7.724" fill="#f8a3aa"/><path d="M487.536-254.809c-1.06-.88-2.192-1.744-3.349-2.579a2.532,2.532,0,0,0,2.3-.479c.907-.852.589-1.984-.116-2.893-1.641-2.117-4.595-3.912-6.751-5.38-.809-.553-1.645-1.128-2.491-1.7.249.007.495.029.747.024a.6.6,0,0,0,.553-.488c.632-2.736-3.215-4.46-4.955-5.58a14.778,14.778,0,0,0-1.34-.769,24.92,24.92,0,0,1-5.6-3.833c-17.739-16.3-40.327-21.531-57.919-16.433-16.349,4.735-31.809,18.487-38.705,39.931a33.65,33.65,0,0,1-3.828,7.845,18.583,18.583,0,0,0-2.868,7.5c-.075.535.437,1,.9.716.407-.249.8-.512,1.189-.78a31.586,31.586,0,0,0-3.1,10.661c-.1.991-.14,2.625,1.188,2.744a1.4,1.4,0,0,0,.951-.32c-.351,1.255-.689,2.505-1.013,3.739a17.591,17.591,0,0,0-.592,4.777,6.907,6.907,0,0,0,.712,3.449,1.157,1.157,0,0,0,1.219.631c.476-.084,1.455-1.256,1.345-1.841.271,1.465.6,2.888,1,4.256C371.842-194.944,402.906-189.3,436.4-199s56.732-31.073,51.905-47.736c-.184-.635-.391-1.272-.609-1.909.707.623,1.476,1.209,2.308.759.912-.492.785-1.728.54-2.635a8.959,8.959,0,0,0-3.005-4.287" fill="#57596d"/><path d="M479.438-255.431c-.959-.853-1.979-1.695-3.021-2.507a2.083,2.083,0,0,0,2.029-.411c.789-.789.484-1.868-.157-2.743-1.5-2.037-4.152-3.793-6.093-5.225-.728-.539-1.48-1.1-2.241-1.653.22.011.439.037.663.036a.513.513,0,0,0,.481-.451c.509-2.581-2.937-4.287-4.5-5.381a13.868,13.868,0,0,0-1.205-.755,23.331,23.331,0,0,1-5.037-3.736c-16.052-15.777-36.195-21.161-51.709-16.668-14.419,4.176-27.876,16.911-33.589,37.095a31.247,31.247,0,0,1-3.248,7.359,17.7,17.7,0,0,0-2.4,7.053c-.055.5.407.953.812.695.356-.228.7-.469,1.041-.717A30.566,30.566,0,0,0,368.71-233.4c-.067.936-.075,2.483,1.107,2.623a1.153,1.153,0,0,0,.836-.287c-.287,1.183-.563,2.361-.828,3.524a17.572,17.572,0,0,0-.433,4.513,7.066,7.066,0,0,0,.7,3.281,1.06,1.06,0,0,0,1.095.621,2.152,2.152,0,0,0,1.159-1.72q.4,2.092.967,4.052c4.6,15.877,32.273,21.815,61.809,13.26s49.752-28.363,45.153-44.24c-.175-.6-.371-1.212-.576-1.821.639.605,1.333,1.175,2.061.764.8-.451.664-1.623.431-2.485a9,9,0,0,0-2.748-4.119" fill="#666a7f"/><path d="M406.347-275.549c2.373-1.441,4.489-1.4,7.108-2.047,4.891-1.215,8.737-4.236,7.508-9.711-.807-3.589-2.351-5.623-.443-9.427a48.536,48.536,0,0,0-11.9,1.817,55.434,55.434,0,0,0-28.043,19.531,11.271,11.271,0,0,0,.556,2.4,11.592,11.592,0,0,0,12.54,7.583,12.294,12.294,0,0,0,7.891-4.867c1.661-2.035,2.465-3.867,4.787-5.276" fill="#33303a"/><path d="M488.3-246.737c-.184-.635-.391-1.272-.609-1.909.707.623,1.476,1.209,2.308.759.912-.492.785-1.728.54-2.635a8.959,8.959,0,0,0-3.005-4.287c-1.06-.88-2.192-1.744-3.349-2.579a2.532,2.532,0,0,0,2.3-.479c.907-.852.589-1.984-.116-2.893-.119-.155-.259-.3-.391-.451-4.572,7.755-10.945,12.9-18.605,18.616-1.411,1.052-3.373,2.844-3.292,4.791.108,2.583,3.149,2.811,5.121,2.744,1.168-.039,2.231-.373,3.063.7a2.625,2.625,0,0,1-.293,3.333,15.385,15.385,0,0,1-4.071,2.46c-3.916,2.1-7.873,4.3-10.685,7.849-3.059,3.856-5.164,10.24-1.647,14.4,22.673-10.969,36.569-27.179,32.735-40.42" fill="#fff"/><path d="M407.112-237.1a11.077,11.077,0,0,0-13.721-7.559,11.078,11.078,0,0,0-7.559,13.721,11.08,11.08,0,0,0,13.723,7.559,11.078,11.078,0,0,0,7.557-13.721" fill="#fcd7ac"/><path d="M406.126-236.814a10.05,10.05,0,0,0-12.448-6.857,10.05,10.05,0,0,0-6.857,12.448,10.049,10.049,0,0,0,12.448,6.857,10.05,10.05,0,0,0,6.857-12.448" fill="#33303a"/><path d="M396.3-237.655a3.542,3.542,0,0,0-4.387-2.417,3.541,3.541,0,0,0-2.417,4.387,3.541,3.541,0,0,0,4.387,2.417,3.542,3.542,0,0,0,2.417-4.387" fill="#fff"/><path d="M401.238-233.339a1.771,1.771,0,0,0-2.193-1.208,1.77,1.77,0,0,0-1.208,2.193,1.771,1.771,0,0,0,2.192,1.209,1.771,1.771,0,0,0,1.209-2.195" fill="#fff"/><path d="M461.827-252.947a10.905,10.905,0,0,0-13.508-7.441,10.905,10.905,0,0,0-7.44,13.508,10.9,10.9,0,0,0,13.508,7.44,10.9,10.9,0,0,0,7.44-13.507" fill="#fcd7ac"/><path d="M461.006-252.71a10.049,10.049,0,0,0-12.448-6.857,10.05,10.05,0,0,0-6.857,12.449,10.051,10.051,0,0,0,12.448,6.857,10.05,10.05,0,0,0,6.857-12.449" fill="#33303a"/><path d="M451.182-253.551a3.543,3.543,0,0,0-4.388-2.417,3.543,3.543,0,0,0-2.417,4.387,3.542,3.542,0,0,0,4.388,2.417,3.542,3.542,0,0,0,2.417-4.387" fill="#fff"/><path d="M456.119-249.235a1.772,1.772,0,0,0-2.195-1.208,1.772,1.772,0,0,0-1.208,2.195,1.772,1.772,0,0,0,2.195,1.208,1.772,1.772,0,0,0,1.208-2.195" fill="#fff"/><path d="M423.314-208.6c-5.964,1.728-12.111-1.327-13.7-6.811a1.406,1.406,0,0,1,.96-1.741,1.405,1.405,0,0,1,1.741.959c1.157,3.995,5.74,6.187,10.215,4.891s7.177-5.6,6.021-9.592a1.407,1.407,0,0,1,.96-1.743,1.407,1.407,0,0,1,1.741.96c1.589,5.481-1.973,11.349-7.94,13.077" fill="#3b3843"/><path d="M442.252-214.082c-5.965,1.727-12.112-1.328-13.7-6.809a1.407,1.407,0,0,1,.96-1.743,1.407,1.407,0,0,1,1.741.96c1.157,3.992,5.74,6.187,10.217,4.889s7.176-5.6,6.019-9.592a1.408,1.408,0,0,1,.96-1.743,1.409,1.409,0,0,1,1.744.96c1.587,5.483-1.976,11.349-7.941,13.077" fill="#3b3843"/><path d="M436.507-233.291c-1.488-5.136-5.672-4-10.809-2.512s-9.281,2.764-7.792,7.9S429.9-221.3,429.9-221.3s8.095-6.857,6.607-11.995" fill="#f9b0b5"/><path d="M432.751-236.987a4.245,4.245,0,0,1,1.675,2.547c1.229,4.247-5.46,9.915-5.46,9.915s-8.687-1.216-9.916-5.461a4.256,4.256,0,0,1,.053-3.048c-1.332,1.133-1.9,2.695-1.2,5.131,1.488,5.139,11.995,6.608,11.995,6.608s8.095-6.857,6.607-11.995c-.705-2.436-2.024-3.452-3.756-3.7" fill="#f8a3aa"/><path d="M398.515-192.313l-.223-.043a.613.613,0,0,1-.352-.8c5.285-13.631,21.708-22.065,22.405-22.417a.621.621,0,0,1,.828.272.618.618,0,0,1-.272.829c-.167.085-16.7,8.579-21.812,21.763a.617.617,0,0,1-.575.393" fill="#e8e5e4"/><path d="M393.139-199.241l-.259-.056a.619.619,0,0,1-.3-.82c6.607-14.28,24.061-16.721,24.237-16.744a.629.629,0,0,1,.692.532.617.617,0,0,1-.532.692c-.169.023-16.959,2.385-23.277,16.039a.619.619,0,0,1-.561.357" fill="#e8e5e4"/><path d="M392.576-207.859a.613.613,0,0,1-.383-.133.616.616,0,0,1-.1-.868c9.152-11.555,25.881-11.273,26.593-11.249a.617.617,0,0,1,.6.633.619.619,0,0,1-.617.6c-.011,0-.011,0-.184,0-1.775,0-17.135.313-25.427,10.784a.614.614,0,0,1-.483.233" fill="#e8e5e4"/><path d="M471.586-213.477a.629.629,0,0,1-.367-.121c-11.367-8.411-29.879-6.757-30.064-6.736a.627.627,0,0,1-.675-.556.62.62,0,0,1,.556-.675c.78-.072,19.165-1.721,30.917,6.975a.616.616,0,0,1,.129.863.623.623,0,0,1-.5.251" fill="#e8e5e4"/><path d="M472.427-222.2l-.335-.1c-12.649-8.172-28.092-1.187-28.245-1.113a.619.619,0,0,1-.82-.3.617.617,0,0,1,.3-.819c.16-.076,16.219-7.339,29.435,1.2a.616.616,0,0,1,.183.853.614.614,0,0,1-.519.283" fill="#e8e5e4"/><path d="M440.356-225.157a.615.615,0,0,1-.513-.273.619.619,0,0,1,.169-.859c.589-.392,14.577-9.577,28.488-4.7a.617.617,0,0,1,.379.787.616.616,0,0,1-.787.379c-13.332-4.675-27.256,4.469-27.393,4.564l-.343.1" fill="#e8e5e4"/><path d="M465.815-325.826l-22.388-8.124a11.9,11.9,0,0,1-7.8-12.093,12.826,12.826,0,0,0,7.705,15.435,12.834,12.834,0,0,1-7.427-16.344,12.839,12.839,0,0,1,12.064-8.459,12.792,12.792,0,0,1,4.377.773,12.837,12.837,0,0,1,12.065-8.46,12.826,12.826,0,0,1,4.377.773A12.835,12.835,0,0,1,476.71-346.6a12.829,12.829,0,0,0-7.045-15.357,11.9,11.9,0,0,1,4.275,13.743l-8.124,22.387m-22.263-4.7-.031-.012.031.012m-.037-.013-.032-.012.032.012m-.037-.015-.032-.012.032.012m-.037-.013-.033-.013.033.013m-.036-.015-.035-.012.035.012m-.037-.013-.036-.015.036.015m33.12-15.327a.031.031,0,0,0,0-.011s0,.007,0,.011m.013-.039,0-.012,0,.012m.013-.039,0-.012,0,.012m.013-.039a.056.056,0,0,0,.005-.013.04.04,0,0,1-.005.013m.013-.039a.041.041,0,0,0,.005-.013.041.041,0,0,1-.005.013m.013-.037c0-.005,0-.009.005-.015s0,.009-.005.015m.013-.039c0-.005,0-.009.005-.015a.065.065,0,0,0-.005.015m.013-.039a.064.064,0,0,1,.005-.015.064.064,0,0,0-.005.015m.012-.039a.047.047,0,0,0,.005-.015.047.047,0,0,1-.005.015m.013-.037a.057.057,0,0,1,.005-.016.075.075,0,0,0-.005.016m.012-.039c0-.005,0-.011.005-.016a.071.071,0,0,1-.005.016m.012-.039a.074.074,0,0,0,.005-.016.074.074,0,0,1-.005.016m.013-.039a.075.075,0,0,1,.005-.016.075.075,0,0,0-.005.016m.012-.037a.083.083,0,0,1,.005-.017.083.083,0,0,0-.005.017m.012-.039a.084.084,0,0,1,.005-.017.086.086,0,0,0-.005.017m.011-.036c0-.007,0-.013.007-.021s0,.015-.007.021m.011-.036.008-.024-.008.024m.011-.036c0-.008.007-.017.009-.027,0,.009-.007.019-.009.027" fill="#67cbae"/><path d="M467.717-321.755l-24.128-8.756-.037-.013-.031-.012h-.007l-.032-.012-.005,0-.032-.012h-.005l-.033-.013h0l-.035-.012h0l-.036-.015h0a12.826,12.826,0,0,1-7.705-15.435,11.9,11.9,0,0,0,7.8,12.093l22.388,8.124,8.124-22.387a11.9,11.9,0,0,0-4.275-13.743,12.829,12.829,0,0,1,7.045,15.357.01.01,0,0,0,0,.005c0,.009-.007.019-.009.027a.038.038,0,0,1,0,.012l-.008.024,0,.015c0,.008,0,.015-.007.021s0,.012-.005.019a.083.083,0,0,0-.005.017.127.127,0,0,0-.007.021.087.087,0,0,0-.005.017.1.1,0,0,0-.007.021.076.076,0,0,0-.005.016l-.008.023a.072.072,0,0,1-.005.016.111.111,0,0,1-.007.023c0,.005,0,.011-.005.016s0,.015-.007.023a.057.057,0,0,0-.005.016l-.008.023a.049.049,0,0,1-.005.015.16.16,0,0,0-.007.024.063.063,0,0,0-.005.015l-.008.024c0,.005,0,.009-.005.015l-.008.024c0,.005,0,.009-.005.015l-.008.024a.04.04,0,0,1-.005.013l-.008.025a.057.057,0,0,1-.005.013.217.217,0,0,1-.009.027l0,.012a.212.212,0,0,1-.009.027l0,.012a.241.241,0,0,1-.011.028.032.032,0,0,1,0,.011c-.005.012-.009.025-.015.037l-8.755,24.128" fill="#67cbae"/><path d="M487.208-377.5l-9.429-14.884a8.8,8.8,0,0,1,.9-10.609,9.5,9.5,0,0,0-3.265,10.871,9.5,9.5,0,0,1,3.839-11.276,9.443,9.443,0,0,1,5.073-1.476,9.485,9.485,0,0,1,8.028,4.415,9.458,9.458,0,0,1,5.073-1.476,9.489,9.489,0,0,1,8.029,4.415,9.494,9.494,0,0,1-2.548,12.84,9.488,9.488,0,0,0,2.893-12.228,8.805,8.805,0,0,1-3.715,9.98L487.208-377.5m15.339-6.936.007-.005-.007.005m.025-.016.009-.007-.009.007m.024-.016a.047.047,0,0,1,.011-.007l-.011.007m.025-.017a.028.028,0,0,0,.011-.007.07.07,0,0,1-.011.007m.025-.016.011-.007-.011.007m.025-.016.012-.008-.012.008m.025-.017.011-.008-.011.008m.024-.016.013-.008-.013.008m.024-.016.013-.009-.013.009m.025-.017a.082.082,0,0,0,.013-.009.082.082,0,0,1-.013.009m.024-.016.015-.009-.015.009m.024-.016.016-.011-.016.011m.024-.017.016-.011-.016.011m.023-.016.017-.012-.017.012m.024-.016.019-.013-.019.013m-27.453-7.407h0m-.009-.025a.177.177,0,0,1-.007-.019.17.17,0,0,0,.007.019" fill="#67cbae"/><path d="M486.48-374.255,476.318-390.3a9.564,9.564,0,0,1-.881-1.775h0a.174.174,0,0,1-.009-.024.154.154,0,0,1-.007-.019l0-.007a9.5,9.5,0,0,1,3.265-10.871,8.8,8.8,0,0,0-.9,10.609l9.429,14.884,14.883-9.429a8.805,8.805,0,0,0,3.715-9.98,9.488,9.488,0,0,1-2.893,12.228l0,0-.019.013-.007,0-.017.012-.007.005-.016.011s-.007,0-.008.007l-.016.011a.024.024,0,0,0-.009.007l-.015.009-.011.007a.078.078,0,0,1-.013.009l-.012.008-.013.009-.011.008-.013.008-.013.008-.011.008a.118.118,0,0,0-.013.009l-.012.008-.015.009-.011.007-.015.009a.028.028,0,0,1-.011.007.143.143,0,0,1-.015.011.047.047,0,0,0-.011.007l-.015.009-.009.007-.019.011-.007.005-.025.016L486.48-374.255" fill="#67cbae"/><path d="M180.8-379.518,171.376-394.4a8.807,8.807,0,0,1,.9-10.609,9.492,9.492,0,0,0-2.591,12.319,9.494,9.494,0,0,1,3.167-12.724,9.438,9.438,0,0,1,5.072-1.476,9.489,9.489,0,0,1,8.029,4.415,9.438,9.438,0,0,1,5.072-1.476,9.485,9.485,0,0,1,8.029,4.415,9.493,9.493,0,0,1-2.719,12.957,9.49,9.49,0,0,0,3.065-12.345,8.807,8.807,0,0,1-3.715,9.979L180.8-379.518m15.339-6.935.015-.009-.015.009m.024-.016.017-.011-.017.011m.025-.016.017-.011-.017.011m.025-.016.019-.012-.019.012m.024-.016.019-.012-.019.012m.025-.016.019-.013-.019.013m.024-.016.02-.013-.02.013m.024-.016.023-.016-.023.016M169.9-392.339l-.008-.013a.045.045,0,0,0,.008.013m-.016-.025-.008-.013.008.013m-.016-.025-.008-.013.008.013m-.016-.025-.008-.013.008.013m-.016-.025-.008-.015.008.015m-.015-.025-.009-.015.009.015m-.016-.025a.1.1,0,0,0-.009-.016.1.1,0,0,1,.009.016m-.015-.025a.1.1,0,0,1-.009-.016.1.1,0,0,0,.009.016m-.016-.025-.009-.017.009.017m-.015-.025c0-.007-.007-.012-.009-.017s.007.011.009.017m-.015-.025c0-.005-.007-.012-.011-.017a.188.188,0,0,1,.011.017m-.015-.025-.011-.019.011.019m-.015-.024a.107.107,0,0,1-.011-.021.108.108,0,0,0,.011.021m-.013-.024c0-.008-.009-.016-.013-.023a.207.207,0,0,1,.013.023" fill="#67cbae"/><path d="M180.078-376.274l-10.164-16.04c0-.008-.011-.017-.015-.025a.044.044,0,0,1-.008-.013l-.008-.012-.008-.013-.008-.012-.008-.013-.008-.012-.008-.013-.008-.012-.008-.015-.007-.011-.009-.015a.075.075,0,0,0-.007-.011.1.1,0,0,0-.009-.016l-.005-.009a.1.1,0,0,1-.009-.016s0-.007-.007-.009l-.009-.017-.005-.008c0-.007-.007-.012-.009-.017l-.005-.008a.194.194,0,0,0-.011-.017l0-.008-.011-.019,0-.005a.106.106,0,0,1-.011-.021s0,0,0,0a.2.2,0,0,0-.013-.023s0,0,0,0a9.491,9.491,0,0,1,2.591-12.319,8.807,8.807,0,0,0-.9,10.609l9.429,14.883,14.884-9.429a8.807,8.807,0,0,0,3.715-9.979,9.49,9.49,0,0,1-3.065,12.345h0l-.023.016,0,0-.02.013-.005,0-.019.013-.007,0-.019.012-.005,0-.019.012-.008.005-.017.011-.008.005-.017.011-.009.007-.015.009-.025.016-16.04,10.163" fill="#67cbae"/><path d="M452.812-403.239,442.1-410.626a6.5,6.5,0,0,1-2.452-7.468,7.005,7.005,0,0,0,1.835,9.144,7.011,7.011,0,0,1-1.563-9.587,7,7,0,0,1,5.776-3.031,6.974,6.974,0,0,1,3.975,1.241,7,7,0,0,1,5.777-3.031,6.981,6.981,0,0,1,3.973,1.24,7.009,7.009,0,0,1,1.789,9.751,7.005,7.005,0,0,0-1.377-9.435,6.5,6.5,0,0,1,.36,7.853l-7.385,10.708M441.7-408.8l-.008-.007.008.007m-.017-.013a.049.049,0,0,1-.011-.007.049.049,0,0,0,.011.007m-.017-.012-.012-.008.012.008m-.019-.013-.011-.007a.044.044,0,0,0,.011.007m-.017-.012-.012-.008.012.008m-.019-.013-.012-.008.012.008m-.017-.012-.012-.009.012.009m-.017-.013a.079.079,0,0,1-.013-.009l.013.009m-.017-.012-.013-.011.013.011m-.017-.013a.1.1,0,0,1-.015-.011.1.1,0,0,0,.015.011m-.017-.012a.1.1,0,0,0-.015-.011.1.1,0,0,1,.015.011m-.016-.013-.016-.011.016.011" fill="#67cbae"/><path d="M453.255-400.826l-11.54-7.96-.019-.012-.008-.007-.009-.007a.048.048,0,0,1-.011-.007l-.007-.005-.012-.008-.007-.005a.049.049,0,0,1-.011-.007l-.007-.005-.012-.008-.007-.005-.012-.008-.005,0-.012-.009-.005,0-.013-.009,0,0-.013-.011,0,0a.1.1,0,0,1-.015-.011h0a.1.1,0,0,0-.015-.011s0,0,0,0l-.016-.011h0a7.005,7.005,0,0,1-1.835-9.144,6.5,6.5,0,0,0,2.452,7.468l10.708,7.387,7.385-10.708a6.5,6.5,0,0,0-.36-7.853,7.005,7.005,0,0,1,1.377,9.435h0l-7.96,11.54" fill="#67cbae"/><path d="M145.21-405.995,134.5-413.382a6.5,6.5,0,0,1-2.452-7.468,7.007,7.007,0,0,0,1.852,9.157,7.01,7.01,0,0,1-1.578-9.6,7,7,0,0,1,5.776-3.029,6.978,6.978,0,0,1,3.975,1.24,7,7,0,0,1,5.776-3.031,6.986,6.986,0,0,1,3.975,1.24,7.01,7.01,0,0,1,1.813,9.715,7,7,0,0,0-1.4-9.4,6.5,6.5,0,0,1,.36,7.852l-7.385,10.708m-11.116-5.559-.009-.007.009.007m-.019-.013a.081.081,0,0,0-.011-.007.081.081,0,0,1,.011.007m-.017-.012-.012-.008.012.008m-.019-.012a.032.032,0,0,0-.011-.008.032.032,0,0,1,.011.008m-.017-.013-.012-.008.012.008m-.017-.012a.048.048,0,0,0-.013-.009.08.08,0,0,1,.013.009m-.017-.013a.116.116,0,0,1-.013-.009.116.116,0,0,0,.013.009m-.017-.012-.015-.011.015.011m-.019-.013-.013-.011.013.011m-.016-.012-.016-.012.016.012m-.017-.013-.016-.012.016.012m19.695-3.441.024-.035-.024.035" fill="#67cbae"/><path d="M145.653-403.582l-11.541-7.96-.017-.012-.009-.007-.009-.007a.075.075,0,0,0-.011-.007l-.007-.005-.012-.008-.007,0a.031.031,0,0,0-.011-.008l-.007-.005-.012-.008-.005,0a.082.082,0,0,0-.013-.009l0,0a.118.118,0,0,1-.013-.009l0,0-.015-.011,0,0-.013-.011h0l-.016-.012a0,0,0,0,1,0,0l-.016-.012h0a7.007,7.007,0,0,1-1.852-9.157,6.5,6.5,0,0,0,2.452,7.468L145.21-406,152.6-416.7a6.5,6.5,0,0,0-.36-7.852,7,7,0,0,1,1.4,9.4h0l-.024.035h0l-7.96,11.54" fill="#67cbae"/><path d="M452.346-362.638a12.833,12.833,0,0,0-16.441,7.685,12.833,12.833,0,0,0,7.685,16.441l24.128,8.756,8.755-24.128a12.832,12.832,0,0,0-7.684-16.441,12.834,12.834,0,0,0-16.443,7.687" fill="#f8a5c6"/><path d="M469.664-369.955a11.9,11.9,0,0,1,4.275,13.743l-8.124,22.387-22.388-8.124a11.9,11.9,0,0,1-7.8-12.093,12.825,12.825,0,0,0,7.964,15.532l24.128,8.756,8.755-24.128a12.823,12.823,0,0,0-6.808-16.072" fill="#f686b2"/><path d="M492.359-408.458a9.494,9.494,0,0,0-13.1-2.939,9.5,9.5,0,0,0-2.939,13.1l10.163,16.04,16.041-10.163a9.494,9.494,0,0,0,2.939-13.1,9.494,9.494,0,0,0-13.1-2.939" fill="#f8a5c6"/><path d="M505.805-404.907a8.805,8.805,0,0,1-3.715,9.98L487.208-385.5l-9.429-14.884a8.8,8.8,0,0,1,.9-10.609,9.488,9.488,0,0,0-2.365,12.7l10.163,16.04,16.041-10.163a9.488,9.488,0,0,0,3.284-12.489" fill="#f686b2"/><path d="M185.956-410.476a9.493,9.493,0,0,0-13.1-2.939,9.492,9.492,0,0,0-2.939,13.1l10.163,16.04,16.04-10.163a9.494,9.494,0,0,0,2.939-13.1,9.493,9.493,0,0,0-13.1-2.939" fill="#f8a5c6"/><path d="M199.4-406.926a8.807,8.807,0,0,1-3.715,9.979L180.8-387.518,171.376-402.4a8.807,8.807,0,0,1,.9-10.609,9.489,9.489,0,0,0-2.363,12.7l10.163,16.04,16.04-10.163a9.49,9.49,0,0,0,3.285-12.489" fill="#f686b2"/><path d="M449.675-428.326a7.01,7.01,0,0,0-9.751,1.789,7.01,7.01,0,0,0,1.791,9.751l11.54,7.96,7.96-11.54a7.009,7.009,0,0,0-1.789-9.751,7.011,7.011,0,0,0-9.751,1.791" fill="#f8a5c6"/><path d="M459.838-429.8a6.5,6.5,0,0,1,.36,7.853l-7.385,10.708L442.1-418.626a6.5,6.5,0,0,1-2.452-7.468,7,7,0,0,0,2.063,9.308l11.54,7.96,7.96-11.54a7.005,7.005,0,0,0-1.377-9.435" fill="#f686b2"/><path d="M142.073-431.082a7.009,7.009,0,0,0-9.75,1.789,7.01,7.01,0,0,0,1.789,9.751l11.541,7.96,7.96-11.54a7.01,7.01,0,0,0-1.789-9.751,7.011,7.011,0,0,0-9.751,1.791" fill="#f8a5c6"/><path d="M152.236-432.555a6.5,6.5,0,0,1,.36,7.852l-7.385,10.708L134.5-421.382a6.5,6.5,0,0,1-2.452-7.468,7.006,7.006,0,0,0,2.063,9.308l11.541,7.96,7.96-11.54a7,7,0,0,0-1.377-9.433" fill="#f686b2"/></g></svg>