<svg xmlns="http://www.w3.org/2000/svg" width="199.164" height="230.832" viewBox="0 0 199.164 230.832"><g transform="translate(-117.02 585.423)"><path d="M275.146-375.924c0,11.783-34.027,21.333-76,21.333s-76-9.551-76-21.333,34.026-21.333,76-21.333,76,9.552,76,21.333" fill="#73bd7a"/><path d="M144.058-432.592s-19.333-6-22-27.333c-8-8.667-6,16.667,2.667,24a93.334,93.334,0,0,1,14.667,16s6-6.667,4.667-12.667" fill="#685757"/><path d="M182.948-397.7s-2.667,8.445-2.223,13.779c.889,4,1.333,6.667-1.333,6.667s-4.888.444-5.333-2.667-3.111-12.445-1.333-20,9.779-3.112,10.223,2.221" fill="#faead8"/><path d="M178.725-469.259s-2.667,7.333-16,12.667-30.666,11.333-34,30,4,27.333,4,27.333,2,17.333,6,20.667,8,2.667,10,0-3.333-4.667-3.333-4.667-5.333-9.333-.667-16c7.333,3.333,39.333,8,67.333-2.667s39.333-18.667,42-32.667-56.667-44-75.333-34.667" fill="#faead8"/><path d="M184.821-479.74c0,1.839-24.749,23.905,7.356,99.605,0,0,2.759,4.6,10.727,4.291,4.291-.613-1.227-7.969-1.227-7.969s-.612-16.549,3.679-25.437c0,0,6.283-6.283,15.477-5.823h.535c9.193-.46,15.476,5.823,15.476,5.823,4.291,8.888,3.677,25.437,3.677,25.437s-5.516,7.356-1.225,7.969c7.968.307,10.727-4.291,10.727-4.291,32.027-78.152,7.356-97.766,7.356-99.605H184.821" fill="#faead8"/><path d="M245.137-422.56a69.841,69.841,0,0,1-48.147-1.416c2.36,7.552,35.875,16.049,48.147,1.416" fill="#e6dabe"/><path d="M255.285-452.535s.236,5.9-1.652,9.677c-1.416,2.124-4.012-3.54-4.012-3.54s-.236,5.428-4.248,8.26c-1.652,1.416-3.776-4.248-3.776-4.248s2.6,2.832,3.54,2.6,3.776-8.969,3.776-10.857c2.6,2.832,2.6,4.484,3.776,4.72,1.18,0,2.6-6.609,2.6-6.609" fill="#e6dabe"/><path d="M186.968-442.651s-.192,4.781,1.339,7.841c1.148,1.721,3.252-2.868,3.252-2.868s.192,4.4,3.443,6.695c1.34,1.147,3.061-3.443,3.061-3.443s-2.105,2.295-2.869,2.1-3.061-7.269-3.061-8.8c-2.1,2.3-2.1,3.635-3.06,3.825-.956,0-2.1-5.355-2.1-5.355" fill="#e6dabe"/><path d="M269.17-469.259s-5.333,10.667-27.556,10.667-58.667-3.556-64.889-19.556c-.888-13.333,90.666-4.444,92.445,8.889" fill="#685757"/><path d="M282.927-560.592s37.333,38.223,32.889,87.11c-8,33.777-33.779-1.777-34.667-26.667s-8-45.332-10.667-56,4.444-13.333,12.444-4.444" fill="#685757"/><path d="M148.4-518.292c-3.411,40.529,33.812,46.067,76.772,49.683s75.389,3.94,78.8-36.588-28.649-76.314-71.609-79.929-80.55,26.307-83.962,66.835" fill="#faead8"/><path d="M168.281-561.259s-37.334,38.223-32.889,87.11c8,33.777,33.779-1.777,34.667-26.667s8-45.333,10.667-56-4.444-13.333-12.444-4.444" fill="#685757"/><path d="M225.174-468.61c-16.22-1.365-31.617-3.008-44.323-6.7,8.86-21.121,40.823-70.181,83.873-60.615,35.763,7.947,32.544,41.055,28.579,57.421-13.469,13.316-38.245,12.409-68.129,9.895" fill="#e3c4a8"/><path d="M258.947-523.036A53.523,53.523,0,0,1,258.5-505.7" fill="none" stroke="#be9f8b" stroke-miterlimit="10" stroke-width="1.333"/><path d="M270.947-534.147s-12.889-8.445-24.444-1.779c-10.667,6.667,8.888,14.223,16,12.889s16.444-7.556,8.444-11.111" fill="#685757"/><path d="M264.7-507.151c-2.681.812-11.328,2.44-27.007-3.435a3.861,3.861,0,0,0-5.217,2.921c-.692,5.215,7.757,12.281,21.585,12.627,15.063.377,17.683-8.5,14.076-11.489a3.716,3.716,0,0,0-3.437-.624" fill="#685757"/><path d="M238.5-499.925s13.777-4,21.333.444,7.111,12-.445,15.111-16.444-12.888-20.888-15.555" fill="#ed2a51"/><path d="M222.725-553.259a4,4,0,0,0,4,4,4,4,0,0,0,4-4,4,4,0,0,0-4-4,4,4,0,0,0-4,4" fill="#685757"/><path d="M270.058-549.925a4,4,0,0,0,4,4,4,4,0,0,0,4-4,4,4,0,0,0-4-4,4,4,0,0,0-4,4" fill="#685757"/></g></svg>