<svg xmlns="http://www.w3.org/2000/svg" width="195.83" height="256.557" viewBox="0 0 195.83 256.557"><g transform="translate(-104.649 296.482)"><path d="M287.146-61.259c0,11.783-34.027,21.333-76,21.333s-76-9.551-76-21.333,34.027-21.333,76-21.333,76,9.552,76,21.333" fill="#73bd7a"/><path d="M280.959-119.9s11.96,1.5,17.193-9.717c7.475.748-4.485,20.93-15.7,20.182s-1.495-10.465-1.495-10.465" fill="#3b2b26"/><path d="M224.646-79.284s2.989,9.469,2.492,15.448c-1,4.487-1.5,7.476,1.495,7.476s5.481.5,5.98-2.99S238.1-73.3,236.107-81.776s-10.963-3.488-11.461,2.492" fill="#e1bb7d"/><path d="M229.379-159.517s2.991,8.223,17.941,14.2,34.385,12.707,38.124,33.637-4.485,30.649-4.485,30.649-2.243,19.436-6.728,23.173-8.971,2.991-11.213,0,3.739-5.232,3.739-5.232,5.98-10.467.747-17.942c-8.223,3.739-44.1,8.969-75.5-2.989s-44.1-20.932-47.093-36.63,63.54-49.337,84.469-38.87" fill="#e1bb7d"/><path d="M222.543-171.27c0,2.061,27.753,26.805-8.247,111.687,0,0-3.093,5.153-12.028,4.81-4.811-.686,1.375-8.934,1.375-8.934s.687-18.558-4.124-28.524c0,0-7.044-7.044-17.355-6.529h-.6c-10.309-.515-17.353,6.529-17.353,6.529-4.812,9.967-4.124,28.524-4.124,28.524s6.185,8.248,1.375,8.934c-8.935.343-12.028-4.81-12.028-4.81-35.911-87.632-8.248-109.625-8.248-111.687" fill="#f1de9c"/><path d="M140.425-176.96c18.051,10.888,48.445,33.5,83.524,13.833-.649-8.085-1.405-13.043-1.405-13.643H141.188c0,.541-.165-6.936-.763-.191" fill="#e1bb7d"/><path d="M154.913-107.156S180.318-97.1,208.9-108.742c-2.647,8.467-40.225,17.995-53.987,1.586" fill="#e1bb7d"/><path d="M143.534-140.765s-.265,6.616,1.852,10.851c1.588,2.381,4.5-3.969,4.5-3.969s.265,6.087,4.764,9.261c1.852,1.59,4.235-4.763,4.235-4.763s-2.912,3.176-3.971,2.911-4.235-10.056-4.235-12.173c-2.911,3.176-2.911,5.028-4.233,5.293-1.324,0-2.911-7.411-2.911-7.411" fill="#e1bb7d"/><path d="M220.138-129.684s.215,5.361-1.5,8.793c-1.287,1.932-3.647-3.217-3.647-3.217s-.215,4.933-3.86,7.508c-1.5,1.286-3.432-3.86-3.432-3.86s2.36,2.572,3.217,2.358,3.432-8.151,3.432-9.867c2.359,2.573,2.359,4.075,3.432,4.29,1.072,0,2.359-6.005,2.359-6.005" fill="#e1bb7d"/><path d="M141.92-181.944s-10.465,6.728-2.991,13.455,49.337,28.407,90.45,8.972c8.971-4.487-.747-14.951-6.727-14.951s-80.733-7.476-80.733-7.476" fill="#929887"/><path d="M251.806-264.918s14.951-14.2,26.163-12.708c11.213,2.241,11.213,27.659,8.971,29.153s-11.212-5.981-11.212-5.981l-8.971,17.193-14.951-27.657" fill="#3b2b26"/><path d="M273.985-206.322c-5.16,43.981-46.076,41.809-92.7,36.339s-81.29-12.164-76.13-56.145,47.136-75.2,93.757-69.732,80.23,45.559,75.069,89.538" fill="#eedda4"/><path d="M138.929-282.113s-13.454-5.979-20.93-3.736-6.728,29.153-1.5,34.385c5.233,2.991,15.7-23.173,15.7-23.173l6.727-7.476" fill="#3b2b26"/><path d="M188.442-225.526c-11.389-2.764-52.908,23.143-43.016,45.177,5.213,11.613,53.335,23.227,72.444,14.951,19.048-9.768-4.6-54.1-29.428-60.128" fill="#3b2b26"/><path d="M219.662-248.473s11.96-6.728,23.173,5.98,1.495,39.619-13.456,35.133-28.405-39.619-9.717-41.113" fill="#3b2b26"/><path d="M225.146-236.922s5.025-2.827,9.735,2.512.628,16.641-5.652,14.757-11.932-16.641-4.083-17.269" fill="#929887"/><path d="M173.9-253.194s-7.1-11.745-23.115-6.207-20.811,33.744-5.591,37.2,44.233-20.492,28.705-31" fill="#3b2b26"/><path d="M164.924-246.886s-3.565-5.9-11.611-3.117-10.455,16.951-2.809,18.689,22.221-10.295,14.42-15.572" fill="#929887"/><path d="M195.244-190.914s2.989,16.447,11.96,10.465c7.973-6.976-4.984-15.948-4.984-15.948l-6.976,5.483" fill="#ed2a51"/><path d="M179.794-218.323s9.967-4.484,15.947,2.989c2.991,6.48-6.479,6.48-10.464,5.484s-10.465-6.48-5.483-8.473" fill="#73516a"/><path d="M185.277-209.85a61.167,61.167,0,0,0-.5,19.933" fill="none" stroke="#73516a" stroke-miterlimit="10" stroke-width="1.333"/><path d="M174.313-189.418s19.435,2.491,29.9-8.972" fill="none" stroke="#73516a" stroke-miterlimit="10" stroke-width="1.333"/><path d="M247.321-145.314a47.239,47.239,0,0,1-9.507-5.027c1.055,6.415,5.183,16.223,19.972,21.472,9.5,3.369,16.1,3.346,20.081,1.221-7.963-9.121-20.305-13.571-30.547-17.667" fill="#3b2b26"/><path d="M141.92-104.2a106.4,106.4,0,0,1-8.846-9.084,237.324,237.324,0,0,0,11.3,40.636c8.8-5.163,6.012-23.74-2.451-31.552" fill="#3b2b26"/><path d="M232.923-229.149a3.222,3.222,0,0,1-3.221,3.223,3.222,3.222,0,0,1-3.223-3.223,3.222,3.222,0,0,1,3.223-3.221,3.222,3.222,0,0,1,3.221,3.221" fill="#3b2b26"/><path d="M159.59-241.482a3.222,3.222,0,0,1-3.221,3.223,3.222,3.222,0,0,1-3.223-3.223,3.222,3.222,0,0,1,3.223-3.221,3.222,3.222,0,0,1,3.221,3.221" fill="#3b2b26"/></g></svg>