<svg xmlns="http://www.w3.org/2000/svg" xmlns:xlink="http://www.w3.org/1999/xlink" width="236" height="236" viewBox="0 0 236 236"><defs><linearGradient id="a" x1="0.5" x2="0.5" y2="1" gradientUnits="objectBoundingBox"><stop offset="0" stop-color="#5f97f6"/><stop offset="1" stop-color="#3d83ff"/></linearGradient><filter id="b" x="0" y="0" width="236" height="236" filterUnits="userSpaceOnUse"><feOffset dy="4" input="SourceAlpha"/><feGaussianBlur stdDeviation="6" result="c"/><feFlood flood-color="#88afff"/><feComposite operator="in" in2="c"/><feComposite in="SourceGraphic"/></filter></defs><g transform="translate(-5254 -392)"><g transform="matrix(1, 0, 0, 1, 5254, 392)" filter="url(#b)"><rect width="200" height="200" rx="53" transform="translate(18 14)" fill="url(#a)"/></g><g transform="translate(2681 1297.081)"><path d="M-2671.326-1220.97a9.6,9.6,0,0,1-6.478-2.056c-1.532-1.329-2.525-3.7-2.95-7.048a44.2,44.2,0,0,1-.13-7.913,52.865,52.865,0,0,1,5.487-19.516,97.245,97.245,0,0,1,10.887-17.269,62.837,62.837,0,0,1,17.493-15.573,50.759,50.759,0,0,1,10.605-4.743,43.26,43.26,0,0,1,11.408-1.969c.463-.016.931-.023,1.393-.023,10.744,0,21.888,4.188,31.38,11.793a71.812,71.812,0,0,1,12.267,12.77,100.442,100.442,0,0,1,9.346,15.138c2.432,4.776,4.93,10.466,5.013,16.455a19.022,19.022,0,0,1-1.834,8.473,13.752,13.752,0,0,1-5.725,6.2,14.231,14.231,0,0,1-6.88,1.628,21.561,21.561,0,0,1-6.64-1.108,56.577,56.577,0,0,1-9.866-4.691l-.009-.005c-.848-.473-1.725-.961-2.592-1.428-8.437-4.541-15.823-6.749-22.578-6.749-.618,0-1.24.019-1.848.056-8.706.529-16.609,4.8-24.252,8.929l-.009,0c-3.2,1.728-6.506,3.515-9.833,5.008C-2662.968-1222.228-2667.689-1220.97-2671.326-1220.97Zm67.722-63.949a2.166,2.166,0,0,0-1.956,1.307,1.663,1.663,0,0,0,.489,1.882c1.836,1.721,3.739,3.347,5.578,4.921,4.568,3.906,8.879,7.593,12.382,12.681a38.645,38.645,0,0,1,6.088,14.214,37.215,37.215,0,0,1-.1,15.45,3.069,3.069,0,0,0,.59,2.672,3.806,3.806,0,0,0,2.907,1.359,2.6,2.6,0,0,0,2.716-2.318c3.3-22.019-7.627-42.421-27.84-51.976A1.982,1.982,0,0,0-2603.6-1284.919Zm-11.241-6.48a3.292,3.292,0,0,0-3.066,2.043,3.4,3.4,0,0,0,.693,3.682,3.219,3.219,0,0,0,2.329.95,4.035,4.035,0,0,0,1.725-.4c-.2.1-.3.148-.3.153.026,0,.692-.3.832-.369a2.68,2.68,0,0,0,1.2-2.973c-.019-.107-.045-.21-.071-.31l0-.015c-.026-.1-.052-.2-.071-.311a3.277,3.277,0,0,0-2.8-2.415A3.514,3.514,0,0,0-2614.845-1291.4Z" transform="translate(5311.531 494.27)" fill="rgba(255,255,255,0.9)"/><path d="M2762.153-629.429c1.52,12.495-7.973,19.292-17.667,9.9-5.947-5.76-10.573-16.007-11.4-24.245-.413-4.152.093-8.844,3.213-11.6,3-2.645,7.693-2.659,11.28-.876s6.2,5.04,8.267,8.467a46.659,46.659,0,0,1,6.307,18.359" transform="translate(-120 -166)" fill="rgba(255,255,255,0.9)"/><path d="M2797.993-663.076c2,8.409-.374,21.389-11.733,20.433-13.6-1.143-15.187-24.609-13.707-34.281.547-3.625,1.96-7.675,5.374-9a7.912,7.912,0,0,1,7.173,1.224,20.766,20.766,0,0,1,5.04,5.6c3.387,4.933,6.467,10.207,7.854,16.028" transform="translate(-120 -166)" fill="rgba(255,255,255,0.9)"/><path d="M2845.3-668.576c.12-5.572-1.12-11.421-4.787-15.625s-10.12-6.233-15.067-3.652c-5.12,2.68-7.013,9.005-7.854,14.728-1.146,7.768-3,22.047,2.667,28.592,3.56,4.1,8.88,1.965,12.96-.4,7.987-4.645,11.88-14.787,12.08-23.64" transform="translate(-120 -166)" fill="rgba(255,255,255,0.9)"/><path d="M-2669.18-1253.21a12.48,12.48,0,0,1-9.385-3.708,9.27,9.27,0,0,1-1.988-3.581,12.144,12.144,0,0,1-.356-4.8,36.175,36.175,0,0,1,4.53-13.085,80.029,80.029,0,0,1,7.87-11.548,24.716,24.716,0,0,1,5.171-4.937,11.265,11.265,0,0,1,6.325-2.214,8.409,8.409,0,0,1,1.823.2,9.06,9.06,0,0,1,5.084,3.333,12.837,12.837,0,0,1,2.543,5.75c.725,4.16-.281,8.407-1.374,12.4-1.79,6.551-4.128,13.255-9.066,17.91a15.341,15.341,0,0,1-5.224,3.2A17.25,17.25,0,0,1-2669.18-1253.21Zm11.953-37.51a1.927,1.927,0,0,0-1.739,1.2,1.571,1.571,0,0,0,.417,1.784c3.417,3.259,1.312,10.9.413,14.166a31.028,31.028,0,0,1-1.281,3.544,17.672,17.672,0,0,0-1.666,6.061,1.314,1.314,0,0,0,.39.96,1.5,1.5,0,0,0,1.048.47,1.135,1.135,0,0,0,.669-.215c4.063-2.9,5.384-9.311,6.08-14.574.526-3.97,1.407-10.612-3.506-13.185A1.764,1.764,0,0,0-2657.227-1290.72Z" transform="translate(5416.743 473.89)" fill="rgba(255,255,255,0.9)"/></g></g></svg>