<svg xmlns="http://www.w3.org/2000/svg" width="2479.26" height="1062.332" viewBox="0 0 2479.26 1062.332"><g transform="translate(-798.155 -5737.985)"><g transform="translate(1725 8578.66)"><path d="M810.807-2235.808c-2.792-47.28-15.112-137.706-51.87-148.853-36.383-11.026-53,13.533-53,13.533s-9.021-76.68-56.383-87.946c-58.541-13.947-76.405,37.213-76.405,37.213s-17.865-51.16-76.406-37.213c-47.361,11.266-56.383,87.946-56.383,87.946s-16.613-24.56-53-13.533c-36.759,11.147-49.079,101.573-51.871,148.853-3.077,52.093-7.691,448.2-7.691,448.2s327.732,0,499.146.958c-6.275-185.332-14.324-418.367-16.143-449.154" transform="translate(2 8)" fill="#aaa897"/><path d="M581.528-2268.621c-75.309,0-144.672,57.467-105.036,97.106s63.014-11.893,107.017-11.893c41.619,0,63.417,41.627,99.092,17.84s-15.855-103.053-101.073-103.053" fill="#ffc0c0"/><path d="M397.624-2351.234c-20.408,1.827-25.535,23.773-22.981,46.067s15.32,37.16,29.364,35.667,25.535-22.293,24.257-46.066-14.044-37.16-30.64-35.667" fill="#ffc0c0"/><path d="M515.479-2346.288c14.044-1.48,25.533-22.293,24.257-46.066s-14.044-37.16-30.641-35.68c-20.407,1.827-25.535,23.787-22.981,46.08s15.323,37.16,29.365,35.667" fill="#ffc0c0"/><path d="M638.84-2346.288c14.044-1.48,25.535-22.293,24.257-46.066s-14.044-37.16-30.641-35.68c-20.405,1.827-25.533,23.787-22.98,46.08s15.321,37.16,29.364,35.667" fill="#ffc0c0"/><path d="M768.623-2315.568c-1.276-23.787-14.043-37.16-30.641-35.667-20.406,1.827-25.533,23.773-22.98,46.067s15.32,37.16,29.364,35.667,25.535-22.293,24.257-46.066" fill="#ffc0c0"/><path d="M495.713-2187.888a7.415,7.415,0,0,1-5.4-2.4c-11.812-11.813,2.84-37.667,38.387-53.16,16.236-7.067,32.647-10.28,45.883-10.28,18.059,0,30.207,5.973,27.936,16.187-2.359,10.613-37.4,12.8-59.056,17.72-19.821,4.507-35.993,31.947-47.751,31.933" fill="#ffd9d9"/><path d="M390.572-2298.088a5.955,5.955,0,0,1-.828-.067c-6.891-.987-7.212-11.693-6.713-19.107.587-8.733,2.467-21.667,11.3-21.667.165,0,.336,0,.507.013,7.573.413,6.889,16.733,4.921,23.626-1.887,6.6-3.029,17.2-9.191,17.2" fill="#ffd9d9"/><path d="M502.284-2379.287a5.99,5.99,0,0,1-.827-.067c-6.891-.987-7.212-11.693-6.715-19.107.588-8.733,2.468-21.667,11.3-21.667.167,0,.336,0,.508.013,7.573.413,6.889,16.733,4.921,23.626-1.887,6.6-3.031,17.2-9.192,17.2" fill="#ffd9d9"/><path d="M626.3-2377.821a5.871,5.871,0,0,1-.827-.053c-6.889-.987-7.212-11.693-6.713-19.107.587-8.733,2.467-21.667,11.3-21.667.167,0,.336,0,.508.013,7.571.4,6.889,16.733,4.92,23.613-1.888,6.613-3.031,17.2-9.192,17.2" fill="#ffd9d9"/><path d="M735.061-2300.061a5.873,5.873,0,0,1-.827-.053c-6.891-.987-7.213-11.707-6.715-19.12.587-8.72,2.467-21.667,11.3-21.667.167,0,.336.013.508.013,7.573.413,6.889,16.733,4.923,23.626-1.888,6.6-3.031,17.2-9.192,17.2" fill="#ffd9d9"/></g><g transform="translate(-230 8266.934)"><path d="M3460.271-2302.514s54.307-50.733,46.346-63.013c-9.88-15.227-75.187,27.293-75.187,27.293l28.84,35.72" transform="translate(0 15.466)" fill="#7a796e"/><path d="M3310.258-2451.434s28.56-68.613,16.24-76.52c-15.28-9.787-57.24,55.88-57.24,55.88l41,20.64" fill="#7a796e"/><path d="M2857.286-2292.474s-56.333-48.493-48.866-61.093c9.253-15.6,76.226,24.227,76.226,24.227l-27.36,36.866" transform="translate(0 16.56)" fill="#7a796e"/><path d="M3001.126-2447.354s-31.307-67.4-19.32-75.8c14.866-10.4,59.453,53.507,59.453,53.507l-40.133,22.293" fill="#7a796e"/><path d="M3477.511-2276.436c-33.6-125.646-139.08-72.987-139.08-72.987s26.067-120.834-57.2-138.494c-66.907-14.189-114.493,37.1-123.293,53.446-8.134-14.875-66.813-69.05-133.187-42.961-81.32,31.965-45.56,132.865-45.56,132.865s-107.026-48.765-136.76,78.048c-23.854,101.76,112.973,113.8,118.92,159.318s-44.586,640.584-44.586,640.584l510.906-7.627s-68.693-592.883-64.146-638.586,140.933-62.75,113.986-163.606" fill="#874538"/><path d="M3162.352-2306.274c-75.307,0-144.667,57.466-105.027,97.106s63.013-11.893,107.013-11.893c41.613,0,63.413,41.626,99.093,17.84s-15.853-103.053-101.079-103.053" transform="translate(0 22.648)" fill="#ffc0c0"/><path d="M2933.286-2305.808c-20.227-12.573-38.493-9.76-46.787,4.693-10.173,17.787,4.893,34.56,24.627,45.227s39.24,8.707,46.067-3.667-3.667-33.693-23.907-46.253" transform="translate(0 20.747)" fill="#ffc0c0"/><path d="M3086.712-2368.661c11.28-8.507,10.413-32.253-2.933-51.987s-31.173-24.613-44.626-14.8c-16.56,12.08-9.64,33.533,4.027,51.333s32.266,23.96,43.533,15.453" fill="#ffc0c0"/><path d="M3423-2305.968c-9.68-13.56-28.146-14.533-47.027-.013s-27.173,36.8-19.16,48.427,27.613,11.627,46.2-.96,31.893-30.773,19.987-47.453" transform="translate(0 20.546)" fill="#ffc0c0"/><path d="M3263.912-2438.781c-14.374-8.427-31.626-1.773-42.933,19.174s-9.8,44.693,2.253,52.026,29.96-.653,41.787-19.72,16.56-41.107-1.107-51.48" fill="#ffc0c0"/><path d="M3074.166-1903.1c54.066-17,37.24-103.187,11.747-135.146-23.813-29.853-84.12-45.173-126.56-32.013-2.934,50.08-8.413,121.52-14.48,195.413,16.84-12.453,33.907-25.667,53.174-31.4,25.893-7.72,52.56,10.56,76.12,3.147" transform="translate(0 51.421)" fill="#d1a678"/><path d="M3381.1-1948.462c-53.947,2.893-97.466,15.387-141.2,55.973-45.36,42.08-88.707,82.613-139.92,117.573-37.893,25.867-54.52,48.84-54.466,94.427.053,36.56,2.96,83.586,16.6,124.12l365.546-5s-27.507-217.079-46.56-387.092" transform="translate(0 87.726)" fill="#d1a678"/><path d="M3111.379-2282.808c-35.546,15.493-50.2,41.333-38.386,53.146,11.974,11.973,30.093-24.293,53.16-29.533,21.654-4.92,56.693-7.107,59.053-17.707,3.934-17.72-35.44-22.64-73.826-5.907" transform="translate(0 22.768)" fill="#fff"/><path d="M2892.3-2292.861c-6.04,7.053,3.293,16.667,9.987,22.56,5.573,4.907,14.267,11.174,19.24,6.307s-3.227-12.627-7.493-18.387-16.787-16.24-21.733-10.48" transform="translate(0 21.823)" fill="#fff"/><path d="M3044.486-2429.421c-8.707,3.213-5.227,16.16-2.253,24.56,2.493,7,7.04,16.707,13.747,14.88s3.32-12.6,2.4-19.707-6.773-22.36-13.893-19.733" fill="#fff"/><path d="M3254.619-2434.274c-7.427-5.573-16.413,4.373-21.854,11.44-4.533,5.88-10.213,14.973-5.04,19.613s12.387-4.04,17.854-8.68,15.107-17.813,9.04-22.373" fill="#fff"/><path d="M3412.618-2306.448c-5.44-7.533-16.973-.72-24.28,4.4-6.08,4.267-14.213,11.24-10.653,17.226s13.026-.173,19.626-2.96,19.733-12.52,15.307-18.667" transform="translate(0 20.299)" fill="#fff"/></g><g transform="translate(278 8354.66)"><path d="M1706.329-2302.514s54.307-50.733,46.347-63.013c-9.88-15.227-75.187,27.293-75.187,27.293l28.84,35.72" fill="#7a796e"/><path d="M1556.316-2451.434s28.56-68.613,16.24-76.52c-15.28-9.787-57.24,55.88-57.24,55.88l41,20.64" fill="#7a796e"/><path d="M1103.341-2292.474s-56.324-48.493-48.86-61.093c9.249-15.6,76.225,24.227,76.225,24.227l-27.365,36.866" fill="#7a796e"/><path d="M1247.192-2447.354s-31.315-67.4-19.323-75.8c14.863-10.4,59.452,53.507,59.452,53.507l-40.129,22.293" fill="#7a796e"/><path d="M1723.569-2294.768c-33.587-114.88-139.066-66.733-139.066-66.733s26.053-110.48-57.213-126.626c-66.907-12.973-114.493,33.92-123.28,48.866-8.133-13.6-66.827-63.133-133.192-39.28-81.329,29.226-45.565,121.48-45.565,121.48s-107.028-44.587-136.758,71.36c-23.86,93.04,112.976,104.053,118.921,145.666s-44.6,585.692-44.6,585.692l510.909-6.973s-68.693-542.078-64.146-583.865,140.946-57.373,113.986-149.586" fill="#aaa897"/><path d="M1408.423-2306.274c-75.316,0-144.678,57.466-105.044,97.106s63.017-11.893,107.017-11.893c41.613,0,63.413,41.626,99.093,17.84s-15.853-103.053-101.066-103.053" fill="#2d2b2c"/><path d="M1179.353-2305.808c-20.229-12.573-38.505-9.76-46.788,4.693-10.184,17.787,4.883,34.56,24.624,45.227s39.239,8.707,46.059-3.667-3.665-33.693-23.895-46.253" fill="#2d2b2c"/><path d="M1332.778-2368.661c11.272-8.507,10.405-32.253-2.935-51.987s-31.176-24.613-44.637-14.8c-16.551,12.08-9.64,33.533,4.031,51.333s32.268,23.96,43.541,15.453" fill="#2d2b2c"/><path d="M1669.063-2305.968c-9.68-13.546-28.147-14.533-47.013-.013s-27.187,36.8-19.16,48.427,27.613,11.627,46.187-.96,31.893-30.773,19.987-47.453" fill="#2d2b2c"/><path d="M1509.97-2438.781c-14.373-8.427-31.627-1.773-42.933,19.174s-9.8,44.693,2.267,52.026,29.947-.653,41.773-19.72,16.573-41.107-1.107-51.48" fill="#2d2b2c"/><path d="M1617.289-2028.875c-49.48,24.427-91.547,159.453-174.213,177.16-93.36,20.013-146.573-57.12-238.6-37.72-4.229.893-8.428,1.987-12.595,3.253-12.959,158.48-29.062,331.839-29.062,331.839l510.923-6.973s-37.546-300.586-56.453-467.559" fill="#2d2b2c"/><path d="M1324.455-2226.274a7.414,7.414,0,0,1-5.4-2.4c-11.811-11.813,2.843-37.667,38.381-53.16,16.24-7.067,32.653-10.28,45.893-10.28,18.053,0,30.2,5.973,27.933,16.187-2.36,10.613-37.4,12.8-59.053,17.72-19.827,4.507-36,31.947-47.755,31.933" fill="#6c6a62"/><path d="M1163.172-2261.248c-4.788,0-10.672-4.413-14.827-8.067-6.689-5.893-16.028-15.52-9.981-22.56a4.83,4.83,0,0,1,3.839-1.68c5.871,0,14.5,7.573,17.895,12.16,4.265,5.76,12.469,13.52,7.493,18.387a6.088,6.088,0,0,1-4.419,1.76" fill="#6c6a62"/><path d="M1300.4-2388.781c-5.821,0-9.829-8.68-12.105-15.093-2.98-8.4-6.463-21.346,2.247-24.56a4.516,4.516,0,0,1,1.639-.307c6.357,0,11.4,13.48,12.255,20.026.927,7.107,4.32,17.88-2.393,19.72a6.474,6.474,0,0,1-1.641.213" fill="#6c6a62"/><path d="M1477.116-2400.914a4.836,4.836,0,0,1-3.333-1.32c-5.173-4.654.507-13.733,5.04-19.613,4.333-5.626,10.907-13.067,17.16-13.067a7.66,7.66,0,0,1,4.693,1.627c6.067,4.546-3.573,17.733-9.04,22.373-4.36,3.707-9.853,10.013-14.52,10" fill="#6c6a62"/><path d="M1628.436-2281.314a5.049,5.049,0,0,1-4.693-2.533c-3.56-5.973,4.573-12.947,10.667-17.213,4.96-3.48,11.893-7.747,17.52-7.747a7.832,7.832,0,0,1,6.747,3.347c4.427,6.146-8.707,15.866-15.307,18.653-4.573,1.947-10.533,5.493-14.933,5.493" fill="#6c6a62"/></g><g transform="translate(-1280 8352.66)"><path d="M2564.74-2235.808c-2.787-47.28-15.107-137.706-51.866-148.853-36.373-11.026-53,13.533-53,13.533s-9.013-76.68-56.374-87.946c-58.546-13.947-76.413,37.213-76.413,37.213s-17.866-51.16-76.4-37.213c-47.36,11.266-56.387,87.946-56.387,87.946s-16.613-24.56-53-13.533c-36.76,11.147-49.08,101.573-51.866,148.853-3.08,52.093-11.28,683.225-11.28,683.225H2588.74s-20.92-631.132-24-683.225" fill="#f28840"/><path d="M2260.488-2156.528c-9.293,0-19.04-3.973-30.053-14.987-39.64-39.64,29.72-97.106,105.04-97.106,85.213,0,136.733,79.266,101.067,103.053-7.934,5.28-15.174,7.347-22.093,7.347-24.253,0-44.626-25.187-77-25.187-31.773,0-52.8,26.88-76.96,26.88m70.987-94.24c-13.24,0-29.64,3.2-45.88,10.28-35.547,15.493-50.2,41.333-38.387,53.146a7.43,7.43,0,0,0,5.4,2.413c11.76,0,27.933-27.44,47.746-31.947,21.653-4.92,56.707-7.093,59.053-17.707,2.28-10.227-9.867-16.187-27.933-16.187" fill="#bc663c"/><path d="M2156.021-2269.395c-13.266,0-25-14.507-27.44-35.773-2.547-22.293,2.573-44.24,22.987-46.067.827-.08,1.654-.12,2.467-.12,15.387,0,26.96,13.2,28.173,35.787,1.28,23.773-10.213,44.586-24.267,46.066a15.478,15.478,0,0,1-1.92.107m-4.8-66.586c-8.827,0-10.707,12.947-11.293,21.667-.507,7.413-.187,18.134,6.707,19.12a5.987,5.987,0,0,0,.827.053c6.16,0,7.307-10.6,9.2-17.2,1.96-6.893,2.64-23.213-4.92-23.626-.173,0-.346-.013-.52-.013" fill="#bc663c"/><path d="M2267.488-2346.181c-13.267,0-25-14.507-27.44-35.773-2.547-22.293,2.587-44.253,22.987-46.08.84-.067,1.667-.107,2.48-.107,15.374,0,26.947,13.2,28.16,35.787,1.28,23.773-10.213,44.587-24.253,46.067a19.069,19.069,0,0,1-1.933.107m-4.546-71c-8.84,0-10.72,12.947-11.307,21.667-.493,7.413-.173,18.133,6.72,19.107a5.91,5.91,0,0,0,.827.067c6.16,0,7.307-10.6,9.187-17.2,1.974-6.893,2.654-23.213-4.92-23.626-.173,0-.347-.013-.507-.013" fill="#bc663c"/><path d="M2390.847-2346.181c-13.267,0-25-14.507-27.426-35.773-2.56-22.293,2.573-44.253,22.973-46.08.84-.067,1.667-.107,2.48-.107,15.374,0,26.947,13.2,28.16,35.787,1.28,23.773-10.213,44.587-24.253,46.067a19.069,19.069,0,0,1-1.933.107m-3.893-69.52c-8.84,0-10.72,12.933-11.306,21.667-.493,7.413-.174,18.12,6.72,19.107a5.907,5.907,0,0,0,.826.067c6.16,0,7.307-10.6,9.187-17.2,1.973-6.893,2.653-23.213-4.92-23.626-.173-.013-.333-.013-.507-.013" fill="#bc663c"/><path d="M2496.381-2269.395c-13.267,0-25-14.507-27.44-35.773-2.546-22.293,2.573-44.24,22.987-46.067q1.24-.12,2.48-.12c15.374,0,26.947,13.2,28.16,35.787,1.28,23.773-10.213,44.586-24.267,46.066a15.477,15.477,0,0,1-1.92.107m-.667-68.546c-8.84,0-10.72,12.933-11.307,21.667-.493,7.413-.174,18.12,6.72,19.107a5.855,5.855,0,0,0,.826.053c6.16,0,7.307-10.587,9.187-17.2,1.973-6.88,2.654-23.2-4.92-23.613-.174-.013-.333-.013-.507-.013" fill="#bc663c"/><path d="M2079.008-1570.383c.24-18.32.533-39.933.867-63.907,19.013,1.947,37.386,2.573,53.479,2.6h.414c88.626,0,170.333-36.173,255.826-55.44,20.133-4.533,112.96-20.347,192.386-21.627,1.48,44.106,2.84,84.427,3.933,117.253-24.907,3.4-49.24,4.107-67.947,4.107H2402.874c-53.427,0-108.626-4.72-163.093-4.72-34.027,0-67.773,1.84-100.6,7.827-20.627,3.773-40.56,8.773-60.173,13.907" fill="#cd6636"/><path d="M2084.715-1963.062c.613-38.08,1.213-74.08,1.8-105.8,49.813-11.147,99.48-24.213,150.2-30.173,64.307-7.56,129.053-14.346,193.933-14.346,14.307,0,28.626.32,42.933,1.053a475.5,475.5,0,0,1,94.893,14.693c1.253,34.306,2.733,75.64,4.293,120.333-57.28,9.053-120.28,11.253-136.84,12.013-23.813,1.12-47.733,1.507-71.72,1.507-29.826,0-59.747-.613-89.68-1.227s-59.893-1.227-89.76-1.227c-33.493,0-66.88.773-100.053,3.173" fill="#cd6636"/><path d="M2430.167-1720.782c-96.906,0-201.64-25.333-281.373-31.973-8.973-.747-35.587-2.973-67.213-3.693.453-31.093.92-63.28,1.4-95.466,41.146,5.267,83.493,7.173,126.24,7.173,86.826,0,175.293-7.867,258.626-11.507,15.587-.68,31.493-1.84,47.093-1.84,22.026,0,43.413,2.307,62.346,11.493,1.093,31.707,2.173,63.36,3.2,93.907-43.733,23.893-95.787,31.92-150.32,31.906" fill="#cd6636"/><path d="M2252.608-2184.928a7.43,7.43,0,0,1-5.4-2.413c-11.813-11.813,2.84-37.653,38.387-53.146,16.24-7.08,32.64-10.28,45.88-10.28,18.067,0,30.213,5.96,27.933,16.187-2.347,10.613-37.4,12.787-59.053,17.707-19.813,4.507-35.987,31.947-47.747,31.947" fill="#c98563"/><path d="M2147.461-2295.141a5.987,5.987,0,0,1-.827-.053c-6.894-.987-7.213-11.707-6.707-19.12.586-8.72,2.467-21.667,11.293-21.667.173,0,.347.013.52.013,7.56.413,6.88,16.733,4.92,23.627-1.893,6.6-3.04,17.2-9.2,17.2" fill="#c98563"/><path d="M2259.181-2376.341a5.91,5.91,0,0,1-.827-.067c-6.893-.973-7.213-11.693-6.72-19.107.587-8.72,2.467-21.667,11.307-21.667.16,0,.333.013.507.013,7.573.413,6.893,16.733,4.92,23.626-1.88,6.6-3.027,17.2-9.187,17.2" fill="#c98563"/><path d="M2383.194-2374.861a5.907,5.907,0,0,1-.826-.067c-6.893-.987-7.213-11.693-6.72-19.107.586-8.733,2.467-21.667,11.306-21.667.174,0,.333,0,.507.013,7.573.413,6.893,16.733,4.92,23.626-1.88,6.6-3.027,17.2-9.187,17.2" fill="#c98563"/><path d="M2491.954-2297.115a5.852,5.852,0,0,1-.827-.053c-6.893-.987-7.213-11.693-6.72-19.107.587-8.733,2.467-21.667,11.307-21.667.174,0,.333,0,.507.013,7.573.413,6.893,16.733,4.92,23.613-1.88,6.613-3.027,17.2-9.187,17.2" fill="#c98563"/></g></g></svg>