<svg xmlns="http://www.w3.org/2000/svg" width="2993.323" height="3466.371" viewBox="0 0 2993.323 3466.371"><g transform="translate(-1167.331 4252.062)"><path d="M2663.993-785.691c-826.585,0-1496.663-49.973-1496.663-111.64,0-25.693,116.353-49.36,311.943-68.227,2.053,1.213,4.133,2.427,6.227,3.6a469.718,469.718,0,0,0,162.56,55.586l21.413,2.68,21.507,1.653c7.173.333,14.373.413,21.56.627,3.187.08,6.24.107,9.253.107,1.413,0,2.8,0,4.2-.013H3585.508q5.16.02,10.467.027c21.213,0,43.826-.387,65.866-2.733,51.467-5.747,102.266-19.293,149.173-41.64q19.38-9.02,37.813-19.88c195.533,18.867,311.826,42.52,311.826,68.213,0,61.667-670.078,111.64-1496.663,111.64" fill="#d16787"/><path d="M3626.365-1770.742c13.307-117.827,100.04-199.333,161.546-220.706,9.733-3.387,18.133,7.693,12.346,16.187-18.947,27.893-49.16,79.067-61.426,137.106l-112.466,67.413" fill="#fccaca"/><path d="M3626.378-1753.742a15.577,15.577,0,0,1-1.92-.107,17.019,17.019,0,0,1-15-18.813c13.347-118.146,99.026-209.186,172.866-234.853a27.622,27.622,0,0,1,31.067,9.333,27.691,27.691,0,0,1,.933,32.493c-16.893,24.853-47,74.933-58.84,131.053a16.985,16.985,0,0,1-20.16,13.12,16.99,16.99,0,0,1-13.133-20.147c10.64-50.373,34.28-95.826,52.573-125.506-53.267,27.906-120.333,99.56-131.493,198.333a17.02,17.02,0,0,1-16.893,15.093" fill="#6b184e"/><path d="M3807.391-1761.382c66.586,3.693,78.386,92.786,16.067,99.906-45.173,5.147-72.973-26.04-87.173-78.226,24.387-14.347,49.227-22.867,71.107-21.68m0-109.613c-26.813-1.827-52.96,3.213-77.76,12.467-33.32,12.48-64.08,32.64-90.386,54.213-54.573,44.653-90.08,95.12-90.08,95.12l73.4,93.413c6.387-15.653,16.733-32.493,29.626-48.973,2.8-3.533,5.667-7.067,8.68-10.6q5.14,11.78,11.587,23.853c103.96,193.933,280.692,102.453,291.6-19.333.16-1.813.32-3.64.413-5.4,8.48-118.506-57.853-188.106-157.08-194.759" fill="#fccaca"/><path d="M3628.458-1759.729c-.613-3.6-1.24-7.28-1.88-10.867,7.32-6.867,15.16-13.8,23.427-20.573,29.013-23.72,57.826-41.027,85.613-51.427,20.907-7.8,41.373-11.746,60.96-11.746q4.88,0,9.68.32c44.973,3.013,81.826,19.906,106.586,48.866a135.754,135.754,0,0,1,22.107,36.413c-27.626-40.027-72.52-63.093-127.56-66.787q-5.48-.36-10.907-.36c-23,0-45.427,4.853-66.853,12.84-33.307,12.467-64.08,32.64-90.387,54.213q-5.52,4.52-10.787,9.107" fill="#fee5e5"/><path d="M3813.977-1625.449c-33.053,0-55.866-21.12-70.16-56.253,21.893,30.627,49.626,37.747,70.693,37.747a98.275,98.275,0,0,0,10.88-.613c16.6-1.907,29.227-8.253,38.24-17.053-2.947,17.707-15.947,32.853-40.174,35.627a86.065,86.065,0,0,1-9.48.547" fill="#fee5e5"/><path d="M3756.377-1732.129c20.12,58.893,53.68,55.066,65.16,53.746,23.907-2.72,25.974-20.307,25.76-27.733-.52-17.92-14.72-36.827-40.84-38.28-16.667-.92-29.626.827-50.08,12.267m58.133,88.173c-26.973,0-64.88-11.68-87.48-69.44a287.516,287.516,0,0,0-25.987,21.067,316.594,316.594,0,0,0-27.267,28.053,17,17,0,0,1-23.987,1.84,17.019,17.019,0,0,1-1.84-23.987,351.81,351.81,0,0,1,30.213-31.093,301.178,301.178,0,0,1,49.52-36.853l1.854-1.093a16.891,16.891,0,0,1,2.4-1.773c4.947-3.027,9.64-5.653,14.12-7.933l.813-.467.013.053c23.747-11.893,41.654-13.867,61.44-12.787,46.134,2.56,72.04,38.627,72.987,71.267.813,27.853-16.16,57.986-55.92,62.533a98.275,98.275,0,0,1-10.88.613" fill="#6b184e"/><path d="M3665.618-1707.036l10.853,24.88c3.227,7.427,6.933,15.04,10.987,22.627,40.92,76.36,98.626,113.173,158.306,100.973,52.933-10.813,96.493-59.733,101.32-113.8,4.92-54.92-6.92-100.84-34.24-132.8-24.76-28.96-61.613-45.853-106.587-48.867-22.48-1.533-46.266,2.32-70.64,11.427-27.787,10.4-56.6,27.707-85.613,51.427-37.826,30.96-66.453,65.24-79.373,81.773l48.826,62.133a287.091,287.091,0,0,1,28.493-39.173l17.667-20.6m158.2,184.666c-43.707,0-111.747-19.266-166.32-121.04a177.82,177.82,0,0,0-19.2,34.053l-11.067,27.053-99.24-126.293,7.267-10.36c1.507-2.133,37.493-52.947,93.2-98.546,31.92-26.093,63.96-45.253,95.253-56.96h0c28.947-10.813,57.493-15.346,84.84-13.506,54.293,3.64,99.307,24.627,130.146,60.706,33.413,39.08,48.026,93.68,42.28,157.933-6.213,69.573-60.227,130.173-128.4,144.106a144.226,144.226,0,0,1-28.76,2.853" fill="#6b184e"/><path d="M3640.044-1676.849c-1.08-9.933-2.28-19.773-3.573-29.64,36.653-40.267,88.707-81.773,120.72-91.146a136.79,136.79,0,0,1,38.387-5.693c38.72,0,72.506,18.373,83.293,56.346,6.08,21.387,5.587,37.213,2.08,48.853a63.281,63.281,0,0,0,.36-8.973c-.947-32.64-26.853-68.707-72.987-71.267-3-.16-5.947-.253-8.88-.253-16.467,0-32.4,2.947-52.56,13.04l-.013-.053-.813.467c-4.48,2.28-9.173,4.907-14.12,7.933a16.915,16.915,0,0,0-2.4,1.773l-1.853,1.093a301.189,301.189,0,0,0-49.52,36.853c-4.107,3.733-8.146,7.587-12.08,11.52l-.467-1.04-17.667,20.6q-4.1,4.78-7.907,9.587" fill="#d094a5"/><path d="M3853.137-1667.809c22.52-7.84,24.746-64.373-20.987-87.413-7.947-4-16.813-5.72-26.2-5.72-45.253,0-102.146,40.346-121.733,61.04q-5.56,5.26-10.8,10.733L3666.084-1706c3.933-3.933,7.973-7.787,12.08-11.52a301.189,301.189,0,0,1,49.52-36.853l1.853-1.093a16.9,16.9,0,0,1,2.4-1.773c4.947-3.027,9.64-5.653,14.12-7.933l.813-.467.013.053c20.16-10.093,36.093-13.04,52.56-13.04,2.933,0,5.88.094,8.88.253,46.134,2.56,72.04,38.627,72.987,71.267a63.317,63.317,0,0,1-.36,8.973c-6.56,21.853-23.72,28.92-27.813,30.32" fill="#6b184e"/><path d="M3652.524-1666.529q-5.9-2.88-11.947-5.36c-.174-1.653-.347-3.307-.533-4.96q3.8-4.8,7.907-9.587l17.667-20.6.467,1.04,7.333,16.827q-6.54,6.8-12.547,13.813a.927.927,0,0,1,.067.173q-4.1,4.28-8.414,8.653" fill="#6b184e"/><path d="M3852.257-1667.529c.12-.027.227-.067.333-.093-.213.067-.333.093-.333.093m.333-.093c.147-.053.333-.107.547-.187-.173.067-.36.12-.547.187" fill="#6b184e"/><path d="M3625-1539.29H1697.6c-.307-274.719,101.346-545.439,184.893-721.425,58.253-122.653,107.666-199.333,107.666-199.333H3332.392s56.64,87.826,120.08,225.92C3533.4-2058.142,3625.311-1800.556,3625-1539.29" fill="#fccaca"/><path d="M3625.018-1516.6h-.027a22.679,22.679,0,0,1-22.653-22.707c.507-415.866-239.746-828.011-282.533-898.078H2002.8c-42.786,70.12-283.039,482.559-282.533,898.078a22.688,22.688,0,0,1-22.653,22.707h-.027a22.673,22.673,0,0,1-22.68-22.653c-.573-467.479,284.106-914.3,296.213-933.1l6.707-10.387H3344.779l6.707,10.387c12.107,18.8,296.773,465.625,296.213,933.1a22.682,22.682,0,0,1-22.68,22.653" fill="#6b184e"/><path d="M3767.164-1571.329a153.049,153.049,0,0,1-25.613-17.96,295.02,295.02,0,0,0-35.707-40.16,297.169,297.169,0,0,1-18.386-30.08q-3.44-6.42-6.507-12.827c5.24-5.693,10.72-11.227,16.373-16.533,19.587,37.613,51.947,77.786,103,87.92a135.777,135.777,0,0,0,26.533,2.64c51.44,0,92.106-29.907,116.733-54.333a132.55,132.55,0,0,1-32,56.546,189.163,189.163,0,0,0-37.947-3.747,210.8,210.8,0,0,0-23.467,1.32c-27.626,3.413-53.986,12.213-78.213,24.627-1.613.84-3.214,1.707-4.8,2.587" fill="#d094a5"/><path d="M3680.951-1672.356c-1.574-3.293-3.08-6.56-4.48-9.8l-2.827-6.467c4.027-4.293,7.587-8.133,10.467-11.187.04-.027.067-.067.107-.093q2.66-2.54,5.4-5.027c2.307,5.227,4.88,10.613,7.707,16.04-5.653,5.307-11.133,10.84-16.373,16.533" fill="#6b184e"/><path d="M3757.671-1565.756q-7.84-12.38-16.12-23.533a153.061,153.061,0,0,0,25.613,17.96q-4.82,2.68-9.493,5.573m172.56-25.413a170.7,170.7,0,0,0-18.64-4.947,132.557,132.557,0,0,0,32-56.547,239.923,239.923,0,0,0,20.88-23.573c-.093,1.76-.253,3.587-.413,5.4-2.653,29.56-15.053,57.32-33.826,79.667m-224.386-38.28a231.2,231.2,0,0,0-36.373-27.773q-4.64-9.06-8.533-17.96c4.547-4.733,8.84-9.293,12.707-13.44l2.826,6.467c1.4,3.24,2.906,6.507,4.48,9.8q3.06,6.4,6.507,12.827a297.3,297.3,0,0,0,18.387,30.08" fill="#6b184e"/><path d="M3673.644-1688.623l-.227-.547q5.24-5.46,10.8-10.733c-.04.027-.067.067-.107.094-2.88,3.053-6.44,6.893-10.467,11.187" fill="#6b184e"/><path d="M3660.938-1675.182a.913.913,0,0,0-.067-.173q6-7,12.547-13.813l.227.547c-3.867,4.147-8.16,8.707-12.707,13.44" fill="#6b184e"/><path d="M3590.924-2481.927c-12.173,9.653-80.986,63-181.119,121.253-22.907-36.747-47.2-70.093-72.666-98.307-7.267-8.146,229-15.8,253.786-22.947" fill="#fccaca"/><path d="M3590.924-2481.927c1.293-1.013,1.96-1.507,1.96-1.507.507.493-.173,1-1.96,1.507" fill="#fccaca"/><path d="M1760.436-1852.062l-.547,1.2-.107-.053c.213-.387.44-.76.653-1.147" fill="#fccaca"/><path d="M3106.872-2153.675q-11.24-25.04-22.707-50.307c130.626-15.227,237.533-38.2,325.626-66.773,6.88,14.174,13.947,29.067,21.08,44.6-52.187,18.587-111.76,35.107-180.026,48.986l-12.56-15.786q-1.52,9.7-3.174,18.906-59.68,11.56-128.24,20.373m-860.011-5.587c-49.346-7.28-94.786-15.773-136.679-25.32a93.321,93.321,0,0,0-6.747-9.533l-.28-.347a8.37,8.37,0,0,0-3.933-2.72,8.532,8.532,0,0,0-2.667-.44,8.515,8.515,0,0,0-8.066,5.84c-.213.64-.414,1.293-.613,1.933-71.573-17.493-132.373-38.187-184.453-61.253q10.72-22.6,20.933-43.013c95.2,38.28,209.653,66.466,345.106,84.84q-11.42,25.08-22.6,50.013" fill="#d094a5"/><path d="M3430.871-2226.155c-7.133-15.533-14.2-30.426-21.08-44.6,7.453-2.427,14.733-4.867,21.92-7.36q10.18,21.02,20.76,43.987-10.58,4.04-21.6,7.974M1903.422-2251.1q-10.7-4.74-20.933-9.613,10.52-22.16,20.587-42.267,10.48,4.52,21.28,8.866-10.2,20.4-20.933,43.013" fill="#6b184e"/><path d="M2696.767-2206.941c794.131-2.44,996.544-203.8,1094.224-390.359,118.706-226.706,134.187-892.945-151.266-1229.624s-942.958-345.226-942.958-345.226-657.505,8.533-942.958,345.226S1474.1-2818.646,1602.543-2597.3c108.266,186.559,300.093,387.919,1094.224,390.359" fill="#fccaca"/><path d="M1683.969-3680.871q13.2-24.46,27.8-47.733c2.373,1.173,4.773,2.333,7.187,3.453-.76.893-1.507,1.76-2.267,2.667q-17.02,20.06-32.72,41.613m2024.7-4.08q-14.3-19.34-29.707-37.533c-1.28-1.507-2.546-3-3.84-4.48,2.387-1.146,4.747-2.307,7.093-3.507q13.88,22.18,26.453,45.52m-852.4-249.4c-97.146,0-175.853-34.546-175.853-77.2,0-28.427,35.013-53.307,87.133-66.667-43.893-3.093-69.76-3.427-69.76-3.427s-274.613,3.574-551.385,95.253a365.49,365.49,0,0,0-10.106-64.28q24.3-9.42,49.733-18.293a1556.508,1556.508,0,0,1,511.692-86.213,1556.449,1556.449,0,0,1,511.692,86.213q22.98,8,45.013,16.48a368.219,368.219,0,0,0-10.44,64.386c-79.413-26-158.493-44.773-230.813-58.333,12.107,10.467,18.947,22.307,18.947,34.88,0,42.653-78.707,77.2-175.853,77.2" fill="#fee5e5"/><path d="M3763.9-2625.22c0,146.079-118.427,264.506-264.506,264.506s-264.52-118.426-264.52-264.506,118.427-264.506,264.52-264.506S3763.9-2771.3,3763.9-2625.22" fill="#ff6982"/><path d="M2184.195-2625.22c0,146.079-118.427,264.506-264.506,264.506s-264.506-118.426-264.506-264.506,118.426-264.506,264.506-264.506,264.506,118.426,264.506,264.506" fill="#ff6982"/><path d="M3064.393-2247.274c-22.453-48.853-45.413-97.72-68.4-145.24-.107-.253-.227-.507-.347-.76s-.253-.52-.374-.773c122.72-10.027,226.306-26.267,314.066-47.2a263.693,263.693,0,0,0,190.053,80.533c4.987,0,9.933-.133,14.866-.413-104.4,51.013-247.919,91.64-449.865,113.853m-775.212-5.093c-156.719-20.24-284.559-53.546-386.292-100.36q-11.68-5.38-22.76-10.92a266.987,266.987,0,0,0,39.56,2.933,263.724,263.724,0,0,0,188.133-78.573c72.16,16.907,155.053,30.64,250.546,40.347q-32.86,67.76-68.44,144.959l-.747,1.613M1671.2-2534.38a727.857,727.857,0,0,1-48.08-73.347c-43.373-74.76-73.32-211.506-79.693-371.346,14.573,85.253,37.093,156.866,65.64,206.133,15.8,27.24,33.387,54.773,54.36,81.973a265.231,265.231,0,0,0-8.24,65.747,263.967,263.967,0,0,0,16.013,90.84m2089.995-52.893a267.735,267.735,0,0,0,2.707-37.947,264.372,264.372,0,0,0-10.733-74.8,620.894,620.894,0,0,0,44.386-72.92c17.387-33.24,32.56-75.933,44.907-125.653-11.346,122.786-36.613,226.813-70.6,291.733q-5.12,9.78-10.667,19.586" fill="#d094a5"/><path d="M3499.391-2360.714a263.693,263.693,0,0,1-190.053-80.533c249.613-59.573,371.519-157.253,443.825-258.773a264.362,264.362,0,0,1,10.733,74.8,267.735,267.735,0,0,1-2.707,37.947c-46,81.16-115.44,161.893-246.933,226.146-4.934.28-9.88.413-14.867.413" fill="#d25172"/><path d="M1919.689-2360.714a266.921,266.921,0,0,1-39.56-2.934c-100.773-50.48-163.946-111-208.933-170.733a263.966,263.966,0,0,1-16.013-90.84,265.229,265.229,0,0,1,8.24-65.746c76.64,99.373,198.52,194.053,444.4,251.679a263.725,263.725,0,0,1-188.133,78.573" fill="#d25172"/><path d="M2697.727-4155.177a1556.5,1556.5,0,0,0-511.692,86.213c-184.12,64.147-323.386,150.84-413.959,257.666-285.573,336.826-267.053,1000.051-148.96,1203.571,49.44,85.187,121.333,182.106,279.773,255,179.053,82.386,439.039,122.96,794.838,124.066,773.251-2.387,976.9-192.52,1074.131-378.2,114.053-217.826,129.786-876.238-148.466-1204.437-90.573-106.84-229.853-193.519-413.972-257.666a1556.444,1556.444,0,0,0-511.692-86.213m.066,1971.875h-.133c-362.466-1.12-628.638-43.053-813.731-128.213-169.946-78.187-247.039-182.106-300.039-273.439-68.333-117.76-100.746-347.266-82.573-584.679,12.333-161.119,59.413-462.532,236.159-671,95.866-113.093,241.773-204.333,433.625-271.172,339.6-118.307,713.652-118.307,1053.251,0,191.853,66.84,337.759,158.079,433.639,271.172,175.426,206.92,220.973,508.025,232.506,669.092,16.68,232.933-14.107,462.839-78.453,585.719-103.507,197.666-316.826,400.065-1114.25,402.519" fill="#6b184e"/><path d="M3612.525-4066.844s164.079-33.373,196.066,139.053-268.373,317.026-454.692,182.146-92.987-378.826-39.053-428.292c37.707-34.586,225.373-148.746,297.679,107.093" fill="#fccaca"/><path d="M3776.231-4008.03c-38.013-52.307-96.013-61.413-131.8-61.413a176.566,176.566,0,0,0-31.906,2.6c-.16-.573-.32-1.133-.48-1.707a196.735,196.735,0,0,1,48.4-6.16c37.507,0,86,11.587,116.826,62.92l-1.04,3.76" fill="#d26891"/><path d="M3484.1-3885.777c4.48-5.6,60.373-132.8,62.36-205.506,1.613-58.947-33.427-110.36-53.573-129.973,44.56,16.387,86.68,60.413,113.266,154.4,0,0,2.107-.707,5.893-1.693.16.573.32,1.133.48,1.707a176.573,176.573,0,0,1,31.906-2.6c35.787,0,93.787,9.107,131.8,61.413l-6.52,23.413c-28.853-25.493-58.373-35.507-87-35.507-102.987,0-194.119,129.707-198.613,134.346" fill="#d094a5"/><path d="M3452.832-4206.643c-56.133,0-109.453,37.32-122.653,49.426-25.88,23.747-69.347,113.96-63.84,209.226,4.453,76.866,38.387,138.759,100.853,183.986,105.159,76.107,244.159,53.16,328.826-.36,67.146-42.453,100.893-102,90.266-159.293-8.507-45.853-27.96-79.386-57.826-99.667-48.747-33.107-110.853-21.4-111.48-21.266l-20.52,4.026-5.76-20.107c-22.72-80.426-58.653-128.133-106.8-141.786A113.451,113.451,0,0,0,3452.832-4206.643Zm70.707,536.6c-62.466,0-126.72-16.52-182.946-57.227-73-52.84-114.333-128.253-119.533-218.093-6.227-107.386,41.56-211.44,78.453-245.28,25.773-23.653,111.4-79.679,196.773-55.453,60.08,17.053,104.573,68.986,132.426,154.506,28.027-1.92,79.507-.107,124.8,30.427,40.506,27.32,66.546,70.8,77.386,129.24,14.12,76.187-27.227,153.173-110.64,205.906-52.48,33.173-123.373,55.96-196.72,55.973" fill="#6b184e"/><path d="M2036.422-3745.617c-186.333,134.853-486.706-9.733-454.719-182.173,5.2-28.04,13.88-50.68,24.813-68.84,56.2-93.6,171.24-70.226,171.24-70.226,26.6-93.987,68.72-138.013,113.28-154.4,76.666-28.24,160.586,25.467,184.413,47.32,53.893,49.493,147.293,293.4-39.027,428.319" fill="#fccaca"/><path d="M2129.035-3863.391c15.627-40.52,19.987-82.866,17.373-123h0c2.613,40.133-1.747,82.479-17.373,123" fill="#fee5e5"/><path d="M2146.408-3986.39a365.463,365.463,0,0,0-10.107-64.28h0a365.441,365.441,0,0,1,10.107,64.28h0" fill="#fff2f2"/><path d="M2122.715-4094.043c-14.227-37.32-32.28-66.134-47.267-79.893-2.013-1.854-4.453-3.92-7.293-6.16,2.84,2.24,5.28,4.307,7.293,6.16,14.987,13.76,33.04,42.573,47.267,79.893h0" fill="#ffc5d7"/><path d="M2136.3-4050.67a376.444,376.444,0,0,0-13.587-43.373h0a376.444,376.444,0,0,1,13.587,43.373h0" fill="#b58ca7"/><path d="M1865.875-3692.551a346.064,346.064,0,0,1-69.373-7.134c1.813.027,3.64.04,5.467.04,59.293,0,119.266-15.92,170.586-53.066,186.333-134.92,92.933-378.826,39.027-428.332-13.667-12.534-47.16-35.547-87.693-47.56,4.52-.427,9.027-.626,13.507-.626,55,0,106.8,30.253,130.76,49.133,2.84,2.24,5.28,4.307,7.293,6.16,14.987,13.76,33.04,42.573,47.267,79.893a376.509,376.509,0,0,1,13.587,43.373,365.467,365.467,0,0,1,10.107,64.28c2.613,40.133-1.747,82.48-17.373,123-16.533,42.933-45.72,83.813-92.627,117.773-51.307,37.133-111.253,53.066-170.533,53.066" fill="#fee5e5"/><path d="M1609.516-4001.444l-2.88-10.347c30.827-51.333,79.333-62.92,116.826-62.92a188.484,188.484,0,0,1,54.293,7.853,175.72,175.72,0,0,0-31.853-2.6c-37.24,0-98.573,9.854-136.386,68.013" fill="#d26891"/><path d="M1899.809-3885.777c-4.48-4.64-95.613-134.346-198.6-134.346-28.627,0-58.147,10.013-87,35.507l-4.693-16.826c37.813-58.16,99.146-68.013,136.386-68.013a175.735,175.735,0,0,1,31.853,2.6h0c26.6-93.986,68.72-138.013,113.28-154.4-20.147,19.613-55.2,71.027-53.573,129.973,1.987,72.707,57.88,199.906,62.347,205.506" fill="#d094a5"/><path d="M1745.969-4046.71c-22.68,0-55.693,4.053-84.146,23.386-29.866,20.28-49.32,53.813-57.813,99.667-10.64,57.293,23.107,116.84,90.253,159.293,84.653,53.533,223.666,76.466,328.826.36,62.467-45.226,96.4-107.12,100.853-183.973,5.52-95.266-37.947-185.492-63.826-209.24-15.64-14.347-87.506-64.026-153.733-45.253-48.133,13.667-84.067,61.374-106.8,141.8l-5.72,20.254-20.573-4.187a160.642,160.642,0,0,0-27.32-2.107Zm120.786,376.666c-73.373,0-144.253-22.8-196.733-55.974-83.413-52.746-124.76-129.72-110.626-205.906,10.84-58.44,36.88-101.92,77.386-129.226,45.28-30.546,96.786-32.347,124.786-30.44,27.853-85.52,72.346-137.467,132.44-154.507,85.4-24.267,170.986,31.8,196.773,55.454,36.88,33.84,84.667,137.893,78.453,245.279-5.213,89.84-46.546,165.253-119.546,218.093-56.213,40.693-120.48,57.227-182.933,57.227" fill="#6b184e"/><path d="M2100.328-3036.113c-9.787-23.44-14.013-49.467-12.853-75.933,1.227-26.413,8.12-53.693,22.493-78.453,14.24-24.653,36.453-46.413,62.96-59.453,26.387-13.44,55.467-18.32,82.893-18.387,27.453.546,56.253,6.107,82.266,19.667,3.24,1.707,6.56,3.213,9.627,5.2l9.026,6.307c2.933,2.187,6.08,4.093,8.773,6.547l8.04,7.44c5.507,4.813,9.934,10.547,14.44,16.16,4.8,5.4,8.16,11.693,11.88,17.707,14.173,24.453,20.987,51.4,22.52,77.546a189.018,189.018,0,0,1-11.08,75.653,11.478,11.478,0,0,1-14.747,6.787,11.487,11.487,0,0,1-7.493-10.56v-.293c-.373-22.667-3.24-44.546-9.24-64.813-5.893-20.24-15.013-38.667-26.787-53.493A106.854,106.854,0,0,0,2310.3-3191.1c-16.413-6.933-34.96-9.746-54.48-9.8-19.547.533-37.826,4.026-53.867,11.08a108.928,108.928,0,0,0-41.56,32.507c-11.573,14.533-20.627,32.64-26.813,52.6-6.253,20.013-9.613,41.693-11.013,64.533l-.013.32a11.575,11.575,0,0,1-12.267,10.84,11.563,11.563,0,0,1-9.96-7.094" fill="#6b184e"/><path d="M2992.633-3036.113c-9.773-23.44-14-49.467-12.84-75.933,1.24-26.413,8.12-53.693,22.493-78.453,14.24-24.653,36.453-46.413,62.96-59.453,26.387-13.44,55.466-18.32,82.893-18.387,27.453.546,56.253,6.107,82.266,19.667,3.24,1.707,6.56,3.213,9.627,5.2l9.026,6.307c2.934,2.187,6.08,4.093,8.773,6.547l8.04,7.44c5.507,4.813,9.933,10.547,14.44,16.16,4.8,5.4,8.16,11.693,11.88,17.707,14.174,24.453,20.987,51.4,22.52,77.546a189.018,189.018,0,0,1-11.08,75.653,11.478,11.478,0,0,1-14.747,6.787,11.487,11.487,0,0,1-7.493-10.56v-.293c-.373-22.667-3.24-44.546-9.24-64.813-5.893-20.24-15.013-38.667-26.787-53.493a106.854,106.854,0,0,0-42.747-32.613c-16.413-6.933-34.96-9.746-54.48-9.8-19.547.533-37.827,4.026-53.867,11.08a108.927,108.927,0,0,0-41.56,32.507c-11.573,14.533-20.626,32.64-26.813,52.6-6.24,20.013-9.6,41.693-11.013,64.533l-.027.32a11.555,11.555,0,0,1-12.253,10.84,11.6,11.6,0,0,1-9.973-7.094" fill="#6b184e"/><path d="M2056.528-1497.543s-295.879-338.519-470.652-49.88v328.639H3769.244l-26.907-328.639c-174.773-288.639-470.652,49.88-470.652,49.88H2056.528" fill="#fccaca"/><path d="M1691.209-1400.89a383.487,383.487,0,0,0-18.8-36.84q-7.22-17.42-15.547-34.573c-5.8-12.213-13.413-26.64-22.813-38.827a224.072,224.072,0,0,0-25.493-28.227V-1541c38.587-61.307,85.946-94.826,140.84-99.64,4.893-.427,9.773-.627,14.693-.627,85.333,0,172.413,62.92,225.186,109.52-67.906-38.187-120.4-53.08-160.906-53.08-142.493,0-137.16,183.933-137.16,183.933" fill="#fee5e5"/><path d="M3633.631-1400.89s5.333-183.933-137.16-183.933c-27.173,0-59.746,6.707-98.72,22.627a215.638,215.638,0,0,0,15.92-26.533c45.267-28.973,98.173-52.533,150.507-52.533,4.84,0,9.72.2,14.546.627,55.173,4.8,102.746,38.6,141.453,100.466l.24,3.027q-6.66,6.24-12.84,13.013c-8.947,10.4-17.333,21.36-23.933,33.6-3.667,6.147-6.174,11.667-9.067,17.387-.44.906-.867,1.813-1.307,2.707a418.7,418.7,0,0,0-39.64,69.546" fill="#fee5e5"/><path d="M3793.857-1196.1H1563.2v-357.652l3.28-5.427c47.107-77.786,107.36-120.4,179.066-126.653,162.213-14.147,321.359,165.706,328.066,173.36a22.684,22.684,0,0,1-2.147,32,22.684,22.684,0,0,1-32-2.133c-1.493-1.707-150.88-170.293-290.066-158.026-54.893,4.813-102.253,38.333-140.84,99.64v299.533H3744.631l-24.453-298.706c-38.707-61.867-86.28-95.666-141.453-100.466-139.44-12.133-288.466,156.32-289.959,158.026a22.685,22.685,0,0,1-32,2.147,22.675,22.675,0,0,1-2.146-32.013c6.68-7.653,165.933-187.506,328.052-173.36,71.707,6.253,131.96,48.867,179.066,126.653l2.76,4.573,29.36,358.506" fill="#6b184e"/><path d="M3621.7-1312.9s42.48-102.24,75.92-161.973c73.826-131.813,344.2-178.853,342.519,138.346-.64,118.96-46.24,206.706-102.973,269.933C3854.55-974.558,3735.244-924,3611.578-924H1716.649c-123.68,0-242.973-50.56-325.586-142.6-56.746-63.227-102.346-150.973-102.978-269.933-1.688-317.2,268.685-270.159,342.511-138.346,33.44,59.733,75.92,161.973,75.92,161.973H3621.7" fill="#fccaca"/><path d="M1665.7-1367.61c-52.973-69.733-130.586-131.733-207-131.733a136.6,136.6,0,0,0-22.2,1.8c-62.44,10.32-104.028,71.187-122.694,105.133.115-.813.243-1.613.387-2.413,3.041-25.627,9.1-50.533,18.824-73.173,9.591-22.693,23.7-42.533,41.564-57.173,1.12-.92,2.173-1.907,3.32-2.787l3.587-2.4c2.4-1.573,4.72-3.267,7.16-4.8,5.147-2.52,9.973-5.693,15.453-7.547,10.507-4.627,21.947-7.2,33.52-8.6a107.768,107.768,0,0,1,14.4-.893c6.973,0,14.013.533,21,1.213a199.526,199.526,0,0,1,35.16,8.213,208.622,208.622,0,0,1,63.6,35.013,187.684,187.684,0,0,1,25.8,25.227,143.667,143.667,0,0,1,10.52,14.373c3.346,4.52,6.8,10.813,10.173,16.36,15.96,27.506,31.427,55.866,47.426,84.187" fill="#fee5e5"/><path d="M3656.484-1356.17s2.12-5.88,6.12-15.733c12.28-22.627,24.533-45.146,37.093-67.253l9.093-15.68c3.067-5.067,6.146-10.56,9.227-14.76,5.773-9.173,13.4-17.187,20.76-25.227,15.613-15.52,34.187-28.133,53.934-38.013a196.975,196.975,0,0,1,62.773-18.053c5.053-.507,10.107-.747,15.12-.747a145.491,145.491,0,0,1,46.987,7.68,123.8,123.8,0,0,1,50.2,34.56c13.826,15.667,24.253,35.093,31.72,56.106a295.688,295.688,0,0,1,12.88,53.12c-20.387-34.733-60.36-87.8-118.293-97.373a136.444,136.444,0,0,0-22.187-1.8c-80.573,0-162.48,68.933-215.426,143.173" fill="#fee5e5"/><path d="M3614.711-1315.81c6.933-24,15.133-47.4,23.653-70.8,8.64-23.333,17.974-46.44,28.227-69.373,2.493-5.773,5.254-11.453,7.987-17.16,2.893-5.72,5.4-11.24,9.066-17.387,6.6-12.24,14.987-23.2,23.933-33.6a235.766,235.766,0,0,1,64.387-49.787c24.227-12.413,50.586-21.213,78.213-24.627,27.587-3.094,56.626-1.013,83.866,8.667a172.713,172.713,0,0,1,70.346,48.573c18.813,21.453,31.813,46.6,40.4,72.16,8.64,25.627,13.32,51.746,16.12,77.693.947,12.96,2.146,25.947,2.093,38.813.053,6.453.386,12.88.187,19.347l-.64,19.44c-2.92,51.786-14.813,103.533-36.08,151.306-42.6,95.706-121.293,173.039-215.453,216.879-46.907,22.347-97.707,35.893-149.173,41.64-25.707,2.733-52.2,2.813-76.333,2.707H2623.18v-45.36h342.813v45.36h-1232.7c-2.467-.013-4.88,0-7.293,0-4.387.013-8.787.04-13.453-.093-7.187-.213-14.387-.293-21.56-.627l-21.507-1.653-21.413-2.68a469.718,469.718,0,0,1-162.56-55.586,449.877,449.877,0,0,1-130.4-112.28,415.04,415.04,0,0,1-76.411-154.733,445.09,445.09,0,0,1-12.655-85.573l-.631-21.547.448-21.44c0-7.146.592-14.32,1.207-21.507.675-7.187.892-14.36,2.136-21.547,3.456-28.733,10.276-57.68,22.192-85.427,11.668-27.76,29.992-53.987,54.3-74.36,1.507-1.28,2.973-2.613,4.533-3.84l4.88-3.413c3.267-2.253,6.493-4.6,9.853-6.72,7-3.76,13.787-8.027,21.253-10.8,14.547-6.56,30.093-10.173,45.586-12.48,15.573-2.387,31.187-1.96,46.573-.733a227.491,227.491,0,0,1,44.946,9.52,226.983,226.983,0,0,1,41.787,18.24c6.747,3.507,13.04,7.827,19.413,11.973,6.053,4.627,12.373,8.88,18.013,14.053,11.827,9.667,22.067,21.28,31.52,33.44,9.4,12.187,17.013,26.613,22.813,38.827,6.173,12.667,11.827,25.413,17.08,38.293,5.373,12.8,10.333,25.76,15.027,38.773,9.373,26.08,17.907,52.347,24.533,79.427a7.653,7.653,0,0,1-5.613,9.253,7.626,7.626,0,0,1-8.32-3.4l-.04-.053c-28.987-46.867-54.413-95.52-81.253-141.786-3.373-5.547-6.827-11.84-10.173-16.36a143.656,143.656,0,0,0-10.52-14.373,187.676,187.676,0,0,0-25.8-25.227,208.62,208.62,0,0,0-63.6-35.013,199.536,199.536,0,0,0-35.16-8.213c-11.84-1.147-23.8-1.88-35.4-.32-11.573,1.4-23.013,3.973-33.52,8.6-5.48,1.853-10.307,5.027-15.453,7.547-2.44,1.533-4.76,3.227-7.16,4.8l-3.587,2.4c-1.147.88-2.2,1.867-3.32,2.787-17.867,14.64-31.973,34.48-41.564,57.173-9.723,22.64-15.783,47.546-18.824,73.173-1.131,6.307-1.291,12.867-1.905,19.32-.56,6.467-1.113,12.933-1.1,19.506l-.421,19.64.571,19.52a399.4,399.4,0,0,0,11.335,76.76A369.211,369.211,0,0,0,1390.8-1102.25a404.405,404.405,0,0,0,117.133,100.867,424.916,424.916,0,0,0,146.68,50.133l19.36,2.427,19.453,1.493,19.506.56c4.147.12,8.573.107,13,.093,2.467-.013,4.933-.013,7.36,0h1232.7v45.36H2623.18v-45.36h962.331c25.2.093,48.133-.013,71.533-2.453,46.533-5.227,92.44-17.44,134.693-37.586a404.813,404.813,0,0,0,114.24-79.973c33.013-33.08,60.2-71.906,79.053-114.306,19.053-42.4,29.026-88.56,31.427-135.266l.44-17.56c.147-5.867-.227-11.773-.32-17.653.027-11.84-1.333-23.427-2.293-35.053-2.84-23.04-7.32-45.68-14.773-66.76-7.466-21.013-17.893-40.44-31.72-56.106a123.8,123.8,0,0,0-50.2-34.56,147.223,147.223,0,0,0-62.106-6.933,196.971,196.971,0,0,0-62.773,18.053c-19.747,9.88-38.32,22.493-53.933,38.013-7.36,8.04-14.987,16.053-20.76,25.227-3.08,4.2-6.16,9.693-9.227,14.76l-9.093,15.68c-24.013,42.267-46.893,86.04-71.027,129.146a7.592,7.592,0,0,1-10.333,2.973,7.651,7.651,0,0,1-3.627-8.773" fill="#6b184e"/><path d="M3595.831-946.651q-5.1,0-10.32-.027H1733.289c-1.067-.013-2.133-.013-3.213-.013-1.373,0-2.76.013-4.147.013-1.413,0-2.813.013-4.227.013-2.987,0-5.947-.027-8.773-.107l-19.506-.56-19.453-1.493-19.36-2.427a424.918,424.918,0,0,1-146.68-50.133A404.405,404.405,0,0,1,1390.8-1102.251a373.161,373.161,0,0,1-45.08-73.16c32.32,48.48,86.08,103.666,165.76,110.76,7.013.613,13.88.92,20.533.92,141.12,0,202.373-133.76,202.373-133.76s17.76,152.773,247.333,171.933c51.893,4.333,686.385,17.173,686.385,17.173,221.146-11.8,632.865-14.2,668.692-17.173,229.573-19.16,210.333-202.76,210.333-202.76s99.026,145.293,216.666,145.293c145.92,0,207.853-77.093,232.626-126.826q-5.04,14.68-11.387,28.853c-18.854,42.4-46.04,81.226-79.053,114.306a404.816,404.816,0,0,1-114.24,79.973c-42.253,20.147-88.16,32.36-134.693,37.587-20.16,2.107-39.987,2.48-61.213,2.48" fill="#d094a5"/><path d="M3623.844-925.2h-1929.2c-118.373,0-232.506-44.627-311.559-125.88-45.84-47.08-84.033-109.506-95.236-190.866,12.167-5.787,19.071-9.027,19.071-9.027s12.083,35.493,38.792,75.56a373.177,373.177,0,0,0,45.08,73.16,404.406,404.406,0,0,0,117.133,100.866,424.916,424.916,0,0,0,146.679,50.133l19.36,2.427,19.453,1.493,19.507.56c2.827.08,5.787.107,8.773.107,1.413,0,2.813-.013,4.227-.013,1.387,0,2.773-.013,4.146-.013,1.08,0,2.147,0,3.213.013H3585.511q5.22.02,10.32.027c21.226,0,41.053-.373,61.213-2.48,46.533-5.227,92.44-17.44,134.693-37.587a404.815,404.815,0,0,0,114.24-79.973c33.013-33.08,60.2-71.906,79.053-114.306q6.36-14.16,11.387-28.853c11.786-23.653,15.16-41.12,15.16-41.12s6.906,3.24,19.08,9.027c-11.213,81.36-49.413,143.786-95.24,190.866-79.053,81.253-193.186,125.88-311.572,125.88" fill="#6b184e"/><path d="M3300.3-1648.743l-36.387,19.56a1240.948,1240.948,0,0,1-1176.557,0l-36.387-19.56s46.16-115.92,114.266-275.533c97.133-227.533,238.773-543.945,354.586-739.785,63.653-107.68,119.507-178.946,155.786-178.946,36.333,0,92.187,71.213,155.84,178.893,116.306,196.679,258.666,514.932,355.786,742.745,67.44,158.106,113.066,272.626,113.066,272.626" fill="#fdd800"/><path d="M2217.794-1977.449c-2.12-1.787-4.187-3.613-6.24-5.467,27.16-62.8,56.813-130.133,87.72-198.306.627,5.24,1.48,10.387,2.573,15.48-29.346,64.146-57.693,127.906-84.053,188.293m157.626-367.572c24.133-50.493,46.453-95.72,67.053-136.173q5.08,2.26,10.307,4.053c-20.493,39.2-41.307,80.587-62.107,123.133a169.329,169.329,0,0,0-15.253,8.987" fill="#feec80"/><path d="M2551.954-1849.822a160.173,160.173,0,0,1-30.146-2.627s1.413-4.427,4.48-11.347a175.171,175.171,0,0,0,25.626,1.84c18.067,0,41.693-2.707,63.52-13.667a111.674,111.674,0,0,0,15.693-7.506c18.333-10.64,31.987-25.987,41.733-40.36-9.387,17.746-25.96,41.933-51.64,56.88-23.36,13.56-49.613,16.787-69.267,16.787" fill="#fee659"/><path d="M2621.207-1878.742c-44.453,25.827-99.413,14.173-99.413,14.173s17.107-53.52,61.547-79.346,99.413-14.16,99.413-14.16-17.107,53.506-61.546,79.333" fill="#44bf11"/><path d="M2625.3-1881.222a.185.185,0,0,0,.04-.053c41.053-26.413,57.16-76.013,57.413-76.8h.013s-16.053,50.213-57.467,76.853m-64.333-45.6a118.741,118.741,0,0,1,18.013-14.413,118.729,118.729,0,0,0-18.013,14.413m18.067-14.44c.053-.04.12-.08.173-.12-.053.04-.12.08-.173.12m.333-.227c.04-.013.067-.04.107-.053-.04.013-.067.04-.107.053m11.773-6.533a124.84,124.84,0,0,1,26.546-9.013,124.6,124.6,0,0,0-26.546,9.013m26.746-9.053c.027,0,.053-.013.08-.013-.027,0-.053.013-.08.013" fill="#fee659"/><path d="M2625.34-1881.275a171.474,171.474,0,0,0,27.027-48.813,160.362,160.362,0,0,0-30.147-2.627c-19.653,0-45.893,3.213-69.24,16.786-1.387.787-2.747,1.64-4.093,2.48a141.756,141.756,0,0,1,12.08-13.373,118.767,118.767,0,0,1,18.013-14.413c.013-.013.026-.013.053-.027.053-.04.12-.08.174-.12s.107-.067.16-.107c.04-.013.067-.04.107-.053,1.267-.813,2.56-1.613,3.88-2.373,2.56-1.493,5.16-2.853,7.787-4.107a124.594,124.594,0,0,1,26.547-9.013l.2-.04c.027,0,.053-.013.08-.013a161.6,161.6,0,0,1,34.64-3.613,160.6,160.6,0,0,1,30.146,2.627c-.253.787-16.36,50.387-57.413,76.8" fill="#85d564"/><path d="M2543.754-1877.329c18.053.88,46-.667,69.84-14.52s39.013-37.347,47.2-53.48c-18.067-.88-46,.68-69.84,14.52S2551.94-1893.449,2543.754-1877.329Zm8.12,30.547a174.046,174.046,0,0,1-33.227-2.96,15.232,15.232,0,0,1-9.96-7.213,15.165,15.165,0,0,1-1.32-12.226c.76-2.413,19.44-59.413,68.373-87.827,48.92-28.44,107.667-16.427,110.16-15.893a15.145,15.145,0,0,1,9.96,7.213,15.16,15.16,0,0,1,1.32,12.227c-.76,2.4-19.44,59.4-68.36,87.826-26.213,15.227-55.266,18.853-76.947,18.853" fill="#6b184e"/><path d="M2315.821-1946.635c-23.587-43.893-10.547-96.773-10.547-96.773s51.32,18.28,74.907,62.173,10.547,96.773,10.547,96.773-51.307-18.28-74.906-62.173" fill="#44bf11"/><path d="M2393.341-1943.089l-.2-.36c-.293-.56-.6-1.107-.907-1.667a117.564,117.564,0,0,0-12.053-36.12c-23.587-43.893-74.906-62.173-74.906-62.173s-.267,1.107-.667,3.133c.013-2.32.08-4.56.173-6.72.293-1.493.493-2.293.493-2.293s51.32,18.293,74.92,62.187c7.76,14.44,11.533,29.84,13.146,44.013m-91.64-68.533c-.026-1.987-.026-3.933.013-5.827.013.96.04,1.92.067,2.893-.027.973-.053,1.947-.08,2.933" fill="#fee659"/><path d="M2392.234-1945.115c-23.987-42.693-74.013-60.506-74.013-60.506a144.42,144.42,0,0,0-3.027,20.933c-8.44-19.12-10.667-39.267-10.587-55.587.4-2.027.667-3.133.667-3.133s51.32,18.28,74.906,62.173a117.555,117.555,0,0,1,12.053,36.12m-76.6-7.76c-10.467-19.667-13.627-41.093-13.933-58.747.026-.987.053-1.96.08-2.933.587,16.707,3.813,36.373,13.213,54.626.16,2.307.373,4.667.64,7.053" fill="#85d564"/><path d="M2301.714-2017.448a162.019,162.019,0,0,1,3.56-37.72l.053.027c-.227,2.533-.427,5.253-.547,8.147a166.482,166.482,0,0,0-3.067,29.547" fill="#d19e18"/><path d="M2390.728-1896.209s-51.32-18.28-74.906-62.173c-.28-.52-.56-1.027-.827-1.547a169.315,169.315,0,0,1,.2-24.76q1.62,3.68,3.56,7.307c23.227,43.213,73.32,61.626,74.866,62.173a142.535,142.535,0,0,1-2.893,19" fill="#508d23"/><path d="M2301.781-2014.555c-.026-.973-.053-1.933-.067-2.893a166.482,166.482,0,0,1,3.067-29.547c-.093,2.16-.16,4.4-.173,6.72a168.71,168.71,0,0,0-2.827,25.72" fill="#d2a856"/><path d="M2314.994-1959.929c-9.4-18.253-12.626-37.92-13.213-54.626a168.708,168.708,0,0,1,2.827-25.72c-.08,16.32,2.146,36.467,10.587,55.587a169.317,169.317,0,0,0-.2,24.76" fill="#7d9c5d"/><path d="M2316.941-2021.715c-1.44,17.453-.826,44.6,11.827,68.12s34.947,39,50.306,47.453c1.427-17.467.827-44.6-11.826-68.133s-34.947-39-50.307-47.44Zm73.787,151.946a14.6,14.6,0,0,1-4.934-.853c-2.306-.827-56.933-20.733-82.906-69.053s-12.453-104.866-11.867-107.253a14.662,14.662,0,0,1,7.307-9.413,14.684,14.684,0,0,1,11.88-.907c2.32.827,56.946,20.747,82.906,69.067,25.987,48.32,12.467,104.853,11.88,107.24a14.762,14.762,0,0,1-7.307,9.427,14.763,14.763,0,0,1-6.96,1.747" fill="#6b184e"/><path d="M2690.367-2176.621a141.326,141.326,0,0,1,2.467-18.773c2.747-.32,6.613-.867,11.32-1.76-.974,3.4-1.773,6.64-2.44,9.653-.787,3.627-1.387,6.92-1.813,9.773-5.947.893-9.533,1.106-9.533,1.106m117.8-79.426a139.41,139.41,0,0,0,4.467-26.613h0v-.013s-1.213.08-3.387.32a179.211,179.211,0,0,0,7.2-26.493c2.88-.36,4.507-.453,4.507-.453a171.758,171.758,0,0,1-12.787,53.253" fill="#fee659"/><path d="M2732.22-2247.848c31.467-31.973,80.413-34.826,80.413-34.826s-2.067,48.987-33.533,80.96-80.413,34.813-80.413,34.813,2.067-48.973,33.533-80.947" fill="#44bf11"/><path d="M2704.153-2197.155c4.187-14.653,11.6-32.227,24.573-46.947-12.973,14.72-20.373,32.293-24.573,46.947h0" fill="#fee659"/><path d="M2701.713-2187.5c.667-3.013,1.467-6.253,2.44-9.653h0c-.974,3.4-1.773,6.64-2.44,9.653" fill="#feef93"/><path d="M2803.006-2239.981a.046.046,0,0,0,.013-.027,148.54,148.54,0,0,0,5.133-16,.048.048,0,0,0,.013-.04,147.838,147.838,0,0,1-5.16,16.067" fill="#fee659"/><path d="M2808.153-2256.008a141.268,141.268,0,0,0,4.48-26.653h0a139.407,139.407,0,0,1-4.467,26.613.049.049,0,0,1-.013.04" fill="#feef93"/><path d="M2728.873-2244.261l.027-.027c-.013,0-.013.013-.027.027" fill="#fee659"/><path d="M2700.38-2180.688c.374-2.107.8-4.386,1.333-6.813.667-3.013,1.467-6.253,2.44-9.653,4.2-14.653,11.6-32.226,24.573-46.947.053-.053.093-.107.147-.16.013-.013.013-.027.026-.027,1.067-1.213,2.174-2.387,3.32-3.546,31.293-31.813,79.893-34.8,80.413-34.827a141.255,141.255,0,0,1-4.48,26.654,148.558,148.558,0,0,1-5.133,16,120.384,120.384,0,0,0,1.667-13.8s-48.934,2.853-80.4,34.826c-11.386,11.573-18.92,25.387-23.906,38.293" fill="#85d564"/><path d="M2732.22-2247.848h0Zm64.867-19.027c-15.4,3.427-38.56,11.16-55.44,28.293s-24.227,40.427-27.413,55.893c15.4-3.427,38.573-11.16,55.44-28.307S2793.913-2251.421,2797.086-2266.875Zm-98.4,113.2a13.23,13.23,0,0,1-9.28-3.8,13.17,13.17,0,0,1-3.92-9.987c.08-2.2,2.68-54.467,37.307-89.667s86.866-38.613,89.08-38.747a13.214,13.214,0,0,1,10.04,3.787,13.172,13.172,0,0,1,3.933,9.973c-.093,2.213-2.68,54.48-37.32,89.667s-86.867,38.626-89.067,38.747a7.509,7.509,0,0,1-.773.027" fill="#6b184e"/><path d="M2723.767-2797.527a103.53,103.53,0,0,1,7.867-9.52c14.746,15.746,30.733,36.266,47.626,60.693-30.987,36.067-80.04,46.2-80.04,46.2s-5.827-55.893,24.547-97.373" fill="#44bf11"/><path d="M2732.42-2783.3c-13.374,21.2-17.253,46-18.213,62.653,12.933-4.92,30.613-13.493,45.466-27.213-9.56-13.4-18.68-25.253-27.253-35.44m-33.2,98.307a15.126,15.126,0,0,1-8.947-2.933,15.189,15.189,0,0,1-6.133-10.653c-.253-2.52-6.04-62.227,27.413-107.893a118.773,118.773,0,0,1,8.973-10.88,15.111,15.111,0,0,1,11.067-4.853h.04a15.153,15.153,0,0,1,11.066,4.8c14.84,15.854,31.333,36.867,49.027,62.44a15.148,15.148,0,0,1-.973,18.493c-33.96,39.52-86.253,50.707-88.467,51.16a14.973,14.973,0,0,1-3.067.32" fill="#6b184e"/><path d="M2316.261-2202.274a153.591,153.591,0,0,1,153.586-153.586,153.588,153.588,0,0,1,153.573,153.586,153.6,153.6,0,0,1-88.84,139.306,153.161,153.161,0,0,1-64.733,14.28,153.175,153.175,0,0,1-64.746-14.28,153.622,153.622,0,0,1-88.84-139.306" fill="#f2101c"/><path d="M2595.674-2251.608a153.384,153.384,0,0,0-125.84-65.507,153.417,153.417,0,0,0-125.8,65.467,135.593,135.593,0,0,1,125.813-85.346,135.607,135.607,0,0,1,125.826,85.386" fill="#f9888e"/><path d="M2469.847-2066.208A135.574,135.574,0,0,1,2345.3-2148.5a153.994,153.994,0,0,0,59.8,49.4,152.961,152.961,0,0,0,64.733,14.28,152.891,152.891,0,0,0,64.747-14.28,154.25,154.25,0,0,0,59.84-49.453,135.6,135.6,0,0,1-124.573,82.346" fill="#c9122b"/><path d="M2469.847-2336.994c-74.667,0-135.4,60.733-135.4,135.386s60.733,135.4,135.4,135.4,135.386-60.733,135.386-135.4-60.733-135.386-135.386-135.386m0,307.159c-94.72,0-171.773-77.053-171.773-171.773s77.053-171.76,171.773-171.76,171.76,77.053,171.76,171.76-77.053,171.773-171.76,171.773" fill="#6b184e"/><path d="M2469.847-2089.9a120.991,120.991,0,0,1-24.546-2.506,22.254,22.254,0,0,1-15.68-31.16l20.067-43.187a21.939,21.939,0,0,1,20.16-12.854,21.934,21.934,0,0,1,20.147,12.854l20.067,43.187a22.247,22.247,0,0,1-15.68,31.16,120.96,120.96,0,0,1-24.533,2.506" fill="#f54049"/><path d="M2469.847-2224.941a21.961,21.961,0,0,1-20.16-12.853l-20.067-43.2a22.238,22.238,0,0,1,15.68-31.146,120.043,120.043,0,0,1,24.546-2.52,120.013,120.013,0,0,1,24.533,2.52,22.231,22.231,0,0,1,15.68,31.146l-20.067,43.2a21.957,21.957,0,0,1-20.147,12.853" fill="#f54049"/><path d="M2381.781-2159.968a22.3,22.3,0,0,1-21.813-17.773,120.942,120.942,0,0,1-2.507-24.533,121.072,121.072,0,0,1,2.507-24.547,22.3,22.3,0,0,1,21.813-17.76,22.021,22.021,0,0,1,9.346,2.08l43.187,20.067c17.146,7.973,17.146,32.346,0,40.306l-43.187,20.08a22.221,22.221,0,0,1-9.346,2.08" fill="#f54049"/><path d="M2557.9-2159.968a22.219,22.219,0,0,1-9.346-2.08l-43.187-20.08c-17.147-7.96-17.147-32.333,0-40.306l43.187-20.067a22.021,22.021,0,0,1,9.346-2.08,22.286,22.286,0,0,1,21.813,17.76,121.072,121.072,0,0,1,2.507,24.547,120.942,120.942,0,0,1-2.507,24.533,22.3,22.3,0,0,1-21.813,17.773" fill="#f54049"/><path d="M2749.673-2013.2a153.588,153.588,0,0,1,153.586-153.573A153.588,153.588,0,0,1,3056.846-2013.2a153.608,153.608,0,0,1-88.84,139.306,152.976,152.976,0,0,1-64.747,14.28,153.023,153.023,0,0,1-64.746-14.28,153.607,153.607,0,0,1-88.84-139.306" fill="#f2101c"/><path d="M3029.1-2062.5a153.681,153.681,0,0,0-88.213-60.88,23.458,23.458,0,0,0-11.64-6.16,128.318,128.318,0,0,0-25.987-2.653,128.313,128.313,0,0,0-25.987,2.653,23.546,23.546,0,0,0-11.64,6.147,153.83,153.83,0,0,0-88.187,60.84,135.6,135.6,0,0,1,125.813-85.36A135.636,135.636,0,0,1,3029.1-2062.5" fill="#f9888e"/><path d="M2903.26-1877.115c-62.16,0-114.667-42.106-130.506-99.293a154.169,154.169,0,0,0,68.786,63.36,152.389,152.389,0,0,0,22.56,8.413,23.4,23.4,0,0,0,13.174,7.787,127.362,127.362,0,0,0,25.987,2.667,127.366,127.366,0,0,0,25.987-2.667,23.372,23.372,0,0,0,11.2-5.733,151.494,151.494,0,0,0,30.573-10.467,154.067,154.067,0,0,0,55.8-44.106,135.6,135.6,0,0,1-123.56,80.04" fill="#c9122b"/><path d="M2903.26-2147.915c-74.667,0-135.4,60.733-135.4,135.4s60.733,135.4,135.4,135.4,135.4-60.746,135.4-135.4-60.733-135.4-135.4-135.4m0,307.159c-94.707,0-171.76-77.053-171.76-171.76s77.053-171.76,171.76-171.76,171.773,77.04,171.773,171.76-77.053,171.76-171.773,171.76" fill="#6b184e"/><path d="M2906.286-1898.769a153.967,153.967,0,0,1-42.187-5.867,23.5,23.5,0,0,1-3.44-25.2l21.254-45.733a23.246,23.246,0,0,1,21.347-13.613,23.245,23.245,0,0,1,21.346,13.613l21.253,45.733a23.542,23.542,0,0,1-5.413,27.253,154.155,154.155,0,0,1-34.16,3.813" fill="#f54049"/><path d="M2903.26-1894.182a127.362,127.362,0,0,1-25.987-2.667,23.4,23.4,0,0,1-13.174-7.787,153.97,153.97,0,0,0,42.187,5.867,154.168,154.168,0,0,0,34.16-3.813,23.37,23.37,0,0,1-11.2,5.733,127.366,127.366,0,0,1-25.987,2.667" fill="#d44155"/><path d="M2903.26-2037.195a23.246,23.246,0,0,1-21.346-13.613l-21.253-45.733a23.546,23.546,0,0,1,4.974-26.853,154.108,154.108,0,0,1,37.613-4.64,153.6,153.6,0,0,1,37.64,4.653,23.522,23.522,0,0,1,4.973,26.84l-21.253,45.733a23.246,23.246,0,0,1-21.347,13.613" fill="#f54049"/><path d="M2940.886-2123.381a153.6,153.6,0,0,0-37.64-4.654,154.106,154.106,0,0,0-37.613,4.64,23.542,23.542,0,0,1,11.64-6.146,128.3,128.3,0,0,1,25.987-2.653,128.3,128.3,0,0,1,25.987,2.653,23.456,23.456,0,0,1,11.64,6.16" fill="#faa0a5"/><path d="M2810.006-1968.382a23.6,23.6,0,0,1-23.093-18.827,127.348,127.348,0,0,1-2.667-25.987,127.539,127.539,0,0,1,2.667-25.987A23.6,23.6,0,0,1,2810.006-2058a23.572,23.572,0,0,1,9.893,2.2l45.747,21.267c18.146,8.44,18.146,34.24,0,42.68L2819.9-1970.6a23.345,23.345,0,0,1-9.893,2.213" fill="#f54049"/><path d="M2996.513-1968.382a23.383,23.383,0,0,1-9.893-2.213l-45.747-21.253c-18.146-8.44-18.146-34.253,0-42.68l45.747-21.267a23.567,23.567,0,0,1,9.893-2.2,23.6,23.6,0,0,1,23.093,18.813,127.539,127.539,0,0,1,2.653,25.987,127.347,127.347,0,0,1-2.653,25.987,23.6,23.6,0,0,1-23.093,18.827" fill="#f54049"/><path d="M2717.1-2493.821c0-1.32.026-2.653.053-3.973q.04-1.72.12-3.44a153.6,153.6,0,0,1,125.04-144.226,3.528,3.528,0,0,1,.347.613c5.973,10.28,11.947,20.867,18.013,31.707,12.2,21.853,24.6,44.787,37.133,68.586q7.04,13.36,14.107,27.053c10.187,19.613,20.427,39.76,30.68,60.28,11.854,23.653,23.733,47.853,35.613,72.386a153.611,153.611,0,0,1-42.773,29.626,153.173,153.173,0,0,1-64.733,14.293,153.187,153.187,0,0,1-64.746-14.293,153.6,153.6,0,0,1-88.427-127.866c-.067-.8-.12-1.587-.16-2.387,0-.147-.027-.267-.027-.4-.093-1.853-.16-3.76-.213-5.64-.027-.773-.027-1.546-.027-2.32" fill="#f2101c"/><path d="M2737.087-2471.927a138.04,138.04,0,0,1-1.573-14.6c-.093-1.76-.174-3.533-.213-5.427l-.013-1.867c0-1.2.027-2.413.04-3.507a134.509,134.509,0,0,1,2.427-22.227q4.28,4.04,8.8,7.826a154.5,154.5,0,0,0-9.467,39.8" fill="#f9888e"/><path d="M2870.7-2358.448a135.326,135.326,0,0,1-118.573-69.987,153.589,153.589,0,0,0,48.733,35.8,152.546,152.546,0,0,0,36.667,11.72,23.68,23.68,0,0,0,7.187,2.76,127.361,127.361,0,0,0,25.987,2.653,127.562,127.562,0,0,0,25.987-2.653,23.507,23.507,0,0,0,11.733-6.253,154.311,154.311,0,0,0,21.92-8.227,152.9,152.9,0,0,0,17.773-9.747q3.46,7.08,7.026,14.4a134.536,134.536,0,0,1-84.44,29.533" fill="#c9122b"/><path d="M2833.62-2624.087c-56.187,15.987-96.787,67.426-98.293,126.76-.013,1.093-.04,2.307-.04,3.507l.013,1.867c.04,1.893.12,3.667.213,5.427a135.336,135.336,0,0,0,135.187,128.08,134.5,134.5,0,0,0,85.386-30.307c-10.44-21.48-20.24-41.346-29.76-60.333-10.56-21.146-20.84-41.346-30.56-60.04q-7.04-13.7-14.04-26.933c-12.773-24.24-25.187-47.187-36.933-68.213q-5.62-10.06-11.174-19.813m37.08,302.013a171.7,171.7,0,0,1-171.493-162.413c-.12-2.147-.213-4.4-.253-6.654-.027-.826-.027-1.747-.027-2.68,0-1.44.013-2.893.053-4.32,2.04-80.8,61.08-149.973,140.386-164.586a18.168,18.168,0,0,1,19.04,8.76q9,15.56,18.146,31.96c11.88,21.293,24.453,44.493,37.333,68.987q7.08,13.42,14.2,27.2c9.76,18.8,20.12,39.16,30.76,60.466,11.293,22.52,22.973,46.267,35.72,72.6.12.24.227.48.333.72.08.187.36.84.44,1.04a18.184,18.184,0,0,1-4.174,19.6,170.8,170.8,0,0,1-120.466,49.32" fill="#6b184e"/><path d="M2865.593-2378.341a153.441,153.441,0,0,1-28.066-2.573,23.553,23.553,0,0,1-9.427-30.226l21.253-45.747a23.22,23.22,0,0,1,8.56-9.907l11.733,1.067q6.44.4,12.974.4c.96,0,1.906,0,2.866-.013a23.425,23.425,0,0,1,6.547,8.453l21.253,45.747a23.482,23.482,0,0,1-4.867,26.733,153.322,153.322,0,0,1-42.826,6.067" fill="#f54049"/><path d="M2870.7-2375.5a127.361,127.361,0,0,1-25.987-2.653,23.685,23.685,0,0,1-7.187-2.76,153.463,153.463,0,0,0,28.066,2.573,153.324,153.324,0,0,0,42.827-6.067,23.509,23.509,0,0,1-11.733,6.253,127.56,127.56,0,0,1-25.987,2.653" fill="#d44155"/><path d="M2777.433-2449.7a23.591,23.591,0,0,1-23.08-18.813,127.447,127.447,0,0,1-2.667-25.987c0-4.267.213-8.467.613-12.626.307.24.626.48.933.707a192.3,192.3,0,0,0,55.92,29.16c6.773,2.187,13.64,4.107,20.52,5.68l-42.333,19.68a23.383,23.383,0,0,1-9.907,2.2" fill="#f54049"/><path d="M2075.4-1657.609l21.146,11.373c362.612,195.226,795.585,195.213,1158.2,0l21.12-11.36c-31.386-77.813-172.466-423.959-314.892-718.332-.12-.24-.227-.493-.347-.747-12.613-26.067-24.187-49.573-35.36-71.88-10.56-21.146-20.84-41.333-30.547-60.026q-7.04-13.7-14.04-26.92c-12.76-24.24-25.173-47.173-36.92-68.187q-9.02-16.14-17.853-31.453l-.187-.333-.174-.293c-22.52-38.987-43.44-72.479-62.2-99.546-16.747-24.2-32.16-43.88-45.853-58.493-25.88-27.653-38.587-29.813-41.853-29.813-18.893,0-100.026,42.253-350.519,585.865-117.813,255.666-223.133,514.225-249.719,580.145m600.239,196.546c-205.226,0-410.386-50.333-597.465-151.053l-36.4-19.56a19.385,19.385,0,0,1-8.813-24.253c1.187-2.987,120.747-302.439,256.973-598.052,80.133-173.919,150.333-312.6,208.626-412.2,101.786-173.893,148.093-196.186,177.08-196.186,20.987,0,43.28,13.373,70.146,42.066,14.973,16.013,31.613,37.187,49.413,62.934,19.306,27.84,40.746,62.133,63.707,101.893.28.453.533.893.773,1.333q8.9,15.36,17.92,31.56c11.88,21.293,24.453,44.507,37.346,69q7.1,13.42,14.2,27.213c9.76,18.8,20.133,39.173,30.787,60.48,11.28,22.52,22.974,46.28,35.72,72.613.12.253.24.507.347.76,161.293,333.413,320.719,732.6,322.306,736.585a19.373,19.373,0,0,1-8.813,24.24L3273.1-1612.1a1259.42,1259.42,0,0,1-597.466,151.04" fill="#6b184e"/><path d="M2251.461-1863.515c279.146,138,603.145,138,882.3,0,85.533-42.28,189.12-16.747,245.613,60.146h0c72.533,98.706,38.453,239.146-71.413,293.279a1391.379,1391.379,0,0,1-1230.7,0c-109.866-54.133-143.946-194.573-71.427-293.279h.013c56.493-76.893,160.08-102.426,245.613-60.146" fill="#f4912f"/><path d="M2692.607-1402.983a1390.617,1390.617,0,0,1-427.439-67.306c.827,0,1.64-.013,2.467-.013h.707l13.08-1.094,6.547-.573,6.533-1.053c17.44-2.293,34.72-7.32,51.387-13.907a189.8,189.8,0,0,0,42.386-23.733,1390.9,1390.9,0,0,0,304.333,33.707,1391.255,1391.255,0,0,0,299.879-32.707c24.84,10.893,53.96,17.013,87.04,17.013,27.12,0,56.933-4.12,89.146-13.08,48.72-13.52,92.44-35.053,131.213-60.773a144.66,144.66,0,0,0,47.187-35.133c3.813-3.16,7.587-6.36,11.28-9.573,12.227-10.667,23.813-21.627,34.72-32.667a178.615,178.615,0,0,1-14.707,39.08,194.853,194.853,0,0,1-70.386,58.32,1391.505,1391.505,0,0,1-615.372,143.493" fill="#cb6c38"/><path d="M2692.607-1712.116a989.924,989.924,0,0,1-238.733-29.24c-1.72-5.8-3.467-11.587-5.733-17.16q-2.48-6.72-5.253-13.293a1003.612,1003.612,0,0,0,249.719,31.627,1003.059,1003.059,0,0,0,220.279-24.52,264.191,264.191,0,0,0-11.04,30.2,989.752,989.752,0,0,1-209.24,22.387" fill="#f8bd82"/><path d="M2164.528-1864.515a177.437,177.437,0,0,0-143.08,72.626,177.357,177.357,0,0,0-29.427,147.48,176.832,176.832,0,0,0,93.8,116.933c385.626,189.986,827.958,189.973,1213.57,0a176.812,176.812,0,0,0,93.813-116.933,177.394,177.394,0,0,0-29.426-147.48,177.092,177.092,0,0,0-221.426-54.253c-285.813,141.28-613.665,141.293-899.478,0a176.386,176.386,0,0,0-78.346-18.373m528.079,517.265c-215,0-430.746-50.293-623.905-145.466a215.423,215.423,0,0,1-114.32-142.493,216.021,216.021,0,0,1,35.84-179.626,215.764,215.764,0,0,1,269.826-66.053c274.906,135.906,590.238,135.906,865.131,0a215.775,215.775,0,0,1,269.813,66.053,215.981,215.981,0,0,1,35.853,179.626,215.422,215.422,0,0,1-114.32,142.493c-193.173,95.173-408.906,145.466-623.919,145.466" fill="#6b184e"/><path d="M3299.885-1566.5a553.513,553.513,0,0,0,47.187-35.133,144.66,144.66,0,0,1-47.187,35.133" fill="#dd9f7d"/><path d="M2558.594-2462.3c-33.027-33.333-35.36-84.573-35.36-84.573s51.213,2.813,84.24,36.147,35.36,84.586,35.36,84.586-51.213-2.813-84.24-36.16" fill="#44bf11"/><path d="M2633.714-2467.887c0-.013-.013-.026-.027-.04a134.37,134.37,0,0,0-9.053-19.8.97.97,0,0,1-.04-.107,135.672,135.672,0,0,1,9.12,19.947m-9.413-20.44c-1.653-2.893-3.44-5.76-5.387-8.573h0c1.947,2.8,3.733,5.653,5.373,8.533a.049.049,0,0,0,.013.04" fill="#fee659"/><path d="M2633.687-2467.927c-1-1.347-2.053-2.667-3.133-3.987a145.633,145.633,0,0,0-5.92-15.813,134.4,134.4,0,0,1,9.053,19.8m-6.146-7.467c-.96-1.08-1.96-2.133-3-3.173a104.379,104.379,0,0,0-15.613-12.88q5.06-2.58,9.987-5.453c1.947,2.813,3.733,5.68,5.387,8.573,1.36,4.626,2.427,9,3.24,12.933" fill="#85d564"/><path d="M2624.594-2487.834c-.107-.173-.213-.36-.307-.533-.053-.146-.093-.28-.133-.426l.44.96" fill="#d19e18"/><path d="M2637.287-2437.207s-50.747-2.787-83.787-35.707q6.74-1.28,13.467-3c30.173,18.093,63.36,19.933,63.36,19.933a134.476,134.476,0,0,0-2.787-19.413c1.04,1.133,2.04,2.307,3.013,3.48a152.436,152.436,0,0,1,6.733,34.707" fill="#508d23"/><path d="M2624.634-2487.727c-.107-.2-.227-.4-.333-.6a.049.049,0,0,1-.013-.04c.093.174.2.36.307.533a.867.867,0,0,0,.04.107" fill="#d2a856"/><path d="M2630.553-2471.914c-.974-1.173-1.974-2.347-3.013-3.48-.813-3.933-1.88-8.307-3.24-12.933.107.2.227.4.333.6a145.633,145.633,0,0,1,5.92,15.813" fill="#7d9c5d"/><path d="M2568.42-2472.034c17.693,17.88,41.96,25.893,58.093,29.427-3.374-16.16-11.16-40.507-28.867-58.373s-41.973-25.893-58.093-29.427C2542.927-2514.248,2550.714-2489.9,2568.42-2472.034Zm74.413,59.733c-.253,0-.507-.013-.76-.027-2.307-.133-56.96-3.533-93.32-40.226s-39.24-91.387-39.347-93.693a13.861,13.861,0,0,1,4.093-10.453,13.736,13.736,0,0,1,10.493-3.987c2.307.12,56.96,3.52,93.306,40.226s39.253,91.386,39.346,93.693a13.8,13.8,0,0,1-4.08,10.453,13.856,13.856,0,0,1-9.733,4.013" fill="#6b184e"/><path d="M2390.7-2577.94c12.987,53.573,59.187,101.266,157.453,83.026,143.173-26.573,147.293-175.6,147.293-175.6s1.68,149.066,144.4,178c97.947,19.853,144.933-27.08,158.786-80.413l-.28-256.013-607.932-.587.28,251.586" fill="#fccaca"/><path d="M3005.953-2571.034c6.12,21.987-.92,45.267-15.533,62.88-6.854,9.253-16.107,16.573-25.68,22.933a147.751,147.751,0,0,1-15.307,7.827c-5.333,1.853-10.546,4.293-15.987,5.467a197.91,197.91,0,0,1-63.8,6.2l-15.427-1.413-15.04-2.493a232.638,232.638,0,0,1-30.027-7.627,192.307,192.307,0,0,1-55.92-29.16,185.955,185.955,0,0,1-43.133-46.28c-11.693-17.507-20.173-36.626-26.387-56.173a247.339,247.339,0,0,1-7.36-29.8c-.947-5.026-1.693-10.107-2.333-15.226l-.773-7.8c-.213-2.787-.4-4.973-.48-8.56l45.36.373c-.133,3.587-.36,5.773-.613,8.56l-.907,7.773c-.72,5.107-1.547,10.174-2.573,15.187a251.88,251.88,0,0,1-7.854,29.68c-6.546,19.44-15.346,38.413-27.32,55.72a185.69,185.69,0,0,1-43.88,45.573,192.47,192.47,0,0,1-56.387,28.24,233.29,233.29,0,0,1-30.16,7.133l-15.08,2.24-15.44,1.16c-20.693.907-42.36-.92-63.467-7.96-21.12-6.893-40.773-19.84-57.066-36.04-4.213-4-7.213-8.907-10.347-13.68-2.547-5.067-5.213-10.133-6.533-15.64a83.514,83.514,0,0,1-1.693-8.28,63.154,63.154,0,0,1-.12-8.56,43.138,43.138,0,0,1,4.667-17.374,9.857,9.857,0,0,1,13.213-4.413c.24.12.454.24.68.36l.8.493c10.6,6.4,16.374,12.48,21.96,18.2,2.413,3.053,5.16,5.667,7.227,8.68,2.56,2.587,4.32,5.787,6.693,8.44,1.147,1.36,2.173,2.854,3.24,4.307l3.667,3.947c2.28,2.84,5.413,4.747,8.213,7.04,3.093,1.92,6.267,3.733,9.533,5.4,3.507,1.293,6.654,3.213,10.387,4.133,14.307,4.787,30.374,6.373,46.827,5.64l12.44-.933,12.56-1.88a187.127,187.127,0,0,0,24.213-5.707,141.74,141.74,0,0,0,76.427-56.133c9.267-13.36,16.333-28.52,21.68-44.373a206.128,206.128,0,0,0,6.44-24.333c.84-4.12,1.507-8.253,2.093-12.373l.72-6.093c.187-1.867.374-4.32.413-5.387l45.346.374c.027,1.067.174,3.533.333,5.387l.613,6.12c.52,4.12,1.12,8.267,1.893,12.386a201.465,201.465,0,0,0,6.04,24.454c5.08,15.933,11.894,31.213,20.947,44.72a141.835,141.835,0,0,0,75.48,57.387,188.335,188.335,0,0,0,24.12,6.093l12.52,2.093,12.427,1.134c16.413.987,32.653-.147,46.693-5.587,14.173-5.253,25.387-13.587,36.133-23.12,10.826-9.813,19.974-21.346,35.987-35.133l.547-.467a8.724,8.724,0,0,1,12.307.92,8.977,8.977,0,0,1,1.787,3.347" fill="#6b184e"/><path d="M2972.9-2763.18c0,98.36-123.2,178.093-275.173,178.093s-275.173-79.733-275.173-178.093,123.2-217.28,275.173-217.28S2972.9-2861.54,2972.9-2763.18" fill="#ff6982"/><path d="M2439.381-2829.486h0c38.68-78.547,139.746-150.973,258.346-150.973,73.56,0,140.373,27.867,189.746,67.773-49.374-39.906-116.187-67.773-189.746-67.773-118.6,0-219.666,72.427-258.346,150.973" fill="#fee5e5"/><path d="M2431.594-2811.286a186.144,186.144,0,0,1,7.787-18.2h0c-2.773,5.64-5.227,11.32-7.346,16.987-.147.4-.293.8-.44,1.213" fill="#fee5e5"/><path d="M2972.846-2759.86c.04-1.107.053-2.227.053-3.346,0-2.627-.094-5.28-.267-7.947.173,2.68.267,5.333.267,7.973,0,1.107-.013,2.213-.053,3.32m-.213-11.36a.543.543,0,0,1-.013-.147.543.543,0,0,0,.013.147m-.027-.32v0m-6.267-32.44a172.291,172.291,0,0,0-7.92-20.493,149.612,149.612,0,0,1-10.013,16.373c-43.24-72.906-139.213-136.879-250.68-136.879S2490.3-2881.006,2447.048-2808.1a149.539,149.539,0,0,1-10.013-16.373q-2.74,5.96-5,11.974c2.12-5.667,4.573-11.347,7.347-16.987,38.68-78.546,139.746-150.973,258.346-150.973,73.56,0,140.373,27.866,189.746,67.773,38.8,31.347,66.813,70.146,78.867,108.706" fill="#ffb4c1"/><path d="M2479.287-2654.86c-35.587-30.013-56.733-67.573-56.733-108.346,0-15.667,3.133-31.907,9.04-48.08-5.893,16.174-9.04,32.4-9.04,48.107,0,.84.013,1.667.026,2.507.854,39.787,21.854,76.413,56.707,105.813m492.625-123.853a.368.368,0,0,1-.013-.12.368.368,0,0,0,.013.12m-.027-.227c-.013-.08-.026-.16-.04-.24l.04.24m-.04-.24a144.612,144.612,0,0,0-4.733-22.267,144.612,144.612,0,0,1,4.733,22.267" fill="#d094a5"/><path d="M2697.727-2585.1c-89.013,0-168.146-27.347-218.44-69.76-34.853-29.4-55.853-66.026-56.707-105.813a119.865,119.865,0,0,0,1.32,15.027c2.987-20.707,10.987-41.934,23.146-62.453,43.307,61.64,139.266,104.533,250.679,104.533S2905.1-2746.46,2948.406-2808.1c12.174,20.52,20.16,41.746,23.146,62.453a114.618,114.618,0,0,0,1.293-14.214c-2.746,96.853-124.88,174.76-275.119,174.76m274.906-186.053v0m-.013-.213c0-.067-.013-.107-.013-.174,0,.053.013.12.013.174m-.013-.24a141.773,141.773,0,0,0-6.267-32.373c.267.84.52,1.693.773,2.533a144.6,144.6,0,0,1,4.733,22.266h0l.04.24a.3.3,0,0,0,.013.107.367.367,0,0,0,.013.12c.293,2.373.52,4.746.693,7.107" fill="#d25172"/><path d="M2422.581-2760.673c-.013-.84-.027-1.667-.027-2.507,0-15.707,3.147-31.933,9.04-48.107.147-.413.293-.813.44-1.213-6.173,16.587-9.48,33.227-9.48,49.32,0,.84.013,1.68.027,2.507" fill="#d2a7b7"/><path d="M2971.552-2745.646c-2.987-20.707-10.973-41.934-23.146-62.453a149.6,149.6,0,0,0,10.013-16.373,172.3,172.3,0,0,1,7.92,20.493,141.747,141.747,0,0,1,6.267,32.373v.067c0,.067.013.107.013.174a.552.552,0,0,0,.013.146v.067q.26,4,.267,7.947c0,1.12-.013,2.24-.053,3.347a114.752,114.752,0,0,1-1.293,14.213m-547.652,0a119.857,119.857,0,0,1-1.32-15.027c-.013-.826-.026-1.667-.026-2.507,0-16.093,3.307-32.733,9.48-49.32q2.26-6,5-11.973a149.57,149.57,0,0,0,10.013,16.373c-12.16,20.52-20.16,41.747-23.146,62.453" fill="#d2859e"/><path d="M2697.727-2967.833c-148.653,0-252.493,84.16-252.493,204.653,0,85.693,113.28,155.413,252.493,155.413s252.492-69.72,252.492-155.413C2950.219-2883.673,2846.393-2967.833,2697.727-2967.833Zm0,405.426c-164.24,0-297.853-90.066-297.853-200.773,0-147.2,122.479-250.012,297.853-250.012S2995.58-2910.38,2995.58-2763.18c0,110.707-133.613,200.773-297.853,200.773" fill="#6b184e"/><path d="M2623.993-2774.58c0,39.213-13.053,71-29.16,71s-29.16-31.787-29.16-71,13.053-71,29.16-71,29.16,31.787,29.16,71" fill="#6b184e"/><path d="M2829.78-2774.58c0,39.213-13.053,71-29.16,71s-29.147-31.787-29.147-71,13.053-71,29.147-71,29.16,31.787,29.16,71" fill="#6b184e"/><path d="M1807.582-1830.556s119.333,258.533,357.986,324.826,342.959-132.733,232.426-302.186c-97.32-149.173-253.973-76.866-302.026-385.039l-288.386,362.4" fill="#fccaca"/><path d="M1814.449-1833.716c24.08,22.733,42.76,47.6,61.2,72.6,18.813,24.707,36.987,49.773,56.866,73.533a513.838,513.838,0,0,0,65.493,65.333A522.966,522.966,0,0,0,2073-1569.276a430.922,430.922,0,0,0,83.186,36.947c28.867,9.24,58.587,15.333,88.013,16.64a129.654,129.654,0,0,0,13.84.173c2.707-.067,5.413-.133,8.133-.093l10.827-.933,5.413-.453,5.307-.88c14.32-1.827,27.974-5.947,41.013-11.053a141.15,141.15,0,0,0,35.893-20.787,133.17,133.17,0,0,0,28.174-29.867A154.025,154.025,0,0,0,2418.941-1658a180.142,180.142,0,0,0-2.187-42.76c-.867-7.16-2.88-14.173-4.414-21.24-2.2-6.947-3.947-14.013-6.747-20.8-10-27.387-25.453-53.573-43.84-76-18.827-22.28-41.76-40.453-67.96-56.413-26.093-16.08-55.32-30.747-83.266-50.547a299.492,299.492,0,0,1-39.747-33.413,280.633,280.633,0,0,1-32.8-40.76c-18.987-29.187-32.413-60.733-43.947-92.24a211.825,211.825,0,0,1-10.68-48.853c-1.454-16.613-.56-33.52,5.133-50.76a8.506,8.506,0,0,1,10.733-5.4,8.368,8.368,0,0,1,3.933,2.72l.28.346c5.76,7.12,9.747,14.387,13.453,21.667a198.241,198.241,0,0,1,9.493,21.866c5.387,14.64,9.733,29.28,13.854,43.906,1.853,7.427,4.307,14.507,6.427,21.8,2.347,7.173,5.12,14.146,8,21.067,6.267,13.533,13.053,26.746,21.187,38.893A236.7,236.7,0,0,0,2203.1-1991a253.733,253.733,0,0,0,33.653,28.213c24.28,17.32,52.413,31.547,80.813,48.947,28.44,17.253,56.44,39.107,78.92,65.867a309.455,309.455,0,0,1,51.653,89.453c3.267,8.04,5.467,16.52,8.027,24.84,1.92,8.547,4.24,16.987,5.373,25.72a224.248,224.248,0,0,1,2.667,52.853,199.354,199.354,0,0,1-34.093,101.32c-20.707,30.093-50.893,53.507-84.226,66.853-16.667,6.587-33.947,11.613-51.387,13.907l-6.533,1.053-6.547.573-13.08,1.093c-2.933-.013-5.893.053-8.84.12a171.031,171.031,0,0,1-17.16-.187c-34.533-1.533-68.013-8.533-100.04-18.773a476.292,476.292,0,0,1-91.933-40.813,567.68,567.68,0,0,1-81.6-57.613c-25.467-21.36-48.867-44.827-71.386-68.987-22.573-24.133-43.467-49.907-60.693-78.067-17.453-27.947-31.987-57.973-35.96-92.76a7.956,7.956,0,0,1,6.987-8.813,7.953,7.953,0,0,1,6.347,2.107l.387.373" fill="#6b184e"/><path d="M3526.658-1830.556s-119.32,258.533-357.986,324.826-342.946-132.733-232.413-302.186c97.32-149.173,253.959-76.866,302.026-385.039l288.373,362.4" fill="#fccaca"/><path d="M3436.991-1692.783h0a781.045,781.045,0,0,0,54.347-75.2,779.382,779.382,0,0,1-54.347,75.2" fill="#d094a5"/><path d="M3358.352-1611.209c12.227-10.667,23.813-21.627,34.72-32.667h0c-10.907,11.04-22.493,22-34.72,32.667" fill="#ae533f"/><path d="M3393.072-1643.876h0c16.093-16.307,30.733-32.8,43.92-48.906h0c-13.187,16.107-27.826,32.6-43.92,48.906" fill="#6b184e"/><path d="M3079.512-1492.676c-141.32,0-210.746-111.587-180.279-232.133,20.28,71.8,83.386,124.253,180.253,124.253,27.147,0,56.92-4.107,89.173-13.067,135.306-37.546,232.266-136.92,290.839-215.933a41.966,41.966,0,0,1,33.893-17.027,42.248,42.248,0,0,1,33.253,16.04s-11.76,25.507-35.307,62.56a781.15,781.15,0,0,1-54.346,75.2c-13.187,16.107-27.827,32.6-43.92,48.906-10.907,11.04-22.493,22-34.72,32.667-51.44,44.813-114.667,84.64-189.693,105.467-32.227,8.96-62.013,13.067-89.146,13.067" fill="#d094a5"/><path d="M2251.581-1515.423c-2.454,0-4.92-.067-7.387-.267-29.427-1.307-59.146-7.4-88.013-16.64a430.946,430.946,0,0,1-83.187-36.947,522.994,522.994,0,0,1-74.986-52.973,513.845,513.845,0,0,1-65.493-65.333c-19.88-23.76-38.053-48.827-56.867-73.533-18.44-25-37.12-49.867-61.2-72.6l-.387-.373a7.978,7.978,0,0,0-1.92-1.333,42.258,42.258,0,0,1,28.72-11.16,41.93,41.93,0,0,1,33.893,17.027c58.587,79.013,155.546,178.386,290.853,215.933,32.24,8.96,62.013,13.067,89.16,13.067,78.28,0,134.52-34.253,163.906-85.28a178.167,178.167,0,0,1,.267,27.84,154.028,154.028,0,0,1-26.147,78.413,133.168,133.168,0,0,1-28.173,29.867,141.155,141.155,0,0,1-35.893,20.787c-13.04,5.107-26.693,9.227-41.013,11.053l-5.307.88-5.413.453-10.826.933c-.573-.013-1.147-.013-1.72-.013-2.146,0-4.28.053-6.413.107-2.16.04-4.307.093-6.453.093" fill="#d094a5"/><path d="M2254.754-1492.676c-27.133,0-56.92-4.107-89.146-13.067-238.706-66.267-358-324.8-358-324.8a44.019,44.019,0,0,1,4.533-4.88,7.985,7.985,0,0,1,1.92,1.333l.387.373c24.08,22.733,42.76,47.6,61.2,72.6,18.813,24.707,36.987,49.773,56.866,73.533a513.838,513.838,0,0,0,65.493,65.333A522.975,522.975,0,0,0,2073-1569.276a430.93,430.93,0,0,0,83.186,36.947c28.867,9.24,58.587,15.333,88.013,16.64,2.467.2,4.933.267,7.387.267,2.146,0,4.293-.053,6.453-.093,2.133-.053,4.267-.107,6.413-.107.573,0,1.147,0,1.72.013l10.827-.933,5.413-.453,5.307-.88c14.32-1.827,27.974-5.947,41.013-11.053a141.146,141.146,0,0,0,35.893-20.787,133.17,133.17,0,0,0,28.174-29.867A154.025,154.025,0,0,0,2418.941-1658a178.138,178.138,0,0,0-.267-27.84,170.871,170.871,0,0,0,16.347-38.973c30.48,120.546-38.96,232.133-180.266,232.133" fill="#6b184e"/><path d="M3533.525-1827.382c-3.987,34.786-18.52,64.813-35.974,92.76-17.227,28.16-38.12,53.933-60.68,78.067-22.533,24.16-45.933,47.626-71.386,68.986a568.531,568.531,0,0,1-81.613,57.613,475.558,475.558,0,0,1-91.933,40.813c-32.026,10.24-65.493,17.24-100.04,18.773-8.573.667-17.333.04-26,.067l-13.08-1.093-6.533-.573-6.533-1.053c-17.44-2.293-34.72-7.32-51.387-13.907-33.333-13.347-63.533-36.76-84.226-66.853a199.486,199.486,0,0,1-34.107-101.32,224.954,224.954,0,0,1,2.68-52.853c1.12-8.733,3.44-17.173,5.36-25.72,2.56-8.32,4.76-16.8,8.027-24.84a309.754,309.754,0,0,1,51.653-89.453c22.48-26.76,50.493-48.613,78.92-65.866,28.413-17.4,56.547-31.627,80.826-48.933A254.851,254.851,0,0,0,3131.152-1991a237.639,237.639,0,0,0,27.253-33.92c8.134-12.147,14.92-25.36,21.187-38.893,2.88-6.92,5.64-13.894,7.987-21.067,2.12-7.293,4.587-14.373,6.44-21.8,4.12-14.627,8.467-29.267,13.84-43.906a200.873,200.873,0,0,1,9.493-21.867c3.707-7.267,7.693-14.547,13.467-21.666l.28-.347a8.464,8.464,0,0,1,11.934-1.253,8.3,8.3,0,0,1,2.72,3.933c5.693,17.24,6.6,34.146,5.133,50.76a211.1,211.1,0,0,1-10.667,48.853c-11.546,31.507-24.96,63.053-43.947,92.24a281.521,281.521,0,0,1-32.8,40.76,300.377,300.377,0,0,1-39.747,33.413c-27.96,19.8-57.173,34.48-83.266,50.546-26.213,15.96-49.133,34.133-67.973,56.413-18.373,22.427-33.84,48.613-43.826,76-2.8,6.787-4.547,13.853-6.746,20.8-1.534,7.067-3.547,14.08-4.414,21.24a178.756,178.756,0,0,0-2.187,42.76,154.142,154.142,0,0,0,26.134,78.413,133.16,133.16,0,0,0,28.173,29.866,141.612,141.612,0,0,0,35.893,20.787c13.04,5.107,26.707,9.227,41.013,11.053l5.32.88,5.413.453,10.827.933c7.333-.107,14.586.533,21.959-.08,29.44-1.307,59.16-7.4,88.026-16.64a431.183,431.183,0,0,0,83.173-36.947,522.367,522.367,0,0,0,75-52.973,513.757,513.757,0,0,0,65.479-65.333c19.88-23.76,38.053-48.827,56.867-73.533,18.44-25,37.133-49.866,61.2-72.6l.374-.36a7.947,7.947,0,0,1,11.24.333,8.01,8.01,0,0,1,2.12,6.36" fill="#6b184e"/></g></svg>